%
M48
M72
T01C0.01378
T02C0.03150
T03C0.03200
T04C0.03937
T05C0.04000
T06C0.07480
%
T01
X66600Y61600
X71600Y51600
X71600Y121600
X51600Y131600
X156600Y146600
X161600Y146600
X156600Y161600
X186600Y156600
X181600Y81600
T02
X168021Y174801
X172746Y177950
X168021Y181100
X172746Y184250
X168021Y187399
X149474Y194600
X141600Y194600
X133726Y194600
T03
X36600Y166600
X66600Y166600
X76600Y171600
X86600Y171600
X91600Y161600
X91600Y151600
X91600Y141600
X91600Y131600
X91600Y121600
X91600Y111600
X91600Y101600
X91600Y91600
X91600Y81600
X91600Y71600
X91600Y61600
X91600Y51600
X91600Y41600
X91600Y31600
X76600Y31600
X76600Y41600
X91600Y16600
X121600Y16600
X121600Y31600
X121600Y41600
X121600Y51600
X121600Y61600
X121600Y71600
X121600Y81600
X121600Y91600
X121600Y101600
X121600Y111600
X121600Y121600
X121600Y131600
X121600Y141600
X121600Y151600
X121600Y161600
X131100Y169100
X136600Y161600
X136600Y151600
X151600Y151600
X171600Y146600
X171600Y156600
X151600Y181600
X131100Y179100
X111600Y191600
X106600Y184100
X101600Y191600
X86600Y191600
X76600Y191600
X36600Y81600
X36600Y51600
X141600Y71600
X141600Y81600
X146600Y16600
X156600Y16600
T04
X125852Y194600
X157348Y194600
T05
X11600Y196600
X11600Y186600
X11600Y176600
X11600Y166600
X11600Y156600
X11600Y141600
X11600Y131600
X11600Y121600
X11600Y111600
X11600Y101600
X11600Y91600
X11600Y81600
X11600Y71600
X16600Y21600
X36600Y21600
X76600Y66600
X76600Y76600
X76600Y86600
X61600Y191600
X41600Y191600
X199100Y141600
X199100Y131600
X199100Y121600
X199100Y111600
X199100Y101600
X199100Y91600
X199100Y81600
X199100Y71600
T06
X188100Y166730
X188100Y195470
M30
