G75*
%MOIN*%
%OFA0B0*%
%FSLAX25Y25*%
%IPPOS*%
%LPD*%
%AMOC8*
5,1,8,0,0,1.08239X$1,22.5*
%
%ADD10C,0.00000*%
%ADD11OC8,0.05200*%
%ADD12C,0.06300*%
%ADD13OC8,0.06300*%
%ADD14C,0.07400*%
%ADD15C,0.05150*%
%ADD16C,0.11220*%
%ADD17C,0.05200*%
%ADD18C,0.05937*%
%ADD19C,0.01200*%
%ADD20C,0.02578*%
%ADD21C,0.01600*%
D10*
X0006600Y0006600D02*
X0006600Y0203450D01*
X0203450Y0203450D01*
X0203450Y0006600D01*
X0006600Y0006600D01*
D11*
X0036600Y0051600D03*
X0036600Y0081600D03*
X0076600Y0041600D03*
X0076600Y0031600D03*
X0091600Y0016600D03*
X0121600Y0016600D03*
X0146600Y0016600D03*
X0156600Y0016600D03*
X0171600Y0146600D03*
X0171600Y0156600D03*
X0151600Y0151600D03*
X0136600Y0151600D03*
X0136600Y0161600D03*
X0131100Y0169100D03*
X0131100Y0179100D03*
X0111600Y0191600D03*
X0106600Y0184100D03*
X0101600Y0191600D03*
X0086600Y0171600D03*
X0076600Y0171600D03*
X0066600Y0166600D03*
X0036600Y0166600D03*
X0151600Y0181600D03*
D12*
X0076600Y0191600D03*
X0141600Y0081600D03*
D13*
X0141600Y0071600D03*
X0086600Y0191600D03*
D14*
X0061600Y0191600D03*
X0041600Y0191600D03*
X0011600Y0186600D03*
X0011600Y0176600D03*
X0011600Y0166600D03*
X0011600Y0156600D03*
X0011600Y0141600D03*
X0011600Y0131600D03*
X0011600Y0121600D03*
X0011600Y0111600D03*
X0011600Y0101600D03*
X0011600Y0091600D03*
X0011600Y0081600D03*
X0011600Y0071600D03*
X0016600Y0021600D03*
X0036600Y0021600D03*
X0076600Y0066600D03*
X0076600Y0076600D03*
X0076600Y0086600D03*
X0011600Y0196600D03*
X0199100Y0141600D03*
X0199100Y0131600D03*
X0199100Y0121600D03*
X0199100Y0111600D03*
X0199100Y0101600D03*
X0199100Y0091600D03*
X0199100Y0081600D03*
X0199100Y0071600D03*
D15*
X0168021Y0174801D03*
X0172746Y0177950D03*
X0168021Y0181100D03*
X0172746Y0184250D03*
X0168021Y0187399D03*
X0149474Y0194600D03*
X0141600Y0194600D03*
X0133726Y0194600D03*
D16*
X0188100Y0195470D03*
X0188100Y0166730D03*
D17*
X0124200Y0161600D02*
X0119000Y0161600D01*
X0119000Y0151600D02*
X0124200Y0151600D01*
X0124200Y0141600D02*
X0119000Y0141600D01*
X0119000Y0131600D02*
X0124200Y0131600D01*
X0124200Y0121600D02*
X0119000Y0121600D01*
X0119000Y0111600D02*
X0124200Y0111600D01*
X0124200Y0101600D02*
X0119000Y0101600D01*
X0119000Y0091600D02*
X0124200Y0091600D01*
X0124200Y0081600D02*
X0119000Y0081600D01*
X0119000Y0071600D02*
X0124200Y0071600D01*
X0124200Y0061600D02*
X0119000Y0061600D01*
X0119000Y0051600D02*
X0124200Y0051600D01*
X0124200Y0041600D02*
X0119000Y0041600D01*
X0119000Y0031600D02*
X0124200Y0031600D01*
X0094200Y0031600D02*
X0089000Y0031600D01*
X0089000Y0041600D02*
X0094200Y0041600D01*
X0094200Y0051600D02*
X0089000Y0051600D01*
X0089000Y0061600D02*
X0094200Y0061600D01*
X0094200Y0071600D02*
X0089000Y0071600D01*
X0089000Y0081600D02*
X0094200Y0081600D01*
X0094200Y0091600D02*
X0089000Y0091600D01*
X0089000Y0101600D02*
X0094200Y0101600D01*
X0094200Y0111600D02*
X0089000Y0111600D01*
X0089000Y0121600D02*
X0094200Y0121600D01*
X0094200Y0131600D02*
X0089000Y0131600D01*
X0089000Y0141600D02*
X0094200Y0141600D01*
X0094200Y0151600D02*
X0089000Y0151600D01*
X0089000Y0161600D02*
X0094200Y0161600D01*
D18*
X0125852Y0194600D03*
X0157348Y0194600D03*
D19*
X0151600Y0181600D02*
X0146600Y0181600D01*
X0141600Y0176600D01*
X0141600Y0166600D01*
X0136600Y0161600D01*
X0134100Y0179100D02*
X0131100Y0179100D01*
X0111600Y0179100D01*
X0106600Y0184100D01*
X0091600Y0161600D02*
X0071600Y0161600D01*
X0066600Y0166600D01*
X0051600Y0156600D01*
X0011600Y0156600D01*
X0011600Y0166600D02*
X0036600Y0166600D01*
X0041600Y0171600D01*
X0076600Y0171600D01*
X0091600Y0151600D02*
X0051600Y0151600D01*
X0041600Y0141600D01*
X0011600Y0141600D01*
X0011600Y0131600D02*
X0041600Y0131600D01*
X0051600Y0141600D01*
X0091600Y0141600D01*
X0091600Y0121600D02*
X0071600Y0121600D01*
X0071600Y0111600D02*
X0061600Y0121600D01*
X0011600Y0121600D01*
X0011600Y0111600D02*
X0061600Y0111600D01*
X0071600Y0101600D01*
X0091600Y0101600D01*
X0091600Y0111600D02*
X0071600Y0111600D01*
X0056600Y0101600D02*
X0066600Y0091600D01*
X0066600Y0061600D01*
X0071600Y0056600D01*
X0081600Y0056600D01*
X0086600Y0061600D01*
X0091600Y0061600D01*
X0091600Y0051600D02*
X0071600Y0051600D01*
X0061600Y0061600D01*
X0061600Y0086600D01*
X0056600Y0091600D01*
X0011600Y0091600D01*
X0011600Y0081600D02*
X0036600Y0081600D01*
X0056600Y0101600D02*
X0011600Y0101600D01*
X0076600Y0041600D02*
X0091600Y0041600D01*
X0121600Y0041600D02*
X0146600Y0041600D01*
X0166600Y0061600D01*
X0166600Y0081600D01*
X0176600Y0091600D01*
X0199100Y0091600D01*
X0199100Y0081600D02*
X0181600Y0081600D01*
X0176600Y0081600D01*
X0171600Y0076600D01*
X0171600Y0056600D01*
X0146600Y0031600D01*
X0121600Y0031600D01*
X0121600Y0051600D02*
X0146600Y0051600D01*
X0161600Y0066600D01*
X0161600Y0086600D01*
X0176600Y0101600D01*
X0199100Y0101600D01*
X0199100Y0111600D02*
X0171600Y0111600D01*
X0156600Y0096600D01*
X0156600Y0071600D01*
X0146600Y0061600D01*
X0121600Y0061600D01*
X0121600Y0121600D02*
X0199100Y0121600D01*
X0199100Y0131600D02*
X0121600Y0131600D01*
X0121600Y0141600D02*
X0199100Y0141600D01*
X0186600Y0156600D02*
X0179600Y0164600D01*
X0179600Y0179895D01*
X0172746Y0184250D01*
X0168021Y0181100D02*
X0161600Y0177179D01*
X0161600Y0146600D01*
X0156600Y0146600D02*
X0156600Y0161600D01*
X0134100Y0179100D02*
X0141600Y0186600D01*
X0141600Y0194600D01*
D20*
X0156600Y0161600D03*
X0156600Y0146600D03*
X0161600Y0146600D03*
X0186600Y0156600D03*
X0181600Y0081600D03*
X0071600Y0051600D03*
X0066600Y0061600D03*
X0071600Y0121600D03*
X0051600Y0131600D03*
D21*
X0091600Y0131600D01*
M02*
