G75*
%MOIN*%
%OFA0B0*%
%FSLAX25Y25*%
%IPPOS*%
%LPD*%
%AMOC8*
5,1,8,0,0,1.08239X$1,22.5*
%
%ADD10C,0.00000*%
%ADD11C,0.00400*%
%ADD12C,0.00500*%
D10*
X0006600Y0006600D02*
X0006600Y0203450D01*
X0203450Y0203450D01*
X0203450Y0006600D01*
X0006600Y0006600D01*
D11*
X0020544Y0069300D02*
X0020544Y0073900D01*
X0023100Y0073900D02*
X0020544Y0069300D01*
X0023100Y0069300D02*
X0023100Y0073900D01*
X0025344Y0073900D02*
X0026878Y0073900D01*
X0026940Y0073898D01*
X0027001Y0073893D01*
X0027062Y0073883D01*
X0027123Y0073870D01*
X0027182Y0073854D01*
X0027240Y0073834D01*
X0027297Y0073810D01*
X0027353Y0073783D01*
X0027407Y0073753D01*
X0027459Y0073719D01*
X0027508Y0073683D01*
X0027556Y0073643D01*
X0027601Y0073601D01*
X0027643Y0073556D01*
X0027683Y0073508D01*
X0027719Y0073459D01*
X0027753Y0073407D01*
X0027783Y0073353D01*
X0027810Y0073297D01*
X0027834Y0073240D01*
X0027854Y0073182D01*
X0027870Y0073123D01*
X0027883Y0073062D01*
X0027893Y0073001D01*
X0027898Y0072940D01*
X0027900Y0072878D01*
X0027900Y0070322D01*
X0027898Y0070260D01*
X0027893Y0070199D01*
X0027883Y0070138D01*
X0027870Y0070077D01*
X0027854Y0070018D01*
X0027834Y0069960D01*
X0027810Y0069903D01*
X0027783Y0069847D01*
X0027753Y0069793D01*
X0027719Y0069741D01*
X0027683Y0069692D01*
X0027643Y0069644D01*
X0027601Y0069599D01*
X0027556Y0069557D01*
X0027508Y0069517D01*
X0027459Y0069481D01*
X0027407Y0069447D01*
X0027353Y0069417D01*
X0027297Y0069390D01*
X0027240Y0069366D01*
X0027182Y0069346D01*
X0027123Y0069330D01*
X0027062Y0069317D01*
X0027001Y0069307D01*
X0026940Y0069302D01*
X0026878Y0069300D01*
X0025344Y0069300D01*
X0025344Y0071856D01*
X0026111Y0071856D01*
X0026622Y0079300D02*
X0027900Y0079300D01*
X0026622Y0079300D02*
X0026552Y0079302D01*
X0026481Y0079308D01*
X0026412Y0079317D01*
X0026343Y0079331D01*
X0026274Y0079348D01*
X0026207Y0079369D01*
X0026141Y0079394D01*
X0026077Y0079422D01*
X0026014Y0079454D01*
X0025953Y0079489D01*
X0025894Y0079528D01*
X0025837Y0079569D01*
X0025783Y0079614D01*
X0025731Y0079662D01*
X0025682Y0079712D01*
X0025635Y0079766D01*
X0025592Y0079821D01*
X0025552Y0079879D01*
X0025515Y0079939D01*
X0025482Y0080001D01*
X0025452Y0080065D01*
X0025425Y0080130D01*
X0025402Y0080196D01*
X0025383Y0080264D01*
X0025368Y0080333D01*
X0025356Y0080402D01*
X0025348Y0080472D01*
X0025344Y0080543D01*
X0025344Y0080613D01*
X0025348Y0080684D01*
X0025356Y0080754D01*
X0025368Y0080823D01*
X0025383Y0080892D01*
X0025402Y0080960D01*
X0025425Y0081026D01*
X0025452Y0081091D01*
X0025482Y0081155D01*
X0025515Y0081217D01*
X0025552Y0081277D01*
X0025592Y0081335D01*
X0025635Y0081390D01*
X0025682Y0081444D01*
X0025731Y0081494D01*
X0025783Y0081542D01*
X0025837Y0081587D01*
X0025894Y0081628D01*
X0025953Y0081667D01*
X0026014Y0081702D01*
X0026077Y0081734D01*
X0026141Y0081762D01*
X0026207Y0081787D01*
X0026274Y0081808D01*
X0026343Y0081825D01*
X0026412Y0081839D01*
X0026481Y0081848D01*
X0026552Y0081854D01*
X0026622Y0081856D01*
X0026367Y0081856D02*
X0027389Y0081856D01*
X0026367Y0081856D02*
X0026304Y0081858D01*
X0026241Y0081864D01*
X0026179Y0081873D01*
X0026118Y0081887D01*
X0026057Y0081904D01*
X0025998Y0081925D01*
X0025940Y0081950D01*
X0025883Y0081978D01*
X0025829Y0082009D01*
X0025777Y0082044D01*
X0025726Y0082082D01*
X0025678Y0082123D01*
X0025633Y0082167D01*
X0025591Y0082213D01*
X0025551Y0082262D01*
X0025515Y0082313D01*
X0025482Y0082367D01*
X0025452Y0082422D01*
X0025426Y0082480D01*
X0025403Y0082538D01*
X0025384Y0082598D01*
X0025369Y0082659D01*
X0025357Y0082721D01*
X0025349Y0082784D01*
X0025345Y0082847D01*
X0025345Y0082909D01*
X0025349Y0082972D01*
X0025357Y0083035D01*
X0025369Y0083097D01*
X0025384Y0083158D01*
X0025403Y0083218D01*
X0025426Y0083276D01*
X0025452Y0083334D01*
X0025482Y0083389D01*
X0025515Y0083443D01*
X0025551Y0083494D01*
X0025591Y0083543D01*
X0025633Y0083589D01*
X0025678Y0083633D01*
X0025726Y0083674D01*
X0025777Y0083712D01*
X0025829Y0083747D01*
X0025883Y0083778D01*
X0025940Y0083806D01*
X0025998Y0083831D01*
X0026057Y0083852D01*
X0026118Y0083869D01*
X0026179Y0083883D01*
X0026241Y0083892D01*
X0026304Y0083898D01*
X0026367Y0083900D01*
X0027900Y0083900D01*
X0023656Y0083900D02*
X0022122Y0079300D01*
X0020589Y0083900D01*
X0021356Y0089300D02*
X0021356Y0091344D01*
X0020589Y0090322D02*
X0023144Y0090322D01*
X0022122Y0093900D01*
X0025217Y0090450D02*
X0027517Y0090450D01*
X0027900Y0089300D02*
X0026367Y0093900D01*
X0024833Y0089300D01*
X0026622Y0099300D02*
X0027900Y0099300D01*
X0027900Y0103900D01*
X0026622Y0103900D01*
X0026559Y0103898D01*
X0026496Y0103892D01*
X0026434Y0103883D01*
X0026373Y0103869D01*
X0026312Y0103852D01*
X0026253Y0103831D01*
X0026195Y0103806D01*
X0026138Y0103778D01*
X0026084Y0103747D01*
X0026032Y0103712D01*
X0025981Y0103674D01*
X0025933Y0103633D01*
X0025888Y0103589D01*
X0025846Y0103543D01*
X0025806Y0103494D01*
X0025770Y0103443D01*
X0025737Y0103389D01*
X0025707Y0103334D01*
X0025681Y0103276D01*
X0025658Y0103218D01*
X0025639Y0103158D01*
X0025624Y0103097D01*
X0025612Y0103035D01*
X0025604Y0102972D01*
X0025600Y0102909D01*
X0025600Y0102847D01*
X0025604Y0102784D01*
X0025612Y0102721D01*
X0025624Y0102659D01*
X0025639Y0102598D01*
X0025658Y0102538D01*
X0025681Y0102480D01*
X0025707Y0102422D01*
X0025737Y0102367D01*
X0025770Y0102313D01*
X0025806Y0102262D01*
X0025846Y0102213D01*
X0025888Y0102167D01*
X0025933Y0102123D01*
X0025981Y0102082D01*
X0026032Y0102044D01*
X0026084Y0102009D01*
X0026138Y0101978D01*
X0026195Y0101950D01*
X0026253Y0101925D01*
X0026312Y0101904D01*
X0026373Y0101887D01*
X0026434Y0101873D01*
X0026496Y0101864D01*
X0026559Y0101858D01*
X0026622Y0101856D01*
X0027900Y0101856D01*
X0026622Y0101856D02*
X0026552Y0101854D01*
X0026481Y0101848D01*
X0026412Y0101839D01*
X0026343Y0101825D01*
X0026274Y0101808D01*
X0026207Y0101787D01*
X0026141Y0101762D01*
X0026077Y0101734D01*
X0026014Y0101702D01*
X0025953Y0101667D01*
X0025894Y0101628D01*
X0025837Y0101587D01*
X0025783Y0101542D01*
X0025731Y0101494D01*
X0025682Y0101444D01*
X0025635Y0101390D01*
X0025592Y0101335D01*
X0025552Y0101277D01*
X0025515Y0101217D01*
X0025482Y0101155D01*
X0025452Y0101091D01*
X0025425Y0101026D01*
X0025402Y0100960D01*
X0025383Y0100892D01*
X0025368Y0100823D01*
X0025356Y0100754D01*
X0025348Y0100684D01*
X0025344Y0100613D01*
X0025344Y0100543D01*
X0025348Y0100472D01*
X0025356Y0100402D01*
X0025368Y0100333D01*
X0025383Y0100264D01*
X0025402Y0100196D01*
X0025425Y0100130D01*
X0025452Y0100065D01*
X0025482Y0100001D01*
X0025515Y0099939D01*
X0025552Y0099879D01*
X0025592Y0099821D01*
X0025635Y0099766D01*
X0025682Y0099712D01*
X0025731Y0099662D01*
X0025783Y0099614D01*
X0025837Y0099569D01*
X0025894Y0099528D01*
X0025953Y0099489D01*
X0026014Y0099454D01*
X0026077Y0099422D01*
X0026141Y0099394D01*
X0026207Y0099369D01*
X0026274Y0099348D01*
X0026343Y0099331D01*
X0026412Y0099317D01*
X0026481Y0099308D01*
X0026552Y0099302D01*
X0026622Y0099300D01*
X0023617Y0100322D02*
X0021061Y0100322D01*
X0021828Y0101344D02*
X0021828Y0099300D01*
X0023617Y0100322D02*
X0022594Y0103900D01*
X0022339Y0109300D02*
X0023617Y0109300D01*
X0022339Y0109300D02*
X0022269Y0109302D01*
X0022198Y0109308D01*
X0022129Y0109317D01*
X0022060Y0109331D01*
X0021991Y0109348D01*
X0021924Y0109369D01*
X0021858Y0109394D01*
X0021794Y0109422D01*
X0021731Y0109454D01*
X0021670Y0109489D01*
X0021611Y0109528D01*
X0021554Y0109569D01*
X0021500Y0109614D01*
X0021448Y0109662D01*
X0021399Y0109712D01*
X0021352Y0109766D01*
X0021309Y0109821D01*
X0021269Y0109879D01*
X0021232Y0109939D01*
X0021199Y0110001D01*
X0021169Y0110065D01*
X0021142Y0110130D01*
X0021119Y0110196D01*
X0021100Y0110264D01*
X0021085Y0110333D01*
X0021073Y0110402D01*
X0021065Y0110472D01*
X0021061Y0110543D01*
X0021061Y0110613D01*
X0021065Y0110684D01*
X0021073Y0110754D01*
X0021085Y0110823D01*
X0021100Y0110892D01*
X0021119Y0110960D01*
X0021142Y0111026D01*
X0021169Y0111091D01*
X0021199Y0111155D01*
X0021232Y0111217D01*
X0021269Y0111277D01*
X0021309Y0111335D01*
X0021352Y0111390D01*
X0021399Y0111444D01*
X0021448Y0111494D01*
X0021500Y0111542D01*
X0021554Y0111587D01*
X0021611Y0111628D01*
X0021670Y0111667D01*
X0021731Y0111702D01*
X0021794Y0111734D01*
X0021858Y0111762D01*
X0021924Y0111787D01*
X0021991Y0111808D01*
X0022060Y0111825D01*
X0022129Y0111839D01*
X0022198Y0111848D01*
X0022269Y0111854D01*
X0022339Y0111856D01*
X0022083Y0111856D02*
X0023106Y0111856D01*
X0022083Y0111856D02*
X0022020Y0111858D01*
X0021957Y0111864D01*
X0021895Y0111873D01*
X0021834Y0111887D01*
X0021773Y0111904D01*
X0021714Y0111925D01*
X0021656Y0111950D01*
X0021599Y0111978D01*
X0021545Y0112009D01*
X0021493Y0112044D01*
X0021442Y0112082D01*
X0021394Y0112123D01*
X0021349Y0112167D01*
X0021307Y0112213D01*
X0021267Y0112262D01*
X0021231Y0112313D01*
X0021198Y0112367D01*
X0021168Y0112422D01*
X0021142Y0112480D01*
X0021119Y0112538D01*
X0021100Y0112598D01*
X0021085Y0112659D01*
X0021073Y0112721D01*
X0021065Y0112784D01*
X0021061Y0112847D01*
X0021061Y0112909D01*
X0021065Y0112972D01*
X0021073Y0113035D01*
X0021085Y0113097D01*
X0021100Y0113158D01*
X0021119Y0113218D01*
X0021142Y0113276D01*
X0021168Y0113334D01*
X0021198Y0113389D01*
X0021231Y0113443D01*
X0021267Y0113494D01*
X0021307Y0113543D01*
X0021349Y0113589D01*
X0021394Y0113633D01*
X0021442Y0113674D01*
X0021493Y0113712D01*
X0021545Y0113747D01*
X0021599Y0113778D01*
X0021656Y0113806D01*
X0021714Y0113831D01*
X0021773Y0113852D01*
X0021834Y0113869D01*
X0021895Y0113883D01*
X0021957Y0113892D01*
X0022020Y0113898D01*
X0022083Y0113900D01*
X0023617Y0113900D01*
X0026622Y0113900D02*
X0027900Y0113900D01*
X0027900Y0109300D01*
X0026622Y0109300D01*
X0026552Y0109302D01*
X0026481Y0109308D01*
X0026412Y0109317D01*
X0026343Y0109331D01*
X0026274Y0109348D01*
X0026207Y0109369D01*
X0026141Y0109394D01*
X0026077Y0109422D01*
X0026014Y0109454D01*
X0025953Y0109489D01*
X0025894Y0109528D01*
X0025837Y0109569D01*
X0025783Y0109614D01*
X0025731Y0109662D01*
X0025682Y0109712D01*
X0025635Y0109766D01*
X0025592Y0109821D01*
X0025552Y0109879D01*
X0025515Y0109939D01*
X0025482Y0110001D01*
X0025452Y0110065D01*
X0025425Y0110130D01*
X0025402Y0110196D01*
X0025383Y0110264D01*
X0025368Y0110333D01*
X0025356Y0110402D01*
X0025348Y0110472D01*
X0025344Y0110543D01*
X0025344Y0110613D01*
X0025348Y0110684D01*
X0025356Y0110754D01*
X0025368Y0110823D01*
X0025383Y0110892D01*
X0025402Y0110960D01*
X0025425Y0111026D01*
X0025452Y0111091D01*
X0025482Y0111155D01*
X0025515Y0111217D01*
X0025552Y0111277D01*
X0025592Y0111335D01*
X0025635Y0111390D01*
X0025682Y0111444D01*
X0025731Y0111494D01*
X0025783Y0111542D01*
X0025837Y0111587D01*
X0025894Y0111628D01*
X0025953Y0111667D01*
X0026014Y0111702D01*
X0026077Y0111734D01*
X0026141Y0111762D01*
X0026207Y0111787D01*
X0026274Y0111808D01*
X0026343Y0111825D01*
X0026412Y0111839D01*
X0026481Y0111848D01*
X0026552Y0111854D01*
X0026622Y0111856D01*
X0027900Y0111856D01*
X0026622Y0111856D02*
X0026559Y0111858D01*
X0026496Y0111864D01*
X0026434Y0111873D01*
X0026373Y0111887D01*
X0026312Y0111904D01*
X0026253Y0111925D01*
X0026195Y0111950D01*
X0026138Y0111978D01*
X0026084Y0112009D01*
X0026032Y0112044D01*
X0025981Y0112082D01*
X0025933Y0112123D01*
X0025888Y0112167D01*
X0025846Y0112213D01*
X0025806Y0112262D01*
X0025770Y0112313D01*
X0025737Y0112367D01*
X0025707Y0112422D01*
X0025681Y0112480D01*
X0025658Y0112538D01*
X0025639Y0112598D01*
X0025624Y0112659D01*
X0025612Y0112721D01*
X0025604Y0112784D01*
X0025600Y0112847D01*
X0025600Y0112909D01*
X0025604Y0112972D01*
X0025612Y0113035D01*
X0025624Y0113097D01*
X0025639Y0113158D01*
X0025658Y0113218D01*
X0025681Y0113276D01*
X0025707Y0113334D01*
X0025737Y0113389D01*
X0025770Y0113443D01*
X0025806Y0113494D01*
X0025846Y0113543D01*
X0025888Y0113589D01*
X0025933Y0113633D01*
X0025981Y0113674D01*
X0026032Y0113712D01*
X0026084Y0113747D01*
X0026138Y0113778D01*
X0026195Y0113806D01*
X0026253Y0113831D01*
X0026312Y0113852D01*
X0026373Y0113869D01*
X0026434Y0113883D01*
X0026496Y0113892D01*
X0026559Y0113898D01*
X0026622Y0113900D01*
X0026622Y0119300D02*
X0027900Y0119300D01*
X0027900Y0123900D01*
X0026622Y0123900D01*
X0026559Y0123898D01*
X0026496Y0123892D01*
X0026434Y0123883D01*
X0026373Y0123869D01*
X0026312Y0123852D01*
X0026253Y0123831D01*
X0026195Y0123806D01*
X0026138Y0123778D01*
X0026084Y0123747D01*
X0026032Y0123712D01*
X0025981Y0123674D01*
X0025933Y0123633D01*
X0025888Y0123589D01*
X0025846Y0123543D01*
X0025806Y0123494D01*
X0025770Y0123443D01*
X0025737Y0123389D01*
X0025707Y0123334D01*
X0025681Y0123276D01*
X0025658Y0123218D01*
X0025639Y0123158D01*
X0025624Y0123097D01*
X0025612Y0123035D01*
X0025604Y0122972D01*
X0025600Y0122909D01*
X0025600Y0122847D01*
X0025604Y0122784D01*
X0025612Y0122721D01*
X0025624Y0122659D01*
X0025639Y0122598D01*
X0025658Y0122538D01*
X0025681Y0122480D01*
X0025707Y0122422D01*
X0025737Y0122367D01*
X0025770Y0122313D01*
X0025806Y0122262D01*
X0025846Y0122213D01*
X0025888Y0122167D01*
X0025933Y0122123D01*
X0025981Y0122082D01*
X0026032Y0122044D01*
X0026084Y0122009D01*
X0026138Y0121978D01*
X0026195Y0121950D01*
X0026253Y0121925D01*
X0026312Y0121904D01*
X0026373Y0121887D01*
X0026434Y0121873D01*
X0026496Y0121864D01*
X0026559Y0121858D01*
X0026622Y0121856D01*
X0027900Y0121856D01*
X0026622Y0121856D02*
X0026552Y0121854D01*
X0026481Y0121848D01*
X0026412Y0121839D01*
X0026343Y0121825D01*
X0026274Y0121808D01*
X0026207Y0121787D01*
X0026141Y0121762D01*
X0026077Y0121734D01*
X0026014Y0121702D01*
X0025953Y0121667D01*
X0025894Y0121628D01*
X0025837Y0121587D01*
X0025783Y0121542D01*
X0025731Y0121494D01*
X0025682Y0121444D01*
X0025635Y0121390D01*
X0025592Y0121335D01*
X0025552Y0121277D01*
X0025515Y0121217D01*
X0025482Y0121155D01*
X0025452Y0121091D01*
X0025425Y0121026D01*
X0025402Y0120960D01*
X0025383Y0120892D01*
X0025368Y0120823D01*
X0025356Y0120754D01*
X0025348Y0120684D01*
X0025344Y0120613D01*
X0025344Y0120543D01*
X0025348Y0120472D01*
X0025356Y0120402D01*
X0025368Y0120333D01*
X0025383Y0120264D01*
X0025402Y0120196D01*
X0025425Y0120130D01*
X0025452Y0120065D01*
X0025482Y0120001D01*
X0025515Y0119939D01*
X0025552Y0119879D01*
X0025592Y0119821D01*
X0025635Y0119766D01*
X0025682Y0119712D01*
X0025731Y0119662D01*
X0025783Y0119614D01*
X0025837Y0119569D01*
X0025894Y0119528D01*
X0025953Y0119489D01*
X0026014Y0119454D01*
X0026077Y0119422D01*
X0026141Y0119394D01*
X0026207Y0119369D01*
X0026274Y0119348D01*
X0026343Y0119331D01*
X0026412Y0119317D01*
X0026481Y0119308D01*
X0026552Y0119302D01*
X0026622Y0119300D01*
X0023617Y0119300D02*
X0021061Y0119300D01*
X0023617Y0119300D02*
X0021444Y0121856D01*
X0022211Y0123900D02*
X0022285Y0123898D01*
X0022359Y0123893D01*
X0022433Y0123883D01*
X0022506Y0123870D01*
X0022579Y0123854D01*
X0022650Y0123833D01*
X0022720Y0123809D01*
X0022789Y0123782D01*
X0022857Y0123751D01*
X0022923Y0123717D01*
X0022987Y0123680D01*
X0023049Y0123639D01*
X0023110Y0123595D01*
X0023167Y0123549D01*
X0023223Y0123499D01*
X0023276Y0123447D01*
X0023326Y0123392D01*
X0023373Y0123335D01*
X0023417Y0123275D01*
X0023459Y0123213D01*
X0023497Y0123150D01*
X0023532Y0123084D01*
X0023563Y0123017D01*
X0023591Y0122948D01*
X0023616Y0122878D01*
X0021444Y0121856D02*
X0021397Y0121903D01*
X0021353Y0121953D01*
X0021311Y0122005D01*
X0021272Y0122059D01*
X0021237Y0122115D01*
X0021204Y0122173D01*
X0021174Y0122233D01*
X0021148Y0122294D01*
X0021125Y0122357D01*
X0021106Y0122421D01*
X0021090Y0122485D01*
X0021077Y0122551D01*
X0021068Y0122617D01*
X0021063Y0122683D01*
X0021061Y0122750D01*
X0021063Y0122817D01*
X0021069Y0122884D01*
X0021078Y0122950D01*
X0021092Y0123015D01*
X0021109Y0123080D01*
X0021130Y0123143D01*
X0021155Y0123205D01*
X0021183Y0123266D01*
X0021215Y0123325D01*
X0021250Y0123382D01*
X0021289Y0123437D01*
X0021330Y0123489D01*
X0021375Y0123539D01*
X0021422Y0123586D01*
X0021472Y0123631D01*
X0021524Y0123672D01*
X0021579Y0123711D01*
X0021636Y0123746D01*
X0021695Y0123778D01*
X0021756Y0123806D01*
X0021818Y0123831D01*
X0021881Y0123852D01*
X0021946Y0123869D01*
X0022011Y0123883D01*
X0022077Y0123892D01*
X0022144Y0123898D01*
X0022211Y0123900D01*
X0021867Y0129300D02*
X0021867Y0133900D01*
X0023144Y0132878D01*
X0025217Y0130450D02*
X0027517Y0130450D01*
X0027900Y0129300D02*
X0026367Y0133900D01*
X0024833Y0129300D01*
X0023144Y0129300D02*
X0020589Y0129300D01*
X0024833Y0139300D02*
X0026367Y0143900D01*
X0027900Y0139300D01*
X0027517Y0140450D02*
X0025217Y0140450D01*
X0020972Y0139939D02*
X0020924Y0140043D01*
X0020878Y0140148D01*
X0020836Y0140254D01*
X0020797Y0140362D01*
X0020761Y0140471D01*
X0020729Y0140581D01*
X0020699Y0140692D01*
X0020674Y0140804D01*
X0020651Y0140916D01*
X0020632Y0141029D01*
X0020617Y0141143D01*
X0020605Y0141257D01*
X0020596Y0141371D01*
X0020591Y0141485D01*
X0020589Y0141600D01*
X0023145Y0141600D02*
X0023143Y0141715D01*
X0023138Y0141829D01*
X0023129Y0141943D01*
X0023117Y0142057D01*
X0023102Y0142171D01*
X0023083Y0142284D01*
X0023060Y0142396D01*
X0023035Y0142508D01*
X0023005Y0142619D01*
X0022973Y0142729D01*
X0022937Y0142838D01*
X0022898Y0142946D01*
X0022856Y0143052D01*
X0022810Y0143157D01*
X0022762Y0143261D01*
X0022741Y0143316D01*
X0022717Y0143369D01*
X0022690Y0143421D01*
X0022659Y0143471D01*
X0022626Y0143519D01*
X0022589Y0143565D01*
X0022550Y0143609D01*
X0022508Y0143650D01*
X0022464Y0143688D01*
X0022417Y0143724D01*
X0022368Y0143756D01*
X0022317Y0143786D01*
X0022265Y0143812D01*
X0022211Y0143835D01*
X0022156Y0143855D01*
X0022099Y0143871D01*
X0022042Y0143884D01*
X0021984Y0143893D01*
X0021926Y0143898D01*
X0021867Y0143900D01*
X0021808Y0143898D01*
X0021750Y0143893D01*
X0021692Y0143884D01*
X0021635Y0143871D01*
X0021578Y0143855D01*
X0021523Y0143835D01*
X0021469Y0143812D01*
X0021417Y0143786D01*
X0021366Y0143756D01*
X0021317Y0143724D01*
X0021270Y0143688D01*
X0021226Y0143650D01*
X0021184Y0143609D01*
X0021145Y0143565D01*
X0021108Y0143519D01*
X0021075Y0143471D01*
X0021044Y0143421D01*
X0021017Y0143369D01*
X0020993Y0143316D01*
X0020972Y0143261D01*
X0020844Y0142878D02*
X0022889Y0140322D01*
X0021867Y0139300D02*
X0021808Y0139302D01*
X0021750Y0139307D01*
X0021692Y0139316D01*
X0021635Y0139329D01*
X0021578Y0139345D01*
X0021523Y0139365D01*
X0021469Y0139388D01*
X0021417Y0139414D01*
X0021366Y0139444D01*
X0021317Y0139476D01*
X0021271Y0139512D01*
X0021226Y0139550D01*
X0021184Y0139591D01*
X0021145Y0139635D01*
X0021108Y0139681D01*
X0021075Y0139729D01*
X0021044Y0139779D01*
X0021017Y0139831D01*
X0020993Y0139884D01*
X0020972Y0139939D01*
X0021867Y0139300D02*
X0021926Y0139302D01*
X0021984Y0139307D01*
X0022042Y0139316D01*
X0022099Y0139329D01*
X0022156Y0139345D01*
X0022211Y0139365D01*
X0022265Y0139388D01*
X0022317Y0139414D01*
X0022368Y0139444D01*
X0022417Y0139476D01*
X0022464Y0139512D01*
X0022508Y0139550D01*
X0022550Y0139591D01*
X0022589Y0139635D01*
X0022626Y0139681D01*
X0022659Y0139729D01*
X0022690Y0139779D01*
X0022717Y0139831D01*
X0022741Y0139884D01*
X0022762Y0139939D01*
X0020589Y0141600D02*
X0020591Y0141715D01*
X0020596Y0141829D01*
X0020605Y0141943D01*
X0020617Y0142057D01*
X0020632Y0142171D01*
X0020651Y0142284D01*
X0020674Y0142396D01*
X0020699Y0142508D01*
X0020729Y0142619D01*
X0020761Y0142729D01*
X0020797Y0142838D01*
X0020836Y0142946D01*
X0020878Y0143052D01*
X0020924Y0143157D01*
X0020972Y0143261D01*
X0023145Y0141600D02*
X0023143Y0141485D01*
X0023138Y0141371D01*
X0023129Y0141257D01*
X0023117Y0141143D01*
X0023102Y0141029D01*
X0023083Y0140916D01*
X0023060Y0140804D01*
X0023035Y0140692D01*
X0023005Y0140581D01*
X0022973Y0140471D01*
X0022937Y0140362D01*
X0022898Y0140254D01*
X0022856Y0140148D01*
X0022810Y0140043D01*
X0022762Y0139939D01*
X0182561Y0140322D02*
X0182561Y0140833D01*
X0182561Y0140322D01*
X0182563Y0140260D01*
X0182568Y0140199D01*
X0182578Y0140138D01*
X0182591Y0140077D01*
X0182607Y0140018D01*
X0182627Y0139960D01*
X0182651Y0139903D01*
X0182678Y0139847D01*
X0182708Y0139793D01*
X0182742Y0139741D01*
X0182778Y0139692D01*
X0182818Y0139644D01*
X0182860Y0139599D01*
X0182905Y0139557D01*
X0182953Y0139517D01*
X0183002Y0139481D01*
X0183054Y0139447D01*
X0183108Y0139417D01*
X0183164Y0139390D01*
X0183221Y0139366D01*
X0183279Y0139346D01*
X0183338Y0139330D01*
X0183399Y0139317D01*
X0183460Y0139307D01*
X0183521Y0139302D01*
X0183583Y0139300D01*
X0185117Y0139300D01*
X0183583Y0139300D01*
X0183521Y0139302D01*
X0183460Y0139307D01*
X0183399Y0139317D01*
X0183338Y0139330D01*
X0183279Y0139346D01*
X0183221Y0139366D01*
X0183164Y0139390D01*
X0183108Y0139417D01*
X0183054Y0139447D01*
X0183002Y0139481D01*
X0182953Y0139517D01*
X0182905Y0139557D01*
X0182860Y0139599D01*
X0182818Y0139644D01*
X0182778Y0139692D01*
X0182742Y0139741D01*
X0182708Y0139793D01*
X0182678Y0139847D01*
X0182651Y0139903D01*
X0182627Y0139960D01*
X0182607Y0140018D01*
X0182591Y0140077D01*
X0182578Y0140138D01*
X0182568Y0140199D01*
X0182563Y0140260D01*
X0182561Y0140322D01*
X0182561Y0140833D02*
X0182563Y0140895D01*
X0182568Y0140956D01*
X0182578Y0141017D01*
X0182591Y0141078D01*
X0182607Y0141137D01*
X0182627Y0141195D01*
X0182651Y0141252D01*
X0182678Y0141308D01*
X0182708Y0141362D01*
X0182742Y0141414D01*
X0182778Y0141463D01*
X0182818Y0141511D01*
X0182860Y0141556D01*
X0182905Y0141598D01*
X0182953Y0141638D01*
X0183002Y0141674D01*
X0183054Y0141708D01*
X0183108Y0141738D01*
X0183164Y0141765D01*
X0183221Y0141789D01*
X0183279Y0141809D01*
X0183338Y0141825D01*
X0183399Y0141838D01*
X0183460Y0141848D01*
X0183521Y0141853D01*
X0183583Y0141855D01*
X0183583Y0141856D02*
X0185117Y0141856D01*
X0185117Y0143900D01*
X0182561Y0143900D01*
X0185117Y0143900D01*
X0185117Y0141856D01*
X0183583Y0141856D01*
X0183583Y0141855D02*
X0183521Y0141853D01*
X0183460Y0141848D01*
X0183399Y0141838D01*
X0183338Y0141825D01*
X0183279Y0141809D01*
X0183221Y0141789D01*
X0183164Y0141765D01*
X0183108Y0141738D01*
X0183054Y0141708D01*
X0183002Y0141674D01*
X0182953Y0141638D01*
X0182905Y0141598D01*
X0182860Y0141556D01*
X0182818Y0141511D01*
X0182778Y0141463D01*
X0182742Y0141414D01*
X0182708Y0141362D01*
X0182678Y0141308D01*
X0182651Y0141252D01*
X0182627Y0141195D01*
X0182607Y0141137D01*
X0182591Y0141078D01*
X0182578Y0141017D01*
X0182568Y0140956D01*
X0182563Y0140895D01*
X0182561Y0140833D01*
X0187061Y0139300D02*
X0189617Y0139300D01*
X0187061Y0139300D01*
X0188339Y0139300D02*
X0188339Y0143900D01*
X0189617Y0142878D01*
X0188339Y0143900D01*
X0188339Y0139300D01*
X0192622Y0139300D02*
X0193900Y0139300D01*
X0193900Y0143900D01*
X0192622Y0143900D01*
X0193900Y0143900D01*
X0193900Y0139300D01*
X0192622Y0139300D01*
X0192552Y0139302D01*
X0192481Y0139308D01*
X0192412Y0139317D01*
X0192343Y0139331D01*
X0192274Y0139348D01*
X0192207Y0139369D01*
X0192141Y0139394D01*
X0192077Y0139422D01*
X0192014Y0139454D01*
X0191953Y0139489D01*
X0191894Y0139528D01*
X0191837Y0139569D01*
X0191783Y0139614D01*
X0191731Y0139662D01*
X0191682Y0139712D01*
X0191635Y0139766D01*
X0191592Y0139821D01*
X0191552Y0139879D01*
X0191515Y0139939D01*
X0191482Y0140001D01*
X0191452Y0140065D01*
X0191425Y0140130D01*
X0191402Y0140196D01*
X0191383Y0140264D01*
X0191368Y0140333D01*
X0191356Y0140402D01*
X0191348Y0140472D01*
X0191344Y0140543D01*
X0191344Y0140613D01*
X0191348Y0140684D01*
X0191356Y0140754D01*
X0191368Y0140823D01*
X0191383Y0140892D01*
X0191402Y0140960D01*
X0191425Y0141026D01*
X0191452Y0141091D01*
X0191482Y0141155D01*
X0191515Y0141217D01*
X0191552Y0141277D01*
X0191592Y0141335D01*
X0191635Y0141390D01*
X0191682Y0141444D01*
X0191731Y0141494D01*
X0191783Y0141542D01*
X0191837Y0141587D01*
X0191894Y0141628D01*
X0191953Y0141667D01*
X0192014Y0141702D01*
X0192077Y0141734D01*
X0192141Y0141762D01*
X0192207Y0141787D01*
X0192274Y0141808D01*
X0192343Y0141825D01*
X0192412Y0141839D01*
X0192481Y0141848D01*
X0192552Y0141854D01*
X0192622Y0141856D01*
X0193900Y0141856D01*
X0192622Y0141856D01*
X0192559Y0141858D01*
X0192496Y0141864D01*
X0192434Y0141873D01*
X0192373Y0141887D01*
X0192312Y0141904D01*
X0192253Y0141925D01*
X0192195Y0141950D01*
X0192138Y0141978D01*
X0192084Y0142009D01*
X0192032Y0142044D01*
X0191981Y0142082D01*
X0191933Y0142123D01*
X0191888Y0142167D01*
X0191846Y0142213D01*
X0191806Y0142262D01*
X0191770Y0142313D01*
X0191737Y0142367D01*
X0191707Y0142422D01*
X0191681Y0142480D01*
X0191658Y0142538D01*
X0191639Y0142598D01*
X0191624Y0142659D01*
X0191612Y0142721D01*
X0191604Y0142784D01*
X0191600Y0142847D01*
X0191600Y0142909D01*
X0191604Y0142972D01*
X0191612Y0143035D01*
X0191624Y0143097D01*
X0191639Y0143158D01*
X0191658Y0143218D01*
X0191681Y0143276D01*
X0191707Y0143334D01*
X0191737Y0143389D01*
X0191770Y0143443D01*
X0191806Y0143494D01*
X0191846Y0143543D01*
X0191888Y0143589D01*
X0191933Y0143633D01*
X0191981Y0143674D01*
X0192032Y0143712D01*
X0192084Y0143747D01*
X0192138Y0143778D01*
X0192195Y0143806D01*
X0192253Y0143831D01*
X0192312Y0143852D01*
X0192373Y0143869D01*
X0192434Y0143883D01*
X0192496Y0143892D01*
X0192559Y0143898D01*
X0192622Y0143900D01*
X0192559Y0143898D01*
X0192496Y0143892D01*
X0192434Y0143883D01*
X0192373Y0143869D01*
X0192312Y0143852D01*
X0192253Y0143831D01*
X0192195Y0143806D01*
X0192138Y0143778D01*
X0192084Y0143747D01*
X0192032Y0143712D01*
X0191981Y0143674D01*
X0191933Y0143633D01*
X0191888Y0143589D01*
X0191846Y0143543D01*
X0191806Y0143494D01*
X0191770Y0143443D01*
X0191737Y0143389D01*
X0191707Y0143334D01*
X0191681Y0143276D01*
X0191658Y0143218D01*
X0191639Y0143158D01*
X0191624Y0143097D01*
X0191612Y0143035D01*
X0191604Y0142972D01*
X0191600Y0142909D01*
X0191600Y0142847D01*
X0191604Y0142784D01*
X0191612Y0142721D01*
X0191624Y0142659D01*
X0191639Y0142598D01*
X0191658Y0142538D01*
X0191681Y0142480D01*
X0191707Y0142422D01*
X0191737Y0142367D01*
X0191770Y0142313D01*
X0191806Y0142262D01*
X0191846Y0142213D01*
X0191888Y0142167D01*
X0191933Y0142123D01*
X0191981Y0142082D01*
X0192032Y0142044D01*
X0192084Y0142009D01*
X0192138Y0141978D01*
X0192195Y0141950D01*
X0192253Y0141925D01*
X0192312Y0141904D01*
X0192373Y0141887D01*
X0192434Y0141873D01*
X0192496Y0141864D01*
X0192559Y0141858D01*
X0192622Y0141856D01*
X0192552Y0141854D01*
X0192481Y0141848D01*
X0192412Y0141839D01*
X0192343Y0141825D01*
X0192274Y0141808D01*
X0192207Y0141787D01*
X0192141Y0141762D01*
X0192077Y0141734D01*
X0192014Y0141702D01*
X0191953Y0141667D01*
X0191894Y0141628D01*
X0191837Y0141587D01*
X0191783Y0141542D01*
X0191731Y0141494D01*
X0191682Y0141444D01*
X0191635Y0141390D01*
X0191592Y0141335D01*
X0191552Y0141277D01*
X0191515Y0141217D01*
X0191482Y0141155D01*
X0191452Y0141091D01*
X0191425Y0141026D01*
X0191402Y0140960D01*
X0191383Y0140892D01*
X0191368Y0140823D01*
X0191356Y0140754D01*
X0191348Y0140684D01*
X0191344Y0140613D01*
X0191344Y0140543D01*
X0191348Y0140472D01*
X0191356Y0140402D01*
X0191368Y0140333D01*
X0191383Y0140264D01*
X0191402Y0140196D01*
X0191425Y0140130D01*
X0191452Y0140065D01*
X0191482Y0140001D01*
X0191515Y0139939D01*
X0191552Y0139879D01*
X0191592Y0139821D01*
X0191635Y0139766D01*
X0191682Y0139712D01*
X0191731Y0139662D01*
X0191783Y0139614D01*
X0191837Y0139569D01*
X0191894Y0139528D01*
X0191953Y0139489D01*
X0192014Y0139454D01*
X0192077Y0139422D01*
X0192141Y0139394D01*
X0192207Y0139369D01*
X0192274Y0139348D01*
X0192343Y0139331D01*
X0192412Y0139317D01*
X0192481Y0139308D01*
X0192552Y0139302D01*
X0192622Y0139300D01*
X0192622Y0133900D02*
X0193900Y0133900D01*
X0193900Y0129300D01*
X0192622Y0129300D01*
X0192552Y0129302D01*
X0192481Y0129308D01*
X0192412Y0129317D01*
X0192343Y0129331D01*
X0192274Y0129348D01*
X0192207Y0129369D01*
X0192141Y0129394D01*
X0192077Y0129422D01*
X0192014Y0129454D01*
X0191953Y0129489D01*
X0191894Y0129528D01*
X0191837Y0129569D01*
X0191783Y0129614D01*
X0191731Y0129662D01*
X0191682Y0129712D01*
X0191635Y0129766D01*
X0191592Y0129821D01*
X0191552Y0129879D01*
X0191515Y0129939D01*
X0191482Y0130001D01*
X0191452Y0130065D01*
X0191425Y0130130D01*
X0191402Y0130196D01*
X0191383Y0130264D01*
X0191368Y0130333D01*
X0191356Y0130402D01*
X0191348Y0130472D01*
X0191344Y0130543D01*
X0191344Y0130613D01*
X0191348Y0130684D01*
X0191356Y0130754D01*
X0191368Y0130823D01*
X0191383Y0130892D01*
X0191402Y0130960D01*
X0191425Y0131026D01*
X0191452Y0131091D01*
X0191482Y0131155D01*
X0191515Y0131217D01*
X0191552Y0131277D01*
X0191592Y0131335D01*
X0191635Y0131390D01*
X0191682Y0131444D01*
X0191731Y0131494D01*
X0191783Y0131542D01*
X0191837Y0131587D01*
X0191894Y0131628D01*
X0191953Y0131667D01*
X0192014Y0131702D01*
X0192077Y0131734D01*
X0192141Y0131762D01*
X0192207Y0131787D01*
X0192274Y0131808D01*
X0192343Y0131825D01*
X0192412Y0131839D01*
X0192481Y0131848D01*
X0192552Y0131854D01*
X0192622Y0131856D01*
X0193900Y0131856D01*
X0192622Y0131856D02*
X0192559Y0131858D01*
X0192496Y0131864D01*
X0192434Y0131873D01*
X0192373Y0131887D01*
X0192312Y0131904D01*
X0192253Y0131925D01*
X0192195Y0131950D01*
X0192138Y0131978D01*
X0192084Y0132009D01*
X0192032Y0132044D01*
X0191981Y0132082D01*
X0191933Y0132123D01*
X0191888Y0132167D01*
X0191846Y0132213D01*
X0191806Y0132262D01*
X0191770Y0132313D01*
X0191737Y0132367D01*
X0191707Y0132422D01*
X0191681Y0132480D01*
X0191658Y0132538D01*
X0191639Y0132598D01*
X0191624Y0132659D01*
X0191612Y0132721D01*
X0191604Y0132784D01*
X0191600Y0132847D01*
X0191600Y0132909D01*
X0191604Y0132972D01*
X0191612Y0133035D01*
X0191624Y0133097D01*
X0191639Y0133158D01*
X0191658Y0133218D01*
X0191681Y0133276D01*
X0191707Y0133334D01*
X0191737Y0133389D01*
X0191770Y0133443D01*
X0191806Y0133494D01*
X0191846Y0133543D01*
X0191888Y0133589D01*
X0191933Y0133633D01*
X0191981Y0133674D01*
X0192032Y0133712D01*
X0192084Y0133747D01*
X0192138Y0133778D01*
X0192195Y0133806D01*
X0192253Y0133831D01*
X0192312Y0133852D01*
X0192373Y0133869D01*
X0192434Y0133883D01*
X0192496Y0133892D01*
X0192559Y0133898D01*
X0192622Y0133900D01*
X0189617Y0132878D02*
X0188339Y0133900D01*
X0188339Y0129300D01*
X0189617Y0129300D02*
X0187061Y0129300D01*
X0185117Y0130322D02*
X0182561Y0130322D01*
X0183328Y0131344D02*
X0183328Y0129300D01*
X0185117Y0130322D02*
X0184094Y0133900D01*
X0183583Y0123900D02*
X0185117Y0123900D01*
X0183583Y0123900D02*
X0183520Y0123898D01*
X0183457Y0123892D01*
X0183395Y0123883D01*
X0183334Y0123869D01*
X0183273Y0123852D01*
X0183214Y0123831D01*
X0183156Y0123806D01*
X0183099Y0123778D01*
X0183045Y0123747D01*
X0182993Y0123712D01*
X0182942Y0123674D01*
X0182894Y0123633D01*
X0182849Y0123589D01*
X0182807Y0123543D01*
X0182767Y0123494D01*
X0182731Y0123443D01*
X0182698Y0123389D01*
X0182668Y0123334D01*
X0182642Y0123276D01*
X0182619Y0123218D01*
X0182600Y0123158D01*
X0182585Y0123097D01*
X0182573Y0123035D01*
X0182565Y0122972D01*
X0182561Y0122909D01*
X0182561Y0122847D01*
X0182565Y0122784D01*
X0182573Y0122721D01*
X0182585Y0122659D01*
X0182600Y0122598D01*
X0182619Y0122538D01*
X0182642Y0122480D01*
X0182668Y0122422D01*
X0182698Y0122367D01*
X0182731Y0122313D01*
X0182767Y0122262D01*
X0182807Y0122213D01*
X0182849Y0122167D01*
X0182894Y0122123D01*
X0182942Y0122082D01*
X0182993Y0122044D01*
X0183045Y0122009D01*
X0183099Y0121978D01*
X0183156Y0121950D01*
X0183214Y0121925D01*
X0183273Y0121904D01*
X0183334Y0121887D01*
X0183395Y0121873D01*
X0183457Y0121864D01*
X0183520Y0121858D01*
X0183583Y0121856D01*
X0184606Y0121856D01*
X0183839Y0121856D02*
X0183769Y0121854D01*
X0183698Y0121848D01*
X0183629Y0121839D01*
X0183560Y0121825D01*
X0183491Y0121808D01*
X0183424Y0121787D01*
X0183358Y0121762D01*
X0183294Y0121734D01*
X0183231Y0121702D01*
X0183170Y0121667D01*
X0183111Y0121628D01*
X0183054Y0121587D01*
X0183000Y0121542D01*
X0182948Y0121494D01*
X0182899Y0121444D01*
X0182852Y0121390D01*
X0182809Y0121335D01*
X0182769Y0121277D01*
X0182732Y0121217D01*
X0182699Y0121155D01*
X0182669Y0121091D01*
X0182642Y0121026D01*
X0182619Y0120960D01*
X0182600Y0120892D01*
X0182585Y0120823D01*
X0182573Y0120754D01*
X0182565Y0120684D01*
X0182561Y0120613D01*
X0182561Y0120543D01*
X0182565Y0120472D01*
X0182573Y0120402D01*
X0182585Y0120333D01*
X0182600Y0120264D01*
X0182619Y0120196D01*
X0182642Y0120130D01*
X0182669Y0120065D01*
X0182699Y0120001D01*
X0182732Y0119939D01*
X0182769Y0119879D01*
X0182809Y0119821D01*
X0182852Y0119766D01*
X0182899Y0119712D01*
X0182948Y0119662D01*
X0183000Y0119614D01*
X0183054Y0119569D01*
X0183111Y0119528D01*
X0183170Y0119489D01*
X0183231Y0119454D01*
X0183294Y0119422D01*
X0183358Y0119394D01*
X0183424Y0119369D01*
X0183491Y0119348D01*
X0183560Y0119331D01*
X0183629Y0119317D01*
X0183698Y0119308D01*
X0183769Y0119302D01*
X0183839Y0119300D01*
X0185117Y0119300D01*
X0187061Y0119300D02*
X0189617Y0119300D01*
X0188339Y0119300D02*
X0188339Y0123900D01*
X0189617Y0122878D01*
X0192622Y0123900D02*
X0192559Y0123898D01*
X0192496Y0123892D01*
X0192434Y0123883D01*
X0192373Y0123869D01*
X0192312Y0123852D01*
X0192253Y0123831D01*
X0192195Y0123806D01*
X0192138Y0123778D01*
X0192084Y0123747D01*
X0192032Y0123712D01*
X0191981Y0123674D01*
X0191933Y0123633D01*
X0191888Y0123589D01*
X0191846Y0123543D01*
X0191806Y0123494D01*
X0191770Y0123443D01*
X0191737Y0123389D01*
X0191707Y0123334D01*
X0191681Y0123276D01*
X0191658Y0123218D01*
X0191639Y0123158D01*
X0191624Y0123097D01*
X0191612Y0123035D01*
X0191604Y0122972D01*
X0191600Y0122909D01*
X0191600Y0122847D01*
X0191604Y0122784D01*
X0191612Y0122721D01*
X0191624Y0122659D01*
X0191639Y0122598D01*
X0191658Y0122538D01*
X0191681Y0122480D01*
X0191707Y0122422D01*
X0191737Y0122367D01*
X0191770Y0122313D01*
X0191806Y0122262D01*
X0191846Y0122213D01*
X0191888Y0122167D01*
X0191933Y0122123D01*
X0191981Y0122082D01*
X0192032Y0122044D01*
X0192084Y0122009D01*
X0192138Y0121978D01*
X0192195Y0121950D01*
X0192253Y0121925D01*
X0192312Y0121904D01*
X0192373Y0121887D01*
X0192434Y0121873D01*
X0192496Y0121864D01*
X0192559Y0121858D01*
X0192622Y0121856D01*
X0193900Y0121856D01*
X0192622Y0121856D02*
X0192552Y0121854D01*
X0192481Y0121848D01*
X0192412Y0121839D01*
X0192343Y0121825D01*
X0192274Y0121808D01*
X0192207Y0121787D01*
X0192141Y0121762D01*
X0192077Y0121734D01*
X0192014Y0121702D01*
X0191953Y0121667D01*
X0191894Y0121628D01*
X0191837Y0121587D01*
X0191783Y0121542D01*
X0191731Y0121494D01*
X0191682Y0121444D01*
X0191635Y0121390D01*
X0191592Y0121335D01*
X0191552Y0121277D01*
X0191515Y0121217D01*
X0191482Y0121155D01*
X0191452Y0121091D01*
X0191425Y0121026D01*
X0191402Y0120960D01*
X0191383Y0120892D01*
X0191368Y0120823D01*
X0191356Y0120754D01*
X0191348Y0120684D01*
X0191344Y0120613D01*
X0191344Y0120543D01*
X0191348Y0120472D01*
X0191356Y0120402D01*
X0191368Y0120333D01*
X0191383Y0120264D01*
X0191402Y0120196D01*
X0191425Y0120130D01*
X0191452Y0120065D01*
X0191482Y0120001D01*
X0191515Y0119939D01*
X0191552Y0119879D01*
X0191592Y0119821D01*
X0191635Y0119766D01*
X0191682Y0119712D01*
X0191731Y0119662D01*
X0191783Y0119614D01*
X0191837Y0119569D01*
X0191894Y0119528D01*
X0191953Y0119489D01*
X0192014Y0119454D01*
X0192077Y0119422D01*
X0192141Y0119394D01*
X0192207Y0119369D01*
X0192274Y0119348D01*
X0192343Y0119331D01*
X0192412Y0119317D01*
X0192481Y0119308D01*
X0192552Y0119302D01*
X0192622Y0119300D01*
X0193900Y0119300D01*
X0193900Y0123900D01*
X0192622Y0123900D01*
X0192622Y0113900D02*
X0193900Y0113900D01*
X0193900Y0109300D01*
X0192622Y0109300D01*
X0192552Y0109302D01*
X0192481Y0109308D01*
X0192412Y0109317D01*
X0192343Y0109331D01*
X0192274Y0109348D01*
X0192207Y0109369D01*
X0192141Y0109394D01*
X0192077Y0109422D01*
X0192014Y0109454D01*
X0191953Y0109489D01*
X0191894Y0109528D01*
X0191837Y0109569D01*
X0191783Y0109614D01*
X0191731Y0109662D01*
X0191682Y0109712D01*
X0191635Y0109766D01*
X0191592Y0109821D01*
X0191552Y0109879D01*
X0191515Y0109939D01*
X0191482Y0110001D01*
X0191452Y0110065D01*
X0191425Y0110130D01*
X0191402Y0110196D01*
X0191383Y0110264D01*
X0191368Y0110333D01*
X0191356Y0110402D01*
X0191348Y0110472D01*
X0191344Y0110543D01*
X0191344Y0110613D01*
X0191348Y0110684D01*
X0191356Y0110754D01*
X0191368Y0110823D01*
X0191383Y0110892D01*
X0191402Y0110960D01*
X0191425Y0111026D01*
X0191452Y0111091D01*
X0191482Y0111155D01*
X0191515Y0111217D01*
X0191552Y0111277D01*
X0191592Y0111335D01*
X0191635Y0111390D01*
X0191682Y0111444D01*
X0191731Y0111494D01*
X0191783Y0111542D01*
X0191837Y0111587D01*
X0191894Y0111628D01*
X0191953Y0111667D01*
X0192014Y0111702D01*
X0192077Y0111734D01*
X0192141Y0111762D01*
X0192207Y0111787D01*
X0192274Y0111808D01*
X0192343Y0111825D01*
X0192412Y0111839D01*
X0192481Y0111848D01*
X0192552Y0111854D01*
X0192622Y0111856D01*
X0193900Y0111856D01*
X0192622Y0111856D02*
X0192559Y0111858D01*
X0192496Y0111864D01*
X0192434Y0111873D01*
X0192373Y0111887D01*
X0192312Y0111904D01*
X0192253Y0111925D01*
X0192195Y0111950D01*
X0192138Y0111978D01*
X0192084Y0112009D01*
X0192032Y0112044D01*
X0191981Y0112082D01*
X0191933Y0112123D01*
X0191888Y0112167D01*
X0191846Y0112213D01*
X0191806Y0112262D01*
X0191770Y0112313D01*
X0191737Y0112367D01*
X0191707Y0112422D01*
X0191681Y0112480D01*
X0191658Y0112538D01*
X0191639Y0112598D01*
X0191624Y0112659D01*
X0191612Y0112721D01*
X0191604Y0112784D01*
X0191600Y0112847D01*
X0191600Y0112909D01*
X0191604Y0112972D01*
X0191612Y0113035D01*
X0191624Y0113097D01*
X0191639Y0113158D01*
X0191658Y0113218D01*
X0191681Y0113276D01*
X0191707Y0113334D01*
X0191737Y0113389D01*
X0191770Y0113443D01*
X0191806Y0113494D01*
X0191846Y0113543D01*
X0191888Y0113589D01*
X0191933Y0113633D01*
X0191981Y0113674D01*
X0192032Y0113712D01*
X0192084Y0113747D01*
X0192138Y0113778D01*
X0192195Y0113806D01*
X0192253Y0113831D01*
X0192312Y0113852D01*
X0192373Y0113869D01*
X0192434Y0113883D01*
X0192496Y0113892D01*
X0192559Y0113898D01*
X0192622Y0113900D01*
X0189617Y0112622D02*
X0189617Y0112367D01*
X0189616Y0112367D02*
X0189614Y0112305D01*
X0189609Y0112244D01*
X0189599Y0112183D01*
X0189586Y0112122D01*
X0189570Y0112063D01*
X0189550Y0112005D01*
X0189526Y0111948D01*
X0189499Y0111892D01*
X0189469Y0111838D01*
X0189435Y0111786D01*
X0189399Y0111737D01*
X0189359Y0111689D01*
X0189317Y0111644D01*
X0189272Y0111602D01*
X0189224Y0111562D01*
X0189175Y0111526D01*
X0189123Y0111492D01*
X0189069Y0111462D01*
X0189013Y0111435D01*
X0188956Y0111411D01*
X0188898Y0111391D01*
X0188839Y0111375D01*
X0188778Y0111362D01*
X0188717Y0111352D01*
X0188656Y0111347D01*
X0188594Y0111345D01*
X0188594Y0111344D02*
X0187061Y0111344D01*
X0187061Y0112622D01*
X0187063Y0112692D01*
X0187069Y0112763D01*
X0187078Y0112832D01*
X0187092Y0112901D01*
X0187109Y0112970D01*
X0187130Y0113037D01*
X0187155Y0113103D01*
X0187183Y0113167D01*
X0187215Y0113230D01*
X0187250Y0113291D01*
X0187289Y0113350D01*
X0187330Y0113407D01*
X0187375Y0113461D01*
X0187423Y0113513D01*
X0187473Y0113562D01*
X0187527Y0113609D01*
X0187582Y0113652D01*
X0187640Y0113692D01*
X0187700Y0113729D01*
X0187762Y0113762D01*
X0187826Y0113792D01*
X0187891Y0113819D01*
X0187957Y0113842D01*
X0188025Y0113861D01*
X0188094Y0113876D01*
X0188163Y0113888D01*
X0188233Y0113896D01*
X0188304Y0113900D01*
X0188374Y0113900D01*
X0188445Y0113896D01*
X0188515Y0113888D01*
X0188584Y0113876D01*
X0188653Y0113861D01*
X0188721Y0113842D01*
X0188787Y0113819D01*
X0188852Y0113792D01*
X0188916Y0113762D01*
X0188978Y0113729D01*
X0189038Y0113692D01*
X0189096Y0113652D01*
X0189151Y0113609D01*
X0189205Y0113562D01*
X0189255Y0113513D01*
X0189303Y0113461D01*
X0189348Y0113407D01*
X0189389Y0113350D01*
X0189428Y0113291D01*
X0189463Y0113230D01*
X0189495Y0113167D01*
X0189523Y0113103D01*
X0189548Y0113037D01*
X0189569Y0112970D01*
X0189586Y0112901D01*
X0189600Y0112832D01*
X0189609Y0112763D01*
X0189615Y0112692D01*
X0189617Y0112622D01*
X0187062Y0111344D02*
X0187064Y0111255D01*
X0187070Y0111166D01*
X0187079Y0111077D01*
X0187093Y0110989D01*
X0187110Y0110902D01*
X0187132Y0110815D01*
X0187157Y0110729D01*
X0187185Y0110645D01*
X0187218Y0110562D01*
X0187254Y0110480D01*
X0187293Y0110400D01*
X0187336Y0110322D01*
X0187382Y0110246D01*
X0187432Y0110172D01*
X0187484Y0110100D01*
X0187540Y0110030D01*
X0187599Y0109963D01*
X0187661Y0109899D01*
X0187725Y0109837D01*
X0187792Y0109778D01*
X0187862Y0109722D01*
X0187934Y0109670D01*
X0188008Y0109620D01*
X0188084Y0109574D01*
X0188162Y0109531D01*
X0188242Y0109492D01*
X0188324Y0109456D01*
X0188407Y0109423D01*
X0188491Y0109395D01*
X0188577Y0109370D01*
X0188664Y0109348D01*
X0188751Y0109331D01*
X0188839Y0109317D01*
X0188928Y0109308D01*
X0189017Y0109302D01*
X0189106Y0109300D01*
X0192622Y0103900D02*
X0193900Y0103900D01*
X0193900Y0099300D01*
X0192622Y0099300D01*
X0192552Y0099302D01*
X0192481Y0099308D01*
X0192412Y0099317D01*
X0192343Y0099331D01*
X0192274Y0099348D01*
X0192207Y0099369D01*
X0192141Y0099394D01*
X0192077Y0099422D01*
X0192014Y0099454D01*
X0191953Y0099489D01*
X0191894Y0099528D01*
X0191837Y0099569D01*
X0191783Y0099614D01*
X0191731Y0099662D01*
X0191682Y0099712D01*
X0191635Y0099766D01*
X0191592Y0099821D01*
X0191552Y0099879D01*
X0191515Y0099939D01*
X0191482Y0100001D01*
X0191452Y0100065D01*
X0191425Y0100130D01*
X0191402Y0100196D01*
X0191383Y0100264D01*
X0191368Y0100333D01*
X0191356Y0100402D01*
X0191348Y0100472D01*
X0191344Y0100543D01*
X0191344Y0100613D01*
X0191348Y0100684D01*
X0191356Y0100754D01*
X0191368Y0100823D01*
X0191383Y0100892D01*
X0191402Y0100960D01*
X0191425Y0101026D01*
X0191452Y0101091D01*
X0191482Y0101155D01*
X0191515Y0101217D01*
X0191552Y0101277D01*
X0191592Y0101335D01*
X0191635Y0101390D01*
X0191682Y0101444D01*
X0191731Y0101494D01*
X0191783Y0101542D01*
X0191837Y0101587D01*
X0191894Y0101628D01*
X0191953Y0101667D01*
X0192014Y0101702D01*
X0192077Y0101734D01*
X0192141Y0101762D01*
X0192207Y0101787D01*
X0192274Y0101808D01*
X0192343Y0101825D01*
X0192412Y0101839D01*
X0192481Y0101848D01*
X0192552Y0101854D01*
X0192622Y0101856D01*
X0193900Y0101856D01*
X0192622Y0101856D02*
X0192559Y0101858D01*
X0192496Y0101864D01*
X0192434Y0101873D01*
X0192373Y0101887D01*
X0192312Y0101904D01*
X0192253Y0101925D01*
X0192195Y0101950D01*
X0192138Y0101978D01*
X0192084Y0102009D01*
X0192032Y0102044D01*
X0191981Y0102082D01*
X0191933Y0102123D01*
X0191888Y0102167D01*
X0191846Y0102213D01*
X0191806Y0102262D01*
X0191770Y0102313D01*
X0191737Y0102367D01*
X0191707Y0102422D01*
X0191681Y0102480D01*
X0191658Y0102538D01*
X0191639Y0102598D01*
X0191624Y0102659D01*
X0191612Y0102721D01*
X0191604Y0102784D01*
X0191600Y0102847D01*
X0191600Y0102909D01*
X0191604Y0102972D01*
X0191612Y0103035D01*
X0191624Y0103097D01*
X0191639Y0103158D01*
X0191658Y0103218D01*
X0191681Y0103276D01*
X0191707Y0103334D01*
X0191737Y0103389D01*
X0191770Y0103443D01*
X0191806Y0103494D01*
X0191846Y0103543D01*
X0191888Y0103589D01*
X0191933Y0103633D01*
X0191981Y0103674D01*
X0192032Y0103712D01*
X0192084Y0103747D01*
X0192138Y0103778D01*
X0192195Y0103806D01*
X0192253Y0103831D01*
X0192312Y0103852D01*
X0192373Y0103869D01*
X0192434Y0103883D01*
X0192496Y0103892D01*
X0192559Y0103898D01*
X0192622Y0103900D01*
X0189361Y0102878D02*
X0189359Y0102815D01*
X0189353Y0102752D01*
X0189344Y0102690D01*
X0189330Y0102629D01*
X0189313Y0102568D01*
X0189292Y0102509D01*
X0189267Y0102451D01*
X0189239Y0102394D01*
X0189208Y0102340D01*
X0189173Y0102288D01*
X0189135Y0102237D01*
X0189094Y0102189D01*
X0189050Y0102144D01*
X0189004Y0102102D01*
X0188955Y0102062D01*
X0188904Y0102026D01*
X0188850Y0101993D01*
X0188795Y0101963D01*
X0188737Y0101937D01*
X0188679Y0101914D01*
X0188619Y0101895D01*
X0188558Y0101880D01*
X0188496Y0101868D01*
X0188433Y0101860D01*
X0188370Y0101856D01*
X0188308Y0101856D01*
X0188245Y0101860D01*
X0188182Y0101868D01*
X0188120Y0101880D01*
X0188059Y0101895D01*
X0187999Y0101914D01*
X0187941Y0101937D01*
X0187883Y0101963D01*
X0187828Y0101993D01*
X0187774Y0102026D01*
X0187723Y0102062D01*
X0187674Y0102102D01*
X0187628Y0102144D01*
X0187584Y0102189D01*
X0187543Y0102237D01*
X0187505Y0102288D01*
X0187470Y0102340D01*
X0187439Y0102394D01*
X0187411Y0102451D01*
X0187386Y0102509D01*
X0187365Y0102568D01*
X0187348Y0102629D01*
X0187334Y0102690D01*
X0187325Y0102752D01*
X0187319Y0102815D01*
X0187317Y0102878D01*
X0187319Y0102941D01*
X0187325Y0103004D01*
X0187334Y0103066D01*
X0187348Y0103127D01*
X0187365Y0103188D01*
X0187386Y0103247D01*
X0187411Y0103305D01*
X0187439Y0103362D01*
X0187470Y0103416D01*
X0187505Y0103468D01*
X0187543Y0103519D01*
X0187584Y0103567D01*
X0187628Y0103612D01*
X0187674Y0103654D01*
X0187723Y0103694D01*
X0187774Y0103730D01*
X0187828Y0103763D01*
X0187883Y0103793D01*
X0187941Y0103819D01*
X0187999Y0103842D01*
X0188059Y0103861D01*
X0188120Y0103876D01*
X0188182Y0103888D01*
X0188245Y0103896D01*
X0188308Y0103900D01*
X0188370Y0103900D01*
X0188433Y0103896D01*
X0188496Y0103888D01*
X0188558Y0103876D01*
X0188619Y0103861D01*
X0188679Y0103842D01*
X0188737Y0103819D01*
X0188795Y0103793D01*
X0188850Y0103763D01*
X0188904Y0103730D01*
X0188955Y0103694D01*
X0189004Y0103654D01*
X0189050Y0103612D01*
X0189094Y0103567D01*
X0189135Y0103519D01*
X0189173Y0103468D01*
X0189208Y0103416D01*
X0189239Y0103362D01*
X0189267Y0103305D01*
X0189292Y0103247D01*
X0189313Y0103188D01*
X0189330Y0103127D01*
X0189344Y0103066D01*
X0189353Y0103004D01*
X0189359Y0102941D01*
X0189361Y0102878D01*
X0189617Y0100578D02*
X0189615Y0100508D01*
X0189609Y0100437D01*
X0189600Y0100368D01*
X0189586Y0100299D01*
X0189569Y0100230D01*
X0189548Y0100163D01*
X0189523Y0100097D01*
X0189495Y0100033D01*
X0189463Y0099970D01*
X0189428Y0099909D01*
X0189389Y0099850D01*
X0189348Y0099793D01*
X0189303Y0099739D01*
X0189255Y0099687D01*
X0189205Y0099638D01*
X0189151Y0099591D01*
X0189096Y0099548D01*
X0189038Y0099508D01*
X0188978Y0099471D01*
X0188916Y0099438D01*
X0188852Y0099408D01*
X0188787Y0099381D01*
X0188721Y0099358D01*
X0188653Y0099339D01*
X0188584Y0099324D01*
X0188515Y0099312D01*
X0188445Y0099304D01*
X0188374Y0099300D01*
X0188304Y0099300D01*
X0188233Y0099304D01*
X0188163Y0099312D01*
X0188094Y0099324D01*
X0188025Y0099339D01*
X0187957Y0099358D01*
X0187891Y0099381D01*
X0187826Y0099408D01*
X0187762Y0099438D01*
X0187700Y0099471D01*
X0187640Y0099508D01*
X0187582Y0099548D01*
X0187527Y0099591D01*
X0187473Y0099638D01*
X0187423Y0099687D01*
X0187375Y0099739D01*
X0187330Y0099793D01*
X0187289Y0099850D01*
X0187250Y0099909D01*
X0187215Y0099970D01*
X0187183Y0100033D01*
X0187155Y0100097D01*
X0187130Y0100163D01*
X0187109Y0100230D01*
X0187092Y0100299D01*
X0187078Y0100368D01*
X0187069Y0100437D01*
X0187063Y0100508D01*
X0187061Y0100578D01*
X0187063Y0100648D01*
X0187069Y0100719D01*
X0187078Y0100788D01*
X0187092Y0100857D01*
X0187109Y0100926D01*
X0187130Y0100993D01*
X0187155Y0101059D01*
X0187183Y0101123D01*
X0187215Y0101186D01*
X0187250Y0101247D01*
X0187289Y0101306D01*
X0187330Y0101363D01*
X0187375Y0101417D01*
X0187423Y0101469D01*
X0187473Y0101518D01*
X0187527Y0101565D01*
X0187582Y0101608D01*
X0187640Y0101648D01*
X0187700Y0101685D01*
X0187762Y0101718D01*
X0187826Y0101748D01*
X0187891Y0101775D01*
X0187957Y0101798D01*
X0188025Y0101817D01*
X0188094Y0101832D01*
X0188163Y0101844D01*
X0188233Y0101852D01*
X0188304Y0101856D01*
X0188374Y0101856D01*
X0188445Y0101852D01*
X0188515Y0101844D01*
X0188584Y0101832D01*
X0188653Y0101817D01*
X0188721Y0101798D01*
X0188787Y0101775D01*
X0188852Y0101748D01*
X0188916Y0101718D01*
X0188978Y0101685D01*
X0189038Y0101648D01*
X0189096Y0101608D01*
X0189151Y0101565D01*
X0189205Y0101518D01*
X0189255Y0101469D01*
X0189303Y0101417D01*
X0189348Y0101363D01*
X0189389Y0101306D01*
X0189428Y0101247D01*
X0189463Y0101186D01*
X0189495Y0101123D01*
X0189523Y0101059D01*
X0189548Y0100993D01*
X0189569Y0100926D01*
X0189586Y0100857D01*
X0189600Y0100788D01*
X0189609Y0100719D01*
X0189615Y0100648D01*
X0189617Y0100578D01*
X0189617Y0093900D02*
X0187061Y0093900D01*
X0188339Y0089300D01*
X0192622Y0089300D02*
X0193900Y0089300D01*
X0193900Y0093900D01*
X0192622Y0093900D01*
X0192559Y0093898D01*
X0192496Y0093892D01*
X0192434Y0093883D01*
X0192373Y0093869D01*
X0192312Y0093852D01*
X0192253Y0093831D01*
X0192195Y0093806D01*
X0192138Y0093778D01*
X0192084Y0093747D01*
X0192032Y0093712D01*
X0191981Y0093674D01*
X0191933Y0093633D01*
X0191888Y0093589D01*
X0191846Y0093543D01*
X0191806Y0093494D01*
X0191770Y0093443D01*
X0191737Y0093389D01*
X0191707Y0093334D01*
X0191681Y0093276D01*
X0191658Y0093218D01*
X0191639Y0093158D01*
X0191624Y0093097D01*
X0191612Y0093035D01*
X0191604Y0092972D01*
X0191600Y0092909D01*
X0191600Y0092847D01*
X0191604Y0092784D01*
X0191612Y0092721D01*
X0191624Y0092659D01*
X0191639Y0092598D01*
X0191658Y0092538D01*
X0191681Y0092480D01*
X0191707Y0092422D01*
X0191737Y0092367D01*
X0191770Y0092313D01*
X0191806Y0092262D01*
X0191846Y0092213D01*
X0191888Y0092167D01*
X0191933Y0092123D01*
X0191981Y0092082D01*
X0192032Y0092044D01*
X0192084Y0092009D01*
X0192138Y0091978D01*
X0192195Y0091950D01*
X0192253Y0091925D01*
X0192312Y0091904D01*
X0192373Y0091887D01*
X0192434Y0091873D01*
X0192496Y0091864D01*
X0192559Y0091858D01*
X0192622Y0091856D01*
X0193900Y0091856D01*
X0192622Y0091856D02*
X0192552Y0091854D01*
X0192481Y0091848D01*
X0192412Y0091839D01*
X0192343Y0091825D01*
X0192274Y0091808D01*
X0192207Y0091787D01*
X0192141Y0091762D01*
X0192077Y0091734D01*
X0192014Y0091702D01*
X0191953Y0091667D01*
X0191894Y0091628D01*
X0191837Y0091587D01*
X0191783Y0091542D01*
X0191731Y0091494D01*
X0191682Y0091444D01*
X0191635Y0091390D01*
X0191592Y0091335D01*
X0191552Y0091277D01*
X0191515Y0091217D01*
X0191482Y0091155D01*
X0191452Y0091091D01*
X0191425Y0091026D01*
X0191402Y0090960D01*
X0191383Y0090892D01*
X0191368Y0090823D01*
X0191356Y0090754D01*
X0191348Y0090684D01*
X0191344Y0090613D01*
X0191344Y0090543D01*
X0191348Y0090472D01*
X0191356Y0090402D01*
X0191368Y0090333D01*
X0191383Y0090264D01*
X0191402Y0090196D01*
X0191425Y0090130D01*
X0191452Y0090065D01*
X0191482Y0090001D01*
X0191515Y0089939D01*
X0191552Y0089879D01*
X0191592Y0089821D01*
X0191635Y0089766D01*
X0191682Y0089712D01*
X0191731Y0089662D01*
X0191783Y0089614D01*
X0191837Y0089569D01*
X0191894Y0089528D01*
X0191953Y0089489D01*
X0192014Y0089454D01*
X0192077Y0089422D01*
X0192141Y0089394D01*
X0192207Y0089369D01*
X0192274Y0089348D01*
X0192343Y0089331D01*
X0192412Y0089317D01*
X0192481Y0089308D01*
X0192552Y0089302D01*
X0192622Y0089300D01*
X0189617Y0093389D02*
X0189617Y0093900D01*
X0190706Y0083900D02*
X0188150Y0083900D01*
X0186461Y0083900D02*
X0184928Y0079300D01*
X0183394Y0083900D01*
X0188150Y0080833D02*
X0188150Y0080322D01*
X0188152Y0080260D01*
X0188157Y0080199D01*
X0188167Y0080138D01*
X0188180Y0080077D01*
X0188196Y0080018D01*
X0188216Y0079960D01*
X0188240Y0079903D01*
X0188267Y0079847D01*
X0188297Y0079793D01*
X0188331Y0079741D01*
X0188367Y0079692D01*
X0188407Y0079644D01*
X0188449Y0079599D01*
X0188494Y0079557D01*
X0188542Y0079517D01*
X0188591Y0079481D01*
X0188643Y0079447D01*
X0188697Y0079417D01*
X0188753Y0079390D01*
X0188810Y0079366D01*
X0188868Y0079346D01*
X0188927Y0079330D01*
X0188988Y0079317D01*
X0189049Y0079307D01*
X0189110Y0079302D01*
X0189172Y0079300D01*
X0190706Y0079300D01*
X0189172Y0081855D02*
X0189110Y0081853D01*
X0189049Y0081848D01*
X0188988Y0081838D01*
X0188927Y0081825D01*
X0188868Y0081809D01*
X0188810Y0081789D01*
X0188753Y0081765D01*
X0188697Y0081738D01*
X0188643Y0081708D01*
X0188591Y0081674D01*
X0188542Y0081638D01*
X0188494Y0081598D01*
X0188449Y0081556D01*
X0188407Y0081511D01*
X0188367Y0081463D01*
X0188331Y0081414D01*
X0188297Y0081362D01*
X0188267Y0081308D01*
X0188240Y0081252D01*
X0188216Y0081195D01*
X0188196Y0081137D01*
X0188180Y0081078D01*
X0188167Y0081017D01*
X0188157Y0080956D01*
X0188152Y0080895D01*
X0188150Y0080833D01*
X0189172Y0081856D02*
X0190706Y0081856D01*
X0190706Y0083900D01*
X0191344Y0073900D02*
X0192878Y0073900D01*
X0192940Y0073898D01*
X0193001Y0073893D01*
X0193062Y0073883D01*
X0193123Y0073870D01*
X0193182Y0073854D01*
X0193240Y0073834D01*
X0193297Y0073810D01*
X0193353Y0073783D01*
X0193407Y0073753D01*
X0193459Y0073719D01*
X0193508Y0073683D01*
X0193556Y0073643D01*
X0193601Y0073601D01*
X0193643Y0073556D01*
X0193683Y0073508D01*
X0193719Y0073459D01*
X0193753Y0073407D01*
X0193783Y0073353D01*
X0193810Y0073297D01*
X0193834Y0073240D01*
X0193854Y0073182D01*
X0193870Y0073123D01*
X0193883Y0073062D01*
X0193893Y0073001D01*
X0193898Y0072940D01*
X0193900Y0072878D01*
X0193900Y0070322D01*
X0193898Y0070260D01*
X0193893Y0070199D01*
X0193883Y0070138D01*
X0193870Y0070077D01*
X0193854Y0070018D01*
X0193834Y0069960D01*
X0193810Y0069903D01*
X0193783Y0069847D01*
X0193753Y0069793D01*
X0193719Y0069741D01*
X0193683Y0069692D01*
X0193643Y0069644D01*
X0193601Y0069599D01*
X0193556Y0069557D01*
X0193508Y0069517D01*
X0193459Y0069481D01*
X0193407Y0069447D01*
X0193353Y0069417D01*
X0193297Y0069390D01*
X0193240Y0069366D01*
X0193182Y0069346D01*
X0193123Y0069330D01*
X0193062Y0069317D01*
X0193001Y0069307D01*
X0192940Y0069302D01*
X0192878Y0069300D01*
X0191344Y0069300D01*
X0191344Y0071856D01*
X0192111Y0071856D01*
X0189100Y0073900D02*
X0189100Y0069300D01*
X0186544Y0069300D02*
X0186544Y0073900D01*
X0189100Y0073900D02*
X0186544Y0069300D01*
D12*
X0202864Y0165746D02*
X0167431Y0165746D01*
X0167431Y0196454D01*
X0202864Y0196454D01*
X0202864Y0165746D01*
X0200895Y0169289D02*
X0200895Y0173226D01*
X0185147Y0175194D01*
X0181210Y0178147D02*
X0181210Y0184053D01*
X0200895Y0186021D01*
X0200895Y0188974D02*
X0183179Y0187006D01*
X0183179Y0194880D02*
X0200895Y0192911D01*
X0200895Y0188974D01*
X0200895Y0176179D02*
X0181210Y0178147D01*
X0185147Y0167320D02*
X0200895Y0169289D01*
M02*
