G75*
%MOIN*%
%OFA0B0*%
%FSLAX25Y25*%
%IPPOS*%
%LPD*%
%AMOC8*
5,1,8,0,0,1.08239X$1,22.5*
%
%ADD10C,0.00000*%
%ADD11C,0.01200*%
%ADD12C,0.00400*%
%ADD13C,0.00600*%
%ADD14C,0.00500*%
%ADD15C,0.00800*%
%ADD16C,0.01000*%
%ADD17C,0.00300*%
%ADD18R,0.02000X0.01500*%
%ADD19R,0.01500X0.02000*%
D10*
X0006600Y0006600D02*
X0006600Y0203450D01*
X0203450Y0203450D01*
X0203450Y0006600D01*
X0006600Y0006600D01*
D11*
X0073600Y0035300D02*
X0079600Y0035300D01*
X0079600Y0037800D02*
X0073600Y0037800D01*
X0026600Y0151600D02*
X0018100Y0156600D01*
X0026600Y0161600D01*
X0026600Y0151600D01*
X0026600Y0151620D02*
X0026566Y0151620D01*
X0026600Y0152818D02*
X0024529Y0152818D01*
X0022491Y0154017D02*
X0026600Y0154017D01*
X0026600Y0155215D02*
X0020454Y0155215D01*
X0018416Y0156414D02*
X0026600Y0156414D01*
X0026600Y0157612D02*
X0019821Y0157612D01*
X0021859Y0158811D02*
X0026600Y0158811D01*
X0026600Y0160009D02*
X0023896Y0160009D01*
X0025934Y0161208D02*
X0026600Y0161208D01*
X0080400Y0168600D02*
X0080400Y0174600D01*
X0082900Y0174600D02*
X0082900Y0168600D01*
X0128100Y0172800D02*
X0134100Y0172800D01*
X0134100Y0175300D02*
X0128100Y0175300D01*
X0133600Y0157800D02*
X0139600Y0157800D01*
X0139600Y0155300D02*
X0133600Y0155300D01*
D12*
X0159757Y0170363D02*
X0163334Y0170363D01*
X0163396Y0170361D01*
X0163457Y0170356D01*
X0163518Y0170346D01*
X0163579Y0170333D01*
X0163638Y0170317D01*
X0163696Y0170297D01*
X0163753Y0170273D01*
X0163809Y0170246D01*
X0163863Y0170216D01*
X0163915Y0170182D01*
X0163964Y0170146D01*
X0164012Y0170106D01*
X0164057Y0170064D01*
X0164099Y0170019D01*
X0164139Y0169971D01*
X0164175Y0169922D01*
X0164209Y0169870D01*
X0164239Y0169816D01*
X0164266Y0169760D01*
X0164290Y0169703D01*
X0164310Y0169645D01*
X0164326Y0169586D01*
X0164339Y0169525D01*
X0164349Y0169464D01*
X0164354Y0169403D01*
X0164356Y0169341D01*
X0164357Y0169341D02*
X0164357Y0168829D01*
X0164357Y0172439D02*
X0164357Y0174994D01*
X0164357Y0173717D02*
X0159757Y0173717D01*
X0160779Y0172439D01*
X0181800Y0143900D02*
X0183078Y0143900D01*
X0181800Y0143900D01*
X0181800Y0139300D01*
X0183078Y0139300D01*
X0181800Y0139300D01*
X0181800Y0143900D01*
X0183078Y0143900D02*
X0183141Y0143898D01*
X0183204Y0143892D01*
X0183266Y0143883D01*
X0183327Y0143869D01*
X0183388Y0143852D01*
X0183447Y0143831D01*
X0183505Y0143806D01*
X0183562Y0143778D01*
X0183616Y0143747D01*
X0183668Y0143712D01*
X0183719Y0143674D01*
X0183767Y0143633D01*
X0183812Y0143589D01*
X0183854Y0143543D01*
X0183894Y0143494D01*
X0183930Y0143443D01*
X0183963Y0143389D01*
X0183993Y0143334D01*
X0184019Y0143276D01*
X0184042Y0143218D01*
X0184061Y0143158D01*
X0184076Y0143097D01*
X0184088Y0143035D01*
X0184096Y0142972D01*
X0184100Y0142909D01*
X0184100Y0142847D01*
X0184096Y0142784D01*
X0184088Y0142721D01*
X0184076Y0142659D01*
X0184061Y0142598D01*
X0184042Y0142538D01*
X0184019Y0142480D01*
X0183993Y0142422D01*
X0183963Y0142367D01*
X0183930Y0142313D01*
X0183894Y0142262D01*
X0183854Y0142213D01*
X0183812Y0142167D01*
X0183767Y0142123D01*
X0183719Y0142082D01*
X0183668Y0142044D01*
X0183616Y0142009D01*
X0183562Y0141978D01*
X0183505Y0141950D01*
X0183447Y0141925D01*
X0183388Y0141904D01*
X0183327Y0141887D01*
X0183266Y0141873D01*
X0183204Y0141864D01*
X0183141Y0141858D01*
X0183078Y0141856D01*
X0181800Y0141856D01*
X0183078Y0141856D01*
X0183141Y0141858D01*
X0183204Y0141864D01*
X0183266Y0141873D01*
X0183327Y0141887D01*
X0183388Y0141904D01*
X0183447Y0141925D01*
X0183505Y0141950D01*
X0183562Y0141978D01*
X0183616Y0142009D01*
X0183668Y0142044D01*
X0183719Y0142082D01*
X0183767Y0142123D01*
X0183812Y0142167D01*
X0183854Y0142213D01*
X0183894Y0142262D01*
X0183930Y0142313D01*
X0183963Y0142367D01*
X0183993Y0142422D01*
X0184019Y0142480D01*
X0184042Y0142538D01*
X0184061Y0142598D01*
X0184076Y0142659D01*
X0184088Y0142721D01*
X0184096Y0142784D01*
X0184100Y0142847D01*
X0184100Y0142909D01*
X0184096Y0142972D01*
X0184088Y0143035D01*
X0184076Y0143097D01*
X0184061Y0143158D01*
X0184042Y0143218D01*
X0184019Y0143276D01*
X0183993Y0143334D01*
X0183963Y0143389D01*
X0183930Y0143443D01*
X0183894Y0143494D01*
X0183854Y0143543D01*
X0183812Y0143589D01*
X0183767Y0143633D01*
X0183719Y0143674D01*
X0183668Y0143712D01*
X0183616Y0143747D01*
X0183562Y0143778D01*
X0183505Y0143806D01*
X0183447Y0143831D01*
X0183388Y0143852D01*
X0183327Y0143869D01*
X0183266Y0143883D01*
X0183204Y0143892D01*
X0183141Y0143898D01*
X0183078Y0143900D01*
X0183078Y0141856D02*
X0183148Y0141854D01*
X0183219Y0141848D01*
X0183288Y0141839D01*
X0183357Y0141825D01*
X0183426Y0141808D01*
X0183493Y0141787D01*
X0183559Y0141762D01*
X0183623Y0141734D01*
X0183686Y0141702D01*
X0183747Y0141667D01*
X0183806Y0141628D01*
X0183863Y0141587D01*
X0183917Y0141542D01*
X0183969Y0141494D01*
X0184018Y0141444D01*
X0184065Y0141390D01*
X0184108Y0141335D01*
X0184148Y0141277D01*
X0184185Y0141217D01*
X0184218Y0141155D01*
X0184248Y0141091D01*
X0184275Y0141026D01*
X0184298Y0140960D01*
X0184317Y0140892D01*
X0184332Y0140823D01*
X0184344Y0140754D01*
X0184352Y0140684D01*
X0184356Y0140613D01*
X0184356Y0140543D01*
X0184352Y0140472D01*
X0184344Y0140402D01*
X0184332Y0140333D01*
X0184317Y0140264D01*
X0184298Y0140196D01*
X0184275Y0140130D01*
X0184248Y0140065D01*
X0184218Y0140001D01*
X0184185Y0139939D01*
X0184148Y0139879D01*
X0184108Y0139821D01*
X0184065Y0139766D01*
X0184018Y0139712D01*
X0183969Y0139662D01*
X0183917Y0139614D01*
X0183863Y0139569D01*
X0183806Y0139528D01*
X0183747Y0139489D01*
X0183686Y0139454D01*
X0183623Y0139422D01*
X0183559Y0139394D01*
X0183493Y0139369D01*
X0183426Y0139348D01*
X0183357Y0139331D01*
X0183288Y0139317D01*
X0183219Y0139308D01*
X0183148Y0139302D01*
X0183078Y0139300D01*
X0183148Y0139302D01*
X0183219Y0139308D01*
X0183288Y0139317D01*
X0183357Y0139331D01*
X0183426Y0139348D01*
X0183493Y0139369D01*
X0183559Y0139394D01*
X0183623Y0139422D01*
X0183686Y0139454D01*
X0183747Y0139489D01*
X0183806Y0139528D01*
X0183863Y0139569D01*
X0183917Y0139614D01*
X0183969Y0139662D01*
X0184018Y0139712D01*
X0184065Y0139766D01*
X0184108Y0139821D01*
X0184148Y0139879D01*
X0184185Y0139939D01*
X0184218Y0140001D01*
X0184248Y0140065D01*
X0184275Y0140130D01*
X0184298Y0140196D01*
X0184317Y0140264D01*
X0184332Y0140333D01*
X0184344Y0140402D01*
X0184352Y0140472D01*
X0184356Y0140543D01*
X0184356Y0140613D01*
X0184352Y0140684D01*
X0184344Y0140754D01*
X0184332Y0140823D01*
X0184317Y0140892D01*
X0184298Y0140960D01*
X0184275Y0141026D01*
X0184248Y0141091D01*
X0184218Y0141155D01*
X0184185Y0141217D01*
X0184148Y0141277D01*
X0184108Y0141335D01*
X0184065Y0141390D01*
X0184018Y0141444D01*
X0183969Y0141494D01*
X0183917Y0141542D01*
X0183863Y0141587D01*
X0183806Y0141628D01*
X0183747Y0141667D01*
X0183686Y0141702D01*
X0183623Y0141734D01*
X0183559Y0141762D01*
X0183493Y0141787D01*
X0183426Y0141808D01*
X0183357Y0141825D01*
X0183288Y0141839D01*
X0183219Y0141848D01*
X0183148Y0141854D01*
X0183078Y0141856D01*
X0186083Y0142878D02*
X0187361Y0143900D01*
X0187361Y0139300D01*
X0187361Y0143900D01*
X0186083Y0142878D01*
X0186083Y0139300D02*
X0188639Y0139300D01*
X0186083Y0139300D01*
X0190583Y0139300D02*
X0192117Y0139300D01*
X0190583Y0139300D01*
X0192117Y0139300D02*
X0192179Y0139302D01*
X0192240Y0139307D01*
X0192301Y0139317D01*
X0192362Y0139330D01*
X0192421Y0139346D01*
X0192479Y0139366D01*
X0192536Y0139390D01*
X0192592Y0139417D01*
X0192646Y0139447D01*
X0192698Y0139481D01*
X0192747Y0139517D01*
X0192795Y0139557D01*
X0192840Y0139599D01*
X0192882Y0139644D01*
X0192922Y0139692D01*
X0192958Y0139741D01*
X0192992Y0139793D01*
X0193022Y0139847D01*
X0193049Y0139903D01*
X0193073Y0139960D01*
X0193093Y0140018D01*
X0193109Y0140077D01*
X0193122Y0140138D01*
X0193132Y0140199D01*
X0193137Y0140260D01*
X0193139Y0140322D01*
X0193139Y0140833D01*
X0193139Y0140322D01*
X0193137Y0140260D01*
X0193132Y0140199D01*
X0193122Y0140138D01*
X0193109Y0140077D01*
X0193093Y0140018D01*
X0193073Y0139960D01*
X0193049Y0139903D01*
X0193022Y0139847D01*
X0192992Y0139793D01*
X0192958Y0139741D01*
X0192922Y0139692D01*
X0192882Y0139644D01*
X0192840Y0139599D01*
X0192795Y0139557D01*
X0192747Y0139517D01*
X0192698Y0139481D01*
X0192646Y0139447D01*
X0192592Y0139417D01*
X0192536Y0139390D01*
X0192479Y0139366D01*
X0192421Y0139346D01*
X0192362Y0139330D01*
X0192301Y0139317D01*
X0192240Y0139307D01*
X0192179Y0139302D01*
X0192117Y0139300D01*
X0193139Y0140833D02*
X0193137Y0140895D01*
X0193132Y0140956D01*
X0193122Y0141017D01*
X0193109Y0141078D01*
X0193093Y0141137D01*
X0193073Y0141195D01*
X0193049Y0141252D01*
X0193022Y0141308D01*
X0192992Y0141362D01*
X0192958Y0141414D01*
X0192922Y0141463D01*
X0192882Y0141511D01*
X0192840Y0141556D01*
X0192795Y0141598D01*
X0192747Y0141638D01*
X0192698Y0141674D01*
X0192646Y0141708D01*
X0192592Y0141738D01*
X0192536Y0141765D01*
X0192479Y0141789D01*
X0192421Y0141809D01*
X0192362Y0141825D01*
X0192301Y0141838D01*
X0192240Y0141848D01*
X0192179Y0141853D01*
X0192117Y0141855D01*
X0192117Y0141856D02*
X0190583Y0141856D01*
X0190583Y0143900D01*
X0193139Y0143900D01*
X0190583Y0143900D01*
X0190583Y0141856D01*
X0192117Y0141856D01*
X0192117Y0141855D02*
X0192179Y0141853D01*
X0192240Y0141848D01*
X0192301Y0141838D01*
X0192362Y0141825D01*
X0192421Y0141809D01*
X0192479Y0141789D01*
X0192536Y0141765D01*
X0192592Y0141738D01*
X0192646Y0141708D01*
X0192698Y0141674D01*
X0192747Y0141638D01*
X0192795Y0141598D01*
X0192840Y0141556D01*
X0192882Y0141511D01*
X0192922Y0141463D01*
X0192958Y0141414D01*
X0192992Y0141362D01*
X0193022Y0141308D01*
X0193049Y0141252D01*
X0193073Y0141195D01*
X0193093Y0141137D01*
X0193109Y0141078D01*
X0193122Y0141017D01*
X0193132Y0140956D01*
X0193137Y0140895D01*
X0193139Y0140833D01*
X0191606Y0133900D02*
X0190583Y0130322D01*
X0193139Y0130322D01*
X0192372Y0131344D02*
X0192372Y0129300D01*
X0188639Y0129300D02*
X0186083Y0129300D01*
X0187361Y0129300D02*
X0187361Y0133900D01*
X0186083Y0132878D01*
X0183078Y0131856D02*
X0183141Y0131858D01*
X0183204Y0131864D01*
X0183266Y0131873D01*
X0183327Y0131887D01*
X0183388Y0131904D01*
X0183447Y0131925D01*
X0183505Y0131950D01*
X0183562Y0131978D01*
X0183616Y0132009D01*
X0183668Y0132044D01*
X0183719Y0132082D01*
X0183767Y0132123D01*
X0183812Y0132167D01*
X0183854Y0132213D01*
X0183894Y0132262D01*
X0183930Y0132313D01*
X0183963Y0132367D01*
X0183993Y0132422D01*
X0184019Y0132480D01*
X0184042Y0132538D01*
X0184061Y0132598D01*
X0184076Y0132659D01*
X0184088Y0132721D01*
X0184096Y0132784D01*
X0184100Y0132847D01*
X0184100Y0132909D01*
X0184096Y0132972D01*
X0184088Y0133035D01*
X0184076Y0133097D01*
X0184061Y0133158D01*
X0184042Y0133218D01*
X0184019Y0133276D01*
X0183993Y0133334D01*
X0183963Y0133389D01*
X0183930Y0133443D01*
X0183894Y0133494D01*
X0183854Y0133543D01*
X0183812Y0133589D01*
X0183767Y0133633D01*
X0183719Y0133674D01*
X0183668Y0133712D01*
X0183616Y0133747D01*
X0183562Y0133778D01*
X0183505Y0133806D01*
X0183447Y0133831D01*
X0183388Y0133852D01*
X0183327Y0133869D01*
X0183266Y0133883D01*
X0183204Y0133892D01*
X0183141Y0133898D01*
X0183078Y0133900D01*
X0181800Y0133900D01*
X0181800Y0129300D01*
X0183078Y0129300D01*
X0183148Y0129302D01*
X0183219Y0129308D01*
X0183288Y0129317D01*
X0183357Y0129331D01*
X0183426Y0129348D01*
X0183493Y0129369D01*
X0183559Y0129394D01*
X0183623Y0129422D01*
X0183686Y0129454D01*
X0183747Y0129489D01*
X0183806Y0129528D01*
X0183863Y0129569D01*
X0183917Y0129614D01*
X0183969Y0129662D01*
X0184018Y0129712D01*
X0184065Y0129766D01*
X0184108Y0129821D01*
X0184148Y0129879D01*
X0184185Y0129939D01*
X0184218Y0130001D01*
X0184248Y0130065D01*
X0184275Y0130130D01*
X0184298Y0130196D01*
X0184317Y0130264D01*
X0184332Y0130333D01*
X0184344Y0130402D01*
X0184352Y0130472D01*
X0184356Y0130543D01*
X0184356Y0130613D01*
X0184352Y0130684D01*
X0184344Y0130754D01*
X0184332Y0130823D01*
X0184317Y0130892D01*
X0184298Y0130960D01*
X0184275Y0131026D01*
X0184248Y0131091D01*
X0184218Y0131155D01*
X0184185Y0131217D01*
X0184148Y0131277D01*
X0184108Y0131335D01*
X0184065Y0131390D01*
X0184018Y0131444D01*
X0183969Y0131494D01*
X0183917Y0131542D01*
X0183863Y0131587D01*
X0183806Y0131628D01*
X0183747Y0131667D01*
X0183686Y0131702D01*
X0183623Y0131734D01*
X0183559Y0131762D01*
X0183493Y0131787D01*
X0183426Y0131808D01*
X0183357Y0131825D01*
X0183288Y0131839D01*
X0183219Y0131848D01*
X0183148Y0131854D01*
X0183078Y0131856D01*
X0181800Y0131856D01*
X0181800Y0123900D02*
X0183078Y0123900D01*
X0183141Y0123898D01*
X0183204Y0123892D01*
X0183266Y0123883D01*
X0183327Y0123869D01*
X0183388Y0123852D01*
X0183447Y0123831D01*
X0183505Y0123806D01*
X0183562Y0123778D01*
X0183616Y0123747D01*
X0183668Y0123712D01*
X0183719Y0123674D01*
X0183767Y0123633D01*
X0183812Y0123589D01*
X0183854Y0123543D01*
X0183894Y0123494D01*
X0183930Y0123443D01*
X0183963Y0123389D01*
X0183993Y0123334D01*
X0184019Y0123276D01*
X0184042Y0123218D01*
X0184061Y0123158D01*
X0184076Y0123097D01*
X0184088Y0123035D01*
X0184096Y0122972D01*
X0184100Y0122909D01*
X0184100Y0122847D01*
X0184096Y0122784D01*
X0184088Y0122721D01*
X0184076Y0122659D01*
X0184061Y0122598D01*
X0184042Y0122538D01*
X0184019Y0122480D01*
X0183993Y0122422D01*
X0183963Y0122367D01*
X0183930Y0122313D01*
X0183894Y0122262D01*
X0183854Y0122213D01*
X0183812Y0122167D01*
X0183767Y0122123D01*
X0183719Y0122082D01*
X0183668Y0122044D01*
X0183616Y0122009D01*
X0183562Y0121978D01*
X0183505Y0121950D01*
X0183447Y0121925D01*
X0183388Y0121904D01*
X0183327Y0121887D01*
X0183266Y0121873D01*
X0183204Y0121864D01*
X0183141Y0121858D01*
X0183078Y0121856D01*
X0181800Y0121856D01*
X0183078Y0121856D02*
X0183148Y0121854D01*
X0183219Y0121848D01*
X0183288Y0121839D01*
X0183357Y0121825D01*
X0183426Y0121808D01*
X0183493Y0121787D01*
X0183559Y0121762D01*
X0183623Y0121734D01*
X0183686Y0121702D01*
X0183747Y0121667D01*
X0183806Y0121628D01*
X0183863Y0121587D01*
X0183917Y0121542D01*
X0183969Y0121494D01*
X0184018Y0121444D01*
X0184065Y0121390D01*
X0184108Y0121335D01*
X0184148Y0121277D01*
X0184185Y0121217D01*
X0184218Y0121155D01*
X0184248Y0121091D01*
X0184275Y0121026D01*
X0184298Y0120960D01*
X0184317Y0120892D01*
X0184332Y0120823D01*
X0184344Y0120754D01*
X0184352Y0120684D01*
X0184356Y0120613D01*
X0184356Y0120543D01*
X0184352Y0120472D01*
X0184344Y0120402D01*
X0184332Y0120333D01*
X0184317Y0120264D01*
X0184298Y0120196D01*
X0184275Y0120130D01*
X0184248Y0120065D01*
X0184218Y0120001D01*
X0184185Y0119939D01*
X0184148Y0119879D01*
X0184108Y0119821D01*
X0184065Y0119766D01*
X0184018Y0119712D01*
X0183969Y0119662D01*
X0183917Y0119614D01*
X0183863Y0119569D01*
X0183806Y0119528D01*
X0183747Y0119489D01*
X0183686Y0119454D01*
X0183623Y0119422D01*
X0183559Y0119394D01*
X0183493Y0119369D01*
X0183426Y0119348D01*
X0183357Y0119331D01*
X0183288Y0119317D01*
X0183219Y0119308D01*
X0183148Y0119302D01*
X0183078Y0119300D01*
X0181800Y0119300D01*
X0181800Y0123900D01*
X0186083Y0122878D02*
X0187361Y0123900D01*
X0187361Y0119300D01*
X0186083Y0119300D02*
X0188639Y0119300D01*
X0190583Y0119300D02*
X0191861Y0119300D01*
X0191931Y0119302D01*
X0192002Y0119308D01*
X0192071Y0119317D01*
X0192140Y0119331D01*
X0192209Y0119348D01*
X0192276Y0119369D01*
X0192342Y0119394D01*
X0192406Y0119422D01*
X0192469Y0119454D01*
X0192530Y0119489D01*
X0192589Y0119528D01*
X0192646Y0119569D01*
X0192700Y0119614D01*
X0192752Y0119662D01*
X0192801Y0119712D01*
X0192848Y0119766D01*
X0192891Y0119821D01*
X0192931Y0119879D01*
X0192968Y0119939D01*
X0193001Y0120001D01*
X0193031Y0120065D01*
X0193058Y0120130D01*
X0193081Y0120196D01*
X0193100Y0120264D01*
X0193115Y0120333D01*
X0193127Y0120402D01*
X0193135Y0120472D01*
X0193139Y0120543D01*
X0193139Y0120613D01*
X0193135Y0120684D01*
X0193127Y0120754D01*
X0193115Y0120823D01*
X0193100Y0120892D01*
X0193081Y0120960D01*
X0193058Y0121026D01*
X0193031Y0121091D01*
X0193001Y0121155D01*
X0192968Y0121217D01*
X0192931Y0121277D01*
X0192891Y0121335D01*
X0192848Y0121390D01*
X0192801Y0121444D01*
X0192752Y0121494D01*
X0192700Y0121542D01*
X0192646Y0121587D01*
X0192589Y0121628D01*
X0192530Y0121667D01*
X0192469Y0121702D01*
X0192406Y0121734D01*
X0192342Y0121762D01*
X0192276Y0121787D01*
X0192209Y0121808D01*
X0192140Y0121825D01*
X0192071Y0121839D01*
X0192002Y0121848D01*
X0191931Y0121854D01*
X0191861Y0121856D01*
X0192117Y0121856D02*
X0191094Y0121856D01*
X0192117Y0121856D02*
X0192180Y0121858D01*
X0192243Y0121864D01*
X0192305Y0121873D01*
X0192366Y0121887D01*
X0192427Y0121904D01*
X0192486Y0121925D01*
X0192544Y0121950D01*
X0192601Y0121978D01*
X0192655Y0122009D01*
X0192707Y0122044D01*
X0192758Y0122082D01*
X0192806Y0122123D01*
X0192851Y0122167D01*
X0192893Y0122213D01*
X0192933Y0122262D01*
X0192969Y0122313D01*
X0193002Y0122367D01*
X0193032Y0122422D01*
X0193058Y0122480D01*
X0193081Y0122538D01*
X0193100Y0122598D01*
X0193115Y0122659D01*
X0193127Y0122721D01*
X0193135Y0122784D01*
X0193139Y0122847D01*
X0193139Y0122909D01*
X0193135Y0122972D01*
X0193127Y0123035D01*
X0193115Y0123097D01*
X0193100Y0123158D01*
X0193081Y0123218D01*
X0193058Y0123276D01*
X0193032Y0123334D01*
X0193002Y0123389D01*
X0192969Y0123443D01*
X0192933Y0123494D01*
X0192893Y0123543D01*
X0192851Y0123589D01*
X0192806Y0123633D01*
X0192758Y0123674D01*
X0192707Y0123712D01*
X0192655Y0123747D01*
X0192601Y0123778D01*
X0192544Y0123806D01*
X0192486Y0123831D01*
X0192427Y0123852D01*
X0192366Y0123869D01*
X0192305Y0123883D01*
X0192243Y0123892D01*
X0192180Y0123898D01*
X0192117Y0123900D01*
X0190583Y0123900D01*
X0183078Y0113900D02*
X0181800Y0113900D01*
X0181800Y0109300D01*
X0183078Y0109300D01*
X0183148Y0109302D01*
X0183219Y0109308D01*
X0183288Y0109317D01*
X0183357Y0109331D01*
X0183426Y0109348D01*
X0183493Y0109369D01*
X0183559Y0109394D01*
X0183623Y0109422D01*
X0183686Y0109454D01*
X0183747Y0109489D01*
X0183806Y0109528D01*
X0183863Y0109569D01*
X0183917Y0109614D01*
X0183969Y0109662D01*
X0184018Y0109712D01*
X0184065Y0109766D01*
X0184108Y0109821D01*
X0184148Y0109879D01*
X0184185Y0109939D01*
X0184218Y0110001D01*
X0184248Y0110065D01*
X0184275Y0110130D01*
X0184298Y0110196D01*
X0184317Y0110264D01*
X0184332Y0110333D01*
X0184344Y0110402D01*
X0184352Y0110472D01*
X0184356Y0110543D01*
X0184356Y0110613D01*
X0184352Y0110684D01*
X0184344Y0110754D01*
X0184332Y0110823D01*
X0184317Y0110892D01*
X0184298Y0110960D01*
X0184275Y0111026D01*
X0184248Y0111091D01*
X0184218Y0111155D01*
X0184185Y0111217D01*
X0184148Y0111277D01*
X0184108Y0111335D01*
X0184065Y0111390D01*
X0184018Y0111444D01*
X0183969Y0111494D01*
X0183917Y0111542D01*
X0183863Y0111587D01*
X0183806Y0111628D01*
X0183747Y0111667D01*
X0183686Y0111702D01*
X0183623Y0111734D01*
X0183559Y0111762D01*
X0183493Y0111787D01*
X0183426Y0111808D01*
X0183357Y0111825D01*
X0183288Y0111839D01*
X0183219Y0111848D01*
X0183148Y0111854D01*
X0183078Y0111856D01*
X0181800Y0111856D01*
X0183078Y0111856D02*
X0183141Y0111858D01*
X0183204Y0111864D01*
X0183266Y0111873D01*
X0183327Y0111887D01*
X0183388Y0111904D01*
X0183447Y0111925D01*
X0183505Y0111950D01*
X0183562Y0111978D01*
X0183616Y0112009D01*
X0183668Y0112044D01*
X0183719Y0112082D01*
X0183767Y0112123D01*
X0183812Y0112167D01*
X0183854Y0112213D01*
X0183894Y0112262D01*
X0183930Y0112313D01*
X0183963Y0112367D01*
X0183993Y0112422D01*
X0184019Y0112480D01*
X0184042Y0112538D01*
X0184061Y0112598D01*
X0184076Y0112659D01*
X0184088Y0112721D01*
X0184096Y0112784D01*
X0184100Y0112847D01*
X0184100Y0112909D01*
X0184096Y0112972D01*
X0184088Y0113035D01*
X0184076Y0113097D01*
X0184061Y0113158D01*
X0184042Y0113218D01*
X0184019Y0113276D01*
X0183993Y0113334D01*
X0183963Y0113389D01*
X0183930Y0113443D01*
X0183894Y0113494D01*
X0183854Y0113543D01*
X0183812Y0113589D01*
X0183767Y0113633D01*
X0183719Y0113674D01*
X0183668Y0113712D01*
X0183616Y0113747D01*
X0183562Y0113778D01*
X0183505Y0113806D01*
X0183447Y0113831D01*
X0183388Y0113852D01*
X0183327Y0113869D01*
X0183266Y0113883D01*
X0183204Y0113892D01*
X0183141Y0113898D01*
X0183078Y0113900D01*
X0186083Y0112622D02*
X0186083Y0112367D01*
X0186084Y0112367D02*
X0186086Y0112305D01*
X0186091Y0112244D01*
X0186101Y0112183D01*
X0186114Y0112122D01*
X0186130Y0112063D01*
X0186150Y0112005D01*
X0186174Y0111948D01*
X0186201Y0111892D01*
X0186231Y0111838D01*
X0186265Y0111786D01*
X0186301Y0111737D01*
X0186341Y0111689D01*
X0186383Y0111644D01*
X0186428Y0111602D01*
X0186476Y0111562D01*
X0186525Y0111526D01*
X0186577Y0111492D01*
X0186631Y0111462D01*
X0186687Y0111435D01*
X0186744Y0111411D01*
X0186802Y0111391D01*
X0186861Y0111375D01*
X0186922Y0111362D01*
X0186983Y0111352D01*
X0187044Y0111347D01*
X0187106Y0111345D01*
X0187106Y0111344D02*
X0188639Y0111344D01*
X0188639Y0112622D01*
X0188637Y0112692D01*
X0188631Y0112763D01*
X0188622Y0112832D01*
X0188608Y0112901D01*
X0188591Y0112970D01*
X0188570Y0113037D01*
X0188545Y0113103D01*
X0188517Y0113167D01*
X0188485Y0113230D01*
X0188450Y0113291D01*
X0188411Y0113350D01*
X0188370Y0113407D01*
X0188325Y0113461D01*
X0188277Y0113513D01*
X0188227Y0113562D01*
X0188173Y0113609D01*
X0188118Y0113652D01*
X0188060Y0113692D01*
X0188000Y0113729D01*
X0187938Y0113762D01*
X0187874Y0113792D01*
X0187809Y0113819D01*
X0187743Y0113842D01*
X0187675Y0113861D01*
X0187606Y0113876D01*
X0187537Y0113888D01*
X0187467Y0113896D01*
X0187396Y0113900D01*
X0187326Y0113900D01*
X0187255Y0113896D01*
X0187185Y0113888D01*
X0187116Y0113876D01*
X0187047Y0113861D01*
X0186979Y0113842D01*
X0186913Y0113819D01*
X0186848Y0113792D01*
X0186784Y0113762D01*
X0186722Y0113729D01*
X0186662Y0113692D01*
X0186604Y0113652D01*
X0186549Y0113609D01*
X0186495Y0113562D01*
X0186445Y0113513D01*
X0186397Y0113461D01*
X0186352Y0113407D01*
X0186311Y0113350D01*
X0186272Y0113291D01*
X0186237Y0113230D01*
X0186205Y0113167D01*
X0186177Y0113103D01*
X0186152Y0113037D01*
X0186131Y0112970D01*
X0186114Y0112901D01*
X0186100Y0112832D01*
X0186091Y0112763D01*
X0186085Y0112692D01*
X0186083Y0112622D01*
X0188638Y0111344D02*
X0188636Y0111255D01*
X0188630Y0111166D01*
X0188621Y0111077D01*
X0188607Y0110989D01*
X0188590Y0110902D01*
X0188568Y0110815D01*
X0188543Y0110729D01*
X0188515Y0110645D01*
X0188482Y0110562D01*
X0188446Y0110480D01*
X0188407Y0110400D01*
X0188364Y0110322D01*
X0188318Y0110246D01*
X0188268Y0110172D01*
X0188216Y0110100D01*
X0188160Y0110030D01*
X0188101Y0109963D01*
X0188039Y0109899D01*
X0187975Y0109837D01*
X0187908Y0109778D01*
X0187838Y0109722D01*
X0187766Y0109670D01*
X0187692Y0109620D01*
X0187616Y0109574D01*
X0187538Y0109531D01*
X0187458Y0109492D01*
X0187376Y0109456D01*
X0187293Y0109423D01*
X0187209Y0109395D01*
X0187123Y0109370D01*
X0187036Y0109348D01*
X0186949Y0109331D01*
X0186861Y0109317D01*
X0186772Y0109308D01*
X0186683Y0109302D01*
X0186594Y0109300D01*
X0183078Y0103900D02*
X0181800Y0103900D01*
X0181800Y0099300D01*
X0183078Y0099300D01*
X0183148Y0099302D01*
X0183219Y0099308D01*
X0183288Y0099317D01*
X0183357Y0099331D01*
X0183426Y0099348D01*
X0183493Y0099369D01*
X0183559Y0099394D01*
X0183623Y0099422D01*
X0183686Y0099454D01*
X0183747Y0099489D01*
X0183806Y0099528D01*
X0183863Y0099569D01*
X0183917Y0099614D01*
X0183969Y0099662D01*
X0184018Y0099712D01*
X0184065Y0099766D01*
X0184108Y0099821D01*
X0184148Y0099879D01*
X0184185Y0099939D01*
X0184218Y0100001D01*
X0184248Y0100065D01*
X0184275Y0100130D01*
X0184298Y0100196D01*
X0184317Y0100264D01*
X0184332Y0100333D01*
X0184344Y0100402D01*
X0184352Y0100472D01*
X0184356Y0100543D01*
X0184356Y0100613D01*
X0184352Y0100684D01*
X0184344Y0100754D01*
X0184332Y0100823D01*
X0184317Y0100892D01*
X0184298Y0100960D01*
X0184275Y0101026D01*
X0184248Y0101091D01*
X0184218Y0101155D01*
X0184185Y0101217D01*
X0184148Y0101277D01*
X0184108Y0101335D01*
X0184065Y0101390D01*
X0184018Y0101444D01*
X0183969Y0101494D01*
X0183917Y0101542D01*
X0183863Y0101587D01*
X0183806Y0101628D01*
X0183747Y0101667D01*
X0183686Y0101702D01*
X0183623Y0101734D01*
X0183559Y0101762D01*
X0183493Y0101787D01*
X0183426Y0101808D01*
X0183357Y0101825D01*
X0183288Y0101839D01*
X0183219Y0101848D01*
X0183148Y0101854D01*
X0183078Y0101856D01*
X0181800Y0101856D01*
X0183078Y0101856D02*
X0183141Y0101858D01*
X0183204Y0101864D01*
X0183266Y0101873D01*
X0183327Y0101887D01*
X0183388Y0101904D01*
X0183447Y0101925D01*
X0183505Y0101950D01*
X0183562Y0101978D01*
X0183616Y0102009D01*
X0183668Y0102044D01*
X0183719Y0102082D01*
X0183767Y0102123D01*
X0183812Y0102167D01*
X0183854Y0102213D01*
X0183894Y0102262D01*
X0183930Y0102313D01*
X0183963Y0102367D01*
X0183993Y0102422D01*
X0184019Y0102480D01*
X0184042Y0102538D01*
X0184061Y0102598D01*
X0184076Y0102659D01*
X0184088Y0102721D01*
X0184096Y0102784D01*
X0184100Y0102847D01*
X0184100Y0102909D01*
X0184096Y0102972D01*
X0184088Y0103035D01*
X0184076Y0103097D01*
X0184061Y0103158D01*
X0184042Y0103218D01*
X0184019Y0103276D01*
X0183993Y0103334D01*
X0183963Y0103389D01*
X0183930Y0103443D01*
X0183894Y0103494D01*
X0183854Y0103543D01*
X0183812Y0103589D01*
X0183767Y0103633D01*
X0183719Y0103674D01*
X0183668Y0103712D01*
X0183616Y0103747D01*
X0183562Y0103778D01*
X0183505Y0103806D01*
X0183447Y0103831D01*
X0183388Y0103852D01*
X0183327Y0103869D01*
X0183266Y0103883D01*
X0183204Y0103892D01*
X0183141Y0103898D01*
X0183078Y0103900D01*
X0186339Y0102878D02*
X0186341Y0102815D01*
X0186347Y0102752D01*
X0186356Y0102690D01*
X0186370Y0102629D01*
X0186387Y0102568D01*
X0186408Y0102509D01*
X0186433Y0102451D01*
X0186461Y0102394D01*
X0186492Y0102340D01*
X0186527Y0102288D01*
X0186565Y0102237D01*
X0186606Y0102189D01*
X0186650Y0102144D01*
X0186696Y0102102D01*
X0186745Y0102062D01*
X0186796Y0102026D01*
X0186850Y0101993D01*
X0186905Y0101963D01*
X0186963Y0101937D01*
X0187021Y0101914D01*
X0187081Y0101895D01*
X0187142Y0101880D01*
X0187204Y0101868D01*
X0187267Y0101860D01*
X0187330Y0101856D01*
X0187392Y0101856D01*
X0187455Y0101860D01*
X0187518Y0101868D01*
X0187580Y0101880D01*
X0187641Y0101895D01*
X0187701Y0101914D01*
X0187759Y0101937D01*
X0187817Y0101963D01*
X0187872Y0101993D01*
X0187926Y0102026D01*
X0187977Y0102062D01*
X0188026Y0102102D01*
X0188072Y0102144D01*
X0188116Y0102189D01*
X0188157Y0102237D01*
X0188195Y0102288D01*
X0188230Y0102340D01*
X0188261Y0102394D01*
X0188289Y0102451D01*
X0188314Y0102509D01*
X0188335Y0102568D01*
X0188352Y0102629D01*
X0188366Y0102690D01*
X0188375Y0102752D01*
X0188381Y0102815D01*
X0188383Y0102878D01*
X0188381Y0102941D01*
X0188375Y0103004D01*
X0188366Y0103066D01*
X0188352Y0103127D01*
X0188335Y0103188D01*
X0188314Y0103247D01*
X0188289Y0103305D01*
X0188261Y0103362D01*
X0188230Y0103416D01*
X0188195Y0103468D01*
X0188157Y0103519D01*
X0188116Y0103567D01*
X0188072Y0103612D01*
X0188026Y0103654D01*
X0187977Y0103694D01*
X0187926Y0103730D01*
X0187872Y0103763D01*
X0187817Y0103793D01*
X0187759Y0103819D01*
X0187701Y0103842D01*
X0187641Y0103861D01*
X0187580Y0103876D01*
X0187518Y0103888D01*
X0187455Y0103896D01*
X0187392Y0103900D01*
X0187330Y0103900D01*
X0187267Y0103896D01*
X0187204Y0103888D01*
X0187142Y0103876D01*
X0187081Y0103861D01*
X0187021Y0103842D01*
X0186963Y0103819D01*
X0186905Y0103793D01*
X0186850Y0103763D01*
X0186796Y0103730D01*
X0186745Y0103694D01*
X0186696Y0103654D01*
X0186650Y0103612D01*
X0186606Y0103567D01*
X0186565Y0103519D01*
X0186527Y0103468D01*
X0186492Y0103416D01*
X0186461Y0103362D01*
X0186433Y0103305D01*
X0186408Y0103247D01*
X0186387Y0103188D01*
X0186370Y0103127D01*
X0186356Y0103066D01*
X0186347Y0103004D01*
X0186341Y0102941D01*
X0186339Y0102878D01*
X0186083Y0100578D02*
X0186085Y0100508D01*
X0186091Y0100437D01*
X0186100Y0100368D01*
X0186114Y0100299D01*
X0186131Y0100230D01*
X0186152Y0100163D01*
X0186177Y0100097D01*
X0186205Y0100033D01*
X0186237Y0099970D01*
X0186272Y0099909D01*
X0186311Y0099850D01*
X0186352Y0099793D01*
X0186397Y0099739D01*
X0186445Y0099687D01*
X0186495Y0099638D01*
X0186549Y0099591D01*
X0186604Y0099548D01*
X0186662Y0099508D01*
X0186722Y0099471D01*
X0186784Y0099438D01*
X0186848Y0099408D01*
X0186913Y0099381D01*
X0186979Y0099358D01*
X0187047Y0099339D01*
X0187116Y0099324D01*
X0187185Y0099312D01*
X0187255Y0099304D01*
X0187326Y0099300D01*
X0187396Y0099300D01*
X0187467Y0099304D01*
X0187537Y0099312D01*
X0187606Y0099324D01*
X0187675Y0099339D01*
X0187743Y0099358D01*
X0187809Y0099381D01*
X0187874Y0099408D01*
X0187938Y0099438D01*
X0188000Y0099471D01*
X0188060Y0099508D01*
X0188118Y0099548D01*
X0188173Y0099591D01*
X0188227Y0099638D01*
X0188277Y0099687D01*
X0188325Y0099739D01*
X0188370Y0099793D01*
X0188411Y0099850D01*
X0188450Y0099909D01*
X0188485Y0099970D01*
X0188517Y0100033D01*
X0188545Y0100097D01*
X0188570Y0100163D01*
X0188591Y0100230D01*
X0188608Y0100299D01*
X0188622Y0100368D01*
X0188631Y0100437D01*
X0188637Y0100508D01*
X0188639Y0100578D01*
X0188637Y0100648D01*
X0188631Y0100719D01*
X0188622Y0100788D01*
X0188608Y0100857D01*
X0188591Y0100926D01*
X0188570Y0100993D01*
X0188545Y0101059D01*
X0188517Y0101123D01*
X0188485Y0101186D01*
X0188450Y0101247D01*
X0188411Y0101306D01*
X0188370Y0101363D01*
X0188325Y0101417D01*
X0188277Y0101469D01*
X0188227Y0101518D01*
X0188173Y0101565D01*
X0188118Y0101608D01*
X0188060Y0101648D01*
X0188000Y0101685D01*
X0187938Y0101718D01*
X0187874Y0101748D01*
X0187809Y0101775D01*
X0187743Y0101798D01*
X0187675Y0101817D01*
X0187606Y0101832D01*
X0187537Y0101844D01*
X0187467Y0101852D01*
X0187396Y0101856D01*
X0187326Y0101856D01*
X0187255Y0101852D01*
X0187185Y0101844D01*
X0187116Y0101832D01*
X0187047Y0101817D01*
X0186979Y0101798D01*
X0186913Y0101775D01*
X0186848Y0101748D01*
X0186784Y0101718D01*
X0186722Y0101685D01*
X0186662Y0101648D01*
X0186604Y0101608D01*
X0186549Y0101565D01*
X0186495Y0101518D01*
X0186445Y0101469D01*
X0186397Y0101417D01*
X0186352Y0101363D01*
X0186311Y0101306D01*
X0186272Y0101247D01*
X0186237Y0101186D01*
X0186205Y0101123D01*
X0186177Y0101059D01*
X0186152Y0100993D01*
X0186131Y0100926D01*
X0186114Y0100857D01*
X0186100Y0100788D01*
X0186091Y0100719D01*
X0186085Y0100648D01*
X0186083Y0100578D01*
X0186083Y0093900D02*
X0188639Y0093900D01*
X0187361Y0089300D01*
X0183078Y0089300D02*
X0181800Y0089300D01*
X0181800Y0093900D01*
X0183078Y0093900D01*
X0183141Y0093898D01*
X0183204Y0093892D01*
X0183266Y0093883D01*
X0183327Y0093869D01*
X0183388Y0093852D01*
X0183447Y0093831D01*
X0183505Y0093806D01*
X0183562Y0093778D01*
X0183616Y0093747D01*
X0183668Y0093712D01*
X0183719Y0093674D01*
X0183767Y0093633D01*
X0183812Y0093589D01*
X0183854Y0093543D01*
X0183894Y0093494D01*
X0183930Y0093443D01*
X0183963Y0093389D01*
X0183993Y0093334D01*
X0184019Y0093276D01*
X0184042Y0093218D01*
X0184061Y0093158D01*
X0184076Y0093097D01*
X0184088Y0093035D01*
X0184096Y0092972D01*
X0184100Y0092909D01*
X0184100Y0092847D01*
X0184096Y0092784D01*
X0184088Y0092721D01*
X0184076Y0092659D01*
X0184061Y0092598D01*
X0184042Y0092538D01*
X0184019Y0092480D01*
X0183993Y0092422D01*
X0183963Y0092367D01*
X0183930Y0092313D01*
X0183894Y0092262D01*
X0183854Y0092213D01*
X0183812Y0092167D01*
X0183767Y0092123D01*
X0183719Y0092082D01*
X0183668Y0092044D01*
X0183616Y0092009D01*
X0183562Y0091978D01*
X0183505Y0091950D01*
X0183447Y0091925D01*
X0183388Y0091904D01*
X0183327Y0091887D01*
X0183266Y0091873D01*
X0183204Y0091864D01*
X0183141Y0091858D01*
X0183078Y0091856D01*
X0181800Y0091856D01*
X0183078Y0091856D02*
X0183148Y0091854D01*
X0183219Y0091848D01*
X0183288Y0091839D01*
X0183357Y0091825D01*
X0183426Y0091808D01*
X0183493Y0091787D01*
X0183559Y0091762D01*
X0183623Y0091734D01*
X0183686Y0091702D01*
X0183747Y0091667D01*
X0183806Y0091628D01*
X0183863Y0091587D01*
X0183917Y0091542D01*
X0183969Y0091494D01*
X0184018Y0091444D01*
X0184065Y0091390D01*
X0184108Y0091335D01*
X0184148Y0091277D01*
X0184185Y0091217D01*
X0184218Y0091155D01*
X0184248Y0091091D01*
X0184275Y0091026D01*
X0184298Y0090960D01*
X0184317Y0090892D01*
X0184332Y0090823D01*
X0184344Y0090754D01*
X0184352Y0090684D01*
X0184356Y0090613D01*
X0184356Y0090543D01*
X0184352Y0090472D01*
X0184344Y0090402D01*
X0184332Y0090333D01*
X0184317Y0090264D01*
X0184298Y0090196D01*
X0184275Y0090130D01*
X0184248Y0090065D01*
X0184218Y0090001D01*
X0184185Y0089939D01*
X0184148Y0089879D01*
X0184108Y0089821D01*
X0184065Y0089766D01*
X0184018Y0089712D01*
X0183969Y0089662D01*
X0183917Y0089614D01*
X0183863Y0089569D01*
X0183806Y0089528D01*
X0183747Y0089489D01*
X0183686Y0089454D01*
X0183623Y0089422D01*
X0183559Y0089394D01*
X0183493Y0089369D01*
X0183426Y0089348D01*
X0183357Y0089331D01*
X0183288Y0089317D01*
X0183219Y0089308D01*
X0183148Y0089302D01*
X0183078Y0089300D01*
X0186083Y0093389D02*
X0186083Y0093900D01*
X0184994Y0083900D02*
X0187550Y0083900D01*
X0189239Y0083900D02*
X0190772Y0079300D01*
X0192306Y0083900D01*
X0187550Y0080833D02*
X0187550Y0080322D01*
X0187548Y0080260D01*
X0187543Y0080199D01*
X0187533Y0080138D01*
X0187520Y0080077D01*
X0187504Y0080018D01*
X0187484Y0079960D01*
X0187460Y0079903D01*
X0187433Y0079847D01*
X0187403Y0079793D01*
X0187369Y0079741D01*
X0187333Y0079692D01*
X0187293Y0079644D01*
X0187251Y0079599D01*
X0187206Y0079557D01*
X0187158Y0079517D01*
X0187109Y0079481D01*
X0187057Y0079447D01*
X0187003Y0079417D01*
X0186947Y0079390D01*
X0186890Y0079366D01*
X0186832Y0079346D01*
X0186773Y0079330D01*
X0186712Y0079317D01*
X0186651Y0079307D01*
X0186590Y0079302D01*
X0186528Y0079300D01*
X0184994Y0079300D01*
X0187550Y0080833D02*
X0187548Y0080895D01*
X0187543Y0080956D01*
X0187533Y0081017D01*
X0187520Y0081078D01*
X0187504Y0081137D01*
X0187484Y0081195D01*
X0187460Y0081252D01*
X0187433Y0081308D01*
X0187403Y0081362D01*
X0187369Y0081414D01*
X0187333Y0081463D01*
X0187293Y0081511D01*
X0187251Y0081556D01*
X0187206Y0081598D01*
X0187158Y0081638D01*
X0187109Y0081674D01*
X0187057Y0081708D01*
X0187003Y0081738D01*
X0186947Y0081765D01*
X0186890Y0081789D01*
X0186832Y0081809D01*
X0186773Y0081825D01*
X0186712Y0081838D01*
X0186651Y0081848D01*
X0186590Y0081853D01*
X0186528Y0081855D01*
X0186528Y0081856D02*
X0184994Y0081856D01*
X0184994Y0083900D01*
X0184356Y0073900D02*
X0182822Y0073900D01*
X0182760Y0073898D01*
X0182699Y0073893D01*
X0182638Y0073883D01*
X0182577Y0073870D01*
X0182518Y0073854D01*
X0182460Y0073834D01*
X0182403Y0073810D01*
X0182347Y0073783D01*
X0182293Y0073753D01*
X0182241Y0073719D01*
X0182192Y0073682D01*
X0182144Y0073643D01*
X0182099Y0073601D01*
X0182057Y0073556D01*
X0182017Y0073508D01*
X0181981Y0073459D01*
X0181947Y0073407D01*
X0181917Y0073353D01*
X0181890Y0073297D01*
X0181866Y0073240D01*
X0181846Y0073182D01*
X0181830Y0073123D01*
X0181817Y0073062D01*
X0181807Y0073001D01*
X0181802Y0072940D01*
X0181800Y0072878D01*
X0181800Y0070322D01*
X0181802Y0070260D01*
X0181807Y0070199D01*
X0181817Y0070138D01*
X0181830Y0070077D01*
X0181846Y0070018D01*
X0181866Y0069960D01*
X0181890Y0069903D01*
X0181917Y0069847D01*
X0181947Y0069793D01*
X0181981Y0069741D01*
X0182017Y0069692D01*
X0182057Y0069644D01*
X0182099Y0069599D01*
X0182144Y0069557D01*
X0182192Y0069517D01*
X0182241Y0069481D01*
X0182293Y0069447D01*
X0182347Y0069417D01*
X0182403Y0069390D01*
X0182460Y0069366D01*
X0182518Y0069346D01*
X0182577Y0069330D01*
X0182638Y0069317D01*
X0182699Y0069307D01*
X0182760Y0069302D01*
X0182822Y0069300D01*
X0184356Y0069300D01*
X0184356Y0071856D01*
X0183589Y0071856D01*
X0186600Y0073900D02*
X0186600Y0069300D01*
X0189156Y0069300D02*
X0189156Y0073900D01*
X0186600Y0073900D02*
X0189156Y0069300D01*
X0086400Y0073737D02*
X0086400Y0074759D01*
X0086400Y0073737D02*
X0086398Y0073675D01*
X0086393Y0073614D01*
X0086383Y0073553D01*
X0086370Y0073492D01*
X0086354Y0073433D01*
X0086334Y0073375D01*
X0086310Y0073318D01*
X0086283Y0073262D01*
X0086253Y0073208D01*
X0086219Y0073156D01*
X0086183Y0073107D01*
X0086143Y0073059D01*
X0086101Y0073014D01*
X0086056Y0072972D01*
X0086008Y0072932D01*
X0085959Y0072896D01*
X0085907Y0072862D01*
X0085853Y0072832D01*
X0085797Y0072805D01*
X0085740Y0072781D01*
X0085682Y0072761D01*
X0085623Y0072745D01*
X0085562Y0072732D01*
X0085501Y0072722D01*
X0085440Y0072717D01*
X0085378Y0072715D01*
X0082822Y0072715D01*
X0082760Y0072717D01*
X0082699Y0072722D01*
X0082638Y0072732D01*
X0082577Y0072745D01*
X0082518Y0072761D01*
X0082460Y0072781D01*
X0082403Y0072805D01*
X0082347Y0072832D01*
X0082293Y0072862D01*
X0082241Y0072896D01*
X0082192Y0072932D01*
X0082144Y0072972D01*
X0082099Y0073014D01*
X0082057Y0073059D01*
X0082018Y0073107D01*
X0081981Y0073156D01*
X0081947Y0073208D01*
X0081917Y0073262D01*
X0081890Y0073318D01*
X0081866Y0073375D01*
X0081846Y0073433D01*
X0081830Y0073492D01*
X0081817Y0073553D01*
X0081807Y0073614D01*
X0081802Y0073675D01*
X0081800Y0073737D01*
X0081800Y0074759D01*
X0081800Y0076637D02*
X0086400Y0076637D01*
X0086400Y0078681D01*
X0085122Y0080378D02*
X0083078Y0080378D01*
X0083008Y0080380D01*
X0082937Y0080386D01*
X0082868Y0080395D01*
X0082799Y0080409D01*
X0082730Y0080426D01*
X0082663Y0080447D01*
X0082597Y0080472D01*
X0082533Y0080500D01*
X0082470Y0080532D01*
X0082409Y0080567D01*
X0082350Y0080606D01*
X0082293Y0080647D01*
X0082239Y0080692D01*
X0082187Y0080740D01*
X0082138Y0080790D01*
X0082091Y0080844D01*
X0082048Y0080899D01*
X0082008Y0080957D01*
X0081971Y0081017D01*
X0081938Y0081079D01*
X0081908Y0081143D01*
X0081881Y0081208D01*
X0081858Y0081274D01*
X0081839Y0081342D01*
X0081824Y0081411D01*
X0081812Y0081480D01*
X0081804Y0081550D01*
X0081800Y0081621D01*
X0081800Y0081691D01*
X0081804Y0081762D01*
X0081812Y0081832D01*
X0081824Y0081901D01*
X0081839Y0081970D01*
X0081858Y0082038D01*
X0081881Y0082104D01*
X0081908Y0082169D01*
X0081938Y0082233D01*
X0081971Y0082295D01*
X0082008Y0082355D01*
X0082048Y0082413D01*
X0082091Y0082468D01*
X0082138Y0082522D01*
X0082187Y0082572D01*
X0082239Y0082620D01*
X0082293Y0082665D01*
X0082350Y0082706D01*
X0082409Y0082745D01*
X0082470Y0082780D01*
X0082533Y0082812D01*
X0082597Y0082840D01*
X0082663Y0082865D01*
X0082730Y0082886D01*
X0082799Y0082903D01*
X0082868Y0082917D01*
X0082937Y0082926D01*
X0083008Y0082932D01*
X0083078Y0082934D01*
X0083078Y0082933D02*
X0085122Y0082933D01*
X0085122Y0082934D02*
X0085192Y0082932D01*
X0085263Y0082926D01*
X0085332Y0082917D01*
X0085401Y0082903D01*
X0085470Y0082886D01*
X0085537Y0082865D01*
X0085603Y0082840D01*
X0085667Y0082812D01*
X0085730Y0082780D01*
X0085791Y0082745D01*
X0085850Y0082706D01*
X0085907Y0082665D01*
X0085961Y0082620D01*
X0086013Y0082572D01*
X0086062Y0082522D01*
X0086109Y0082468D01*
X0086152Y0082413D01*
X0086192Y0082355D01*
X0086229Y0082295D01*
X0086262Y0082233D01*
X0086292Y0082169D01*
X0086319Y0082104D01*
X0086342Y0082038D01*
X0086361Y0081970D01*
X0086376Y0081901D01*
X0086388Y0081832D01*
X0086396Y0081762D01*
X0086400Y0081691D01*
X0086400Y0081621D01*
X0086396Y0081550D01*
X0086388Y0081480D01*
X0086376Y0081411D01*
X0086361Y0081342D01*
X0086342Y0081274D01*
X0086319Y0081208D01*
X0086292Y0081143D01*
X0086262Y0081079D01*
X0086229Y0081017D01*
X0086192Y0080957D01*
X0086152Y0080899D01*
X0086109Y0080844D01*
X0086062Y0080790D01*
X0086013Y0080740D01*
X0085961Y0080692D01*
X0085907Y0080647D01*
X0085850Y0080606D01*
X0085791Y0080567D01*
X0085730Y0080532D01*
X0085667Y0080500D01*
X0085603Y0080472D01*
X0085537Y0080447D01*
X0085470Y0080426D01*
X0085401Y0080409D01*
X0085332Y0080395D01*
X0085263Y0080386D01*
X0085192Y0080380D01*
X0085122Y0080378D01*
X0085378Y0084865D02*
X0082822Y0084865D01*
X0082760Y0084867D01*
X0082699Y0084872D01*
X0082638Y0084882D01*
X0082577Y0084895D01*
X0082518Y0084911D01*
X0082460Y0084931D01*
X0082403Y0084955D01*
X0082347Y0084982D01*
X0082293Y0085012D01*
X0082241Y0085046D01*
X0082192Y0085082D01*
X0082144Y0085122D01*
X0082099Y0085164D01*
X0082057Y0085209D01*
X0082018Y0085257D01*
X0081981Y0085306D01*
X0081947Y0085358D01*
X0081917Y0085412D01*
X0081890Y0085468D01*
X0081866Y0085525D01*
X0081846Y0085583D01*
X0081830Y0085642D01*
X0081817Y0085703D01*
X0081807Y0085764D01*
X0081802Y0085825D01*
X0081800Y0085887D01*
X0081800Y0086909D01*
X0081800Y0088844D02*
X0086400Y0088844D01*
X0084611Y0088844D02*
X0081800Y0091400D01*
X0083589Y0089867D02*
X0086400Y0091400D01*
X0086400Y0086909D02*
X0086400Y0085887D01*
X0086398Y0085825D01*
X0086393Y0085764D01*
X0086383Y0085703D01*
X0086370Y0085642D01*
X0086354Y0085583D01*
X0086334Y0085525D01*
X0086310Y0085468D01*
X0086283Y0085412D01*
X0086253Y0085358D01*
X0086219Y0085306D01*
X0086183Y0085257D01*
X0086143Y0085209D01*
X0086101Y0085164D01*
X0086056Y0085122D01*
X0086008Y0085082D01*
X0085959Y0085046D01*
X0085907Y0085012D01*
X0085853Y0084982D01*
X0085797Y0084955D01*
X0085740Y0084931D01*
X0085682Y0084911D01*
X0085623Y0084895D01*
X0085562Y0084882D01*
X0085501Y0084872D01*
X0085440Y0084867D01*
X0085378Y0084865D01*
X0031300Y0062229D02*
X0031300Y0060284D01*
X0031300Y0061256D02*
X0027800Y0061256D01*
X0028578Y0060284D01*
X0027800Y0057772D02*
X0027802Y0057833D01*
X0027808Y0057894D01*
X0027817Y0057954D01*
X0027831Y0058014D01*
X0027848Y0058072D01*
X0027868Y0058130D01*
X0027893Y0058186D01*
X0027920Y0058240D01*
X0027951Y0058293D01*
X0027986Y0058343D01*
X0028023Y0058392D01*
X0028063Y0058437D01*
X0028107Y0058481D01*
X0028152Y0058521D01*
X0028201Y0058558D01*
X0028251Y0058593D01*
X0028304Y0058624D01*
X0028358Y0058651D01*
X0028414Y0058676D01*
X0028472Y0058696D01*
X0028530Y0058713D01*
X0028590Y0058727D01*
X0028650Y0058736D01*
X0028711Y0058742D01*
X0028772Y0058744D01*
X0028833Y0058742D01*
X0028894Y0058736D01*
X0028954Y0058727D01*
X0029014Y0058713D01*
X0029072Y0058696D01*
X0029130Y0058676D01*
X0029186Y0058651D01*
X0029240Y0058624D01*
X0029293Y0058593D01*
X0029343Y0058558D01*
X0029392Y0058521D01*
X0029437Y0058481D01*
X0029481Y0058437D01*
X0029521Y0058392D01*
X0029558Y0058343D01*
X0029593Y0058293D01*
X0029624Y0058240D01*
X0029651Y0058186D01*
X0029676Y0058130D01*
X0029696Y0058072D01*
X0029713Y0058014D01*
X0029727Y0057954D01*
X0029736Y0057894D01*
X0029742Y0057833D01*
X0029744Y0057772D01*
X0029744Y0056800D01*
X0029744Y0057967D02*
X0031300Y0058744D01*
X0031300Y0056800D02*
X0027800Y0056800D01*
X0027800Y0057772D01*
X0025156Y0069300D02*
X0025156Y0073900D01*
X0022600Y0073900D02*
X0025156Y0069300D01*
X0022600Y0069300D02*
X0022600Y0073900D01*
X0020356Y0073900D02*
X0018822Y0073900D01*
X0018760Y0073898D01*
X0018699Y0073893D01*
X0018638Y0073883D01*
X0018577Y0073870D01*
X0018518Y0073854D01*
X0018460Y0073834D01*
X0018403Y0073810D01*
X0018347Y0073783D01*
X0018293Y0073753D01*
X0018241Y0073719D01*
X0018192Y0073682D01*
X0018144Y0073643D01*
X0018099Y0073601D01*
X0018057Y0073556D01*
X0018017Y0073508D01*
X0017981Y0073459D01*
X0017947Y0073407D01*
X0017917Y0073353D01*
X0017890Y0073297D01*
X0017866Y0073240D01*
X0017846Y0073182D01*
X0017830Y0073123D01*
X0017817Y0073062D01*
X0017807Y0073001D01*
X0017802Y0072940D01*
X0017800Y0072878D01*
X0017800Y0070322D01*
X0017802Y0070260D01*
X0017807Y0070199D01*
X0017817Y0070138D01*
X0017830Y0070077D01*
X0017846Y0070018D01*
X0017866Y0069960D01*
X0017890Y0069903D01*
X0017917Y0069847D01*
X0017947Y0069793D01*
X0017981Y0069741D01*
X0018017Y0069692D01*
X0018057Y0069644D01*
X0018099Y0069599D01*
X0018144Y0069557D01*
X0018192Y0069517D01*
X0018241Y0069481D01*
X0018293Y0069447D01*
X0018347Y0069417D01*
X0018403Y0069390D01*
X0018460Y0069366D01*
X0018518Y0069346D01*
X0018577Y0069330D01*
X0018638Y0069317D01*
X0018699Y0069307D01*
X0018760Y0069302D01*
X0018822Y0069300D01*
X0020356Y0069300D01*
X0020356Y0071856D01*
X0019589Y0071856D01*
X0019078Y0079300D02*
X0017800Y0079300D01*
X0019078Y0079300D02*
X0019148Y0079302D01*
X0019219Y0079308D01*
X0019288Y0079317D01*
X0019357Y0079331D01*
X0019426Y0079348D01*
X0019493Y0079369D01*
X0019559Y0079394D01*
X0019623Y0079422D01*
X0019686Y0079454D01*
X0019747Y0079489D01*
X0019806Y0079528D01*
X0019863Y0079569D01*
X0019917Y0079614D01*
X0019969Y0079662D01*
X0020018Y0079712D01*
X0020065Y0079766D01*
X0020108Y0079821D01*
X0020148Y0079879D01*
X0020185Y0079939D01*
X0020218Y0080001D01*
X0020248Y0080065D01*
X0020275Y0080130D01*
X0020298Y0080196D01*
X0020317Y0080264D01*
X0020332Y0080333D01*
X0020344Y0080402D01*
X0020352Y0080472D01*
X0020356Y0080543D01*
X0020356Y0080613D01*
X0020352Y0080684D01*
X0020344Y0080754D01*
X0020332Y0080823D01*
X0020317Y0080892D01*
X0020298Y0080960D01*
X0020275Y0081026D01*
X0020248Y0081091D01*
X0020218Y0081155D01*
X0020185Y0081217D01*
X0020148Y0081277D01*
X0020108Y0081335D01*
X0020065Y0081390D01*
X0020018Y0081444D01*
X0019969Y0081494D01*
X0019917Y0081542D01*
X0019863Y0081587D01*
X0019806Y0081628D01*
X0019747Y0081667D01*
X0019686Y0081702D01*
X0019623Y0081734D01*
X0019559Y0081762D01*
X0019493Y0081787D01*
X0019426Y0081808D01*
X0019357Y0081825D01*
X0019288Y0081839D01*
X0019219Y0081848D01*
X0019148Y0081854D01*
X0019078Y0081856D01*
X0019333Y0081856D02*
X0018311Y0081856D01*
X0019333Y0081856D02*
X0019396Y0081858D01*
X0019459Y0081864D01*
X0019521Y0081873D01*
X0019582Y0081887D01*
X0019643Y0081904D01*
X0019702Y0081925D01*
X0019760Y0081950D01*
X0019817Y0081978D01*
X0019871Y0082009D01*
X0019923Y0082044D01*
X0019974Y0082082D01*
X0020022Y0082123D01*
X0020067Y0082167D01*
X0020109Y0082213D01*
X0020149Y0082262D01*
X0020185Y0082313D01*
X0020218Y0082367D01*
X0020248Y0082422D01*
X0020274Y0082480D01*
X0020297Y0082538D01*
X0020316Y0082598D01*
X0020331Y0082659D01*
X0020343Y0082721D01*
X0020351Y0082784D01*
X0020355Y0082847D01*
X0020355Y0082909D01*
X0020351Y0082972D01*
X0020343Y0083035D01*
X0020331Y0083097D01*
X0020316Y0083158D01*
X0020297Y0083218D01*
X0020274Y0083276D01*
X0020248Y0083334D01*
X0020218Y0083389D01*
X0020185Y0083443D01*
X0020149Y0083494D01*
X0020109Y0083543D01*
X0020067Y0083589D01*
X0020022Y0083633D01*
X0019974Y0083674D01*
X0019923Y0083712D01*
X0019871Y0083747D01*
X0019817Y0083778D01*
X0019760Y0083806D01*
X0019702Y0083831D01*
X0019643Y0083852D01*
X0019582Y0083869D01*
X0019521Y0083883D01*
X0019459Y0083892D01*
X0019396Y0083898D01*
X0019333Y0083900D01*
X0017800Y0083900D01*
X0022044Y0083900D02*
X0023578Y0079300D01*
X0025111Y0083900D01*
X0024344Y0089300D02*
X0024344Y0091344D01*
X0025111Y0090322D02*
X0022556Y0090322D01*
X0023578Y0093900D01*
X0019333Y0093900D02*
X0020867Y0089300D01*
X0020483Y0090450D02*
X0018183Y0090450D01*
X0017800Y0089300D02*
X0019333Y0093900D01*
X0019078Y0099300D02*
X0017800Y0099300D01*
X0017800Y0103900D01*
X0019078Y0103900D01*
X0019141Y0103898D01*
X0019204Y0103892D01*
X0019266Y0103883D01*
X0019327Y0103869D01*
X0019388Y0103852D01*
X0019447Y0103831D01*
X0019505Y0103806D01*
X0019562Y0103778D01*
X0019616Y0103747D01*
X0019668Y0103712D01*
X0019719Y0103674D01*
X0019767Y0103633D01*
X0019812Y0103589D01*
X0019854Y0103543D01*
X0019894Y0103494D01*
X0019930Y0103443D01*
X0019963Y0103389D01*
X0019993Y0103334D01*
X0020019Y0103276D01*
X0020042Y0103218D01*
X0020061Y0103158D01*
X0020076Y0103097D01*
X0020088Y0103035D01*
X0020096Y0102972D01*
X0020100Y0102909D01*
X0020100Y0102847D01*
X0020096Y0102784D01*
X0020088Y0102721D01*
X0020076Y0102659D01*
X0020061Y0102598D01*
X0020042Y0102538D01*
X0020019Y0102480D01*
X0019993Y0102422D01*
X0019963Y0102367D01*
X0019930Y0102313D01*
X0019894Y0102262D01*
X0019854Y0102213D01*
X0019812Y0102167D01*
X0019767Y0102123D01*
X0019719Y0102082D01*
X0019668Y0102044D01*
X0019616Y0102009D01*
X0019562Y0101978D01*
X0019505Y0101950D01*
X0019447Y0101925D01*
X0019388Y0101904D01*
X0019327Y0101887D01*
X0019266Y0101873D01*
X0019204Y0101864D01*
X0019141Y0101858D01*
X0019078Y0101856D01*
X0017800Y0101856D01*
X0019078Y0101856D02*
X0019148Y0101854D01*
X0019219Y0101848D01*
X0019288Y0101839D01*
X0019357Y0101825D01*
X0019426Y0101808D01*
X0019493Y0101787D01*
X0019559Y0101762D01*
X0019623Y0101734D01*
X0019686Y0101702D01*
X0019747Y0101667D01*
X0019806Y0101628D01*
X0019863Y0101587D01*
X0019917Y0101542D01*
X0019969Y0101494D01*
X0020018Y0101444D01*
X0020065Y0101390D01*
X0020108Y0101335D01*
X0020148Y0101277D01*
X0020185Y0101217D01*
X0020218Y0101155D01*
X0020248Y0101091D01*
X0020275Y0101026D01*
X0020298Y0100960D01*
X0020317Y0100892D01*
X0020332Y0100823D01*
X0020344Y0100754D01*
X0020352Y0100684D01*
X0020356Y0100613D01*
X0020356Y0100543D01*
X0020352Y0100472D01*
X0020344Y0100402D01*
X0020332Y0100333D01*
X0020317Y0100264D01*
X0020298Y0100196D01*
X0020275Y0100130D01*
X0020248Y0100065D01*
X0020218Y0100001D01*
X0020185Y0099939D01*
X0020148Y0099879D01*
X0020108Y0099821D01*
X0020065Y0099766D01*
X0020018Y0099712D01*
X0019969Y0099662D01*
X0019917Y0099614D01*
X0019863Y0099569D01*
X0019806Y0099528D01*
X0019747Y0099489D01*
X0019686Y0099454D01*
X0019623Y0099422D01*
X0019559Y0099394D01*
X0019493Y0099369D01*
X0019426Y0099348D01*
X0019357Y0099331D01*
X0019288Y0099317D01*
X0019219Y0099308D01*
X0019148Y0099302D01*
X0019078Y0099300D01*
X0022083Y0100322D02*
X0023106Y0103900D01*
X0023872Y0101344D02*
X0023872Y0099300D01*
X0024639Y0100322D02*
X0022083Y0100322D01*
X0022083Y0109300D02*
X0023361Y0109300D01*
X0023431Y0109302D01*
X0023502Y0109308D01*
X0023571Y0109317D01*
X0023640Y0109331D01*
X0023709Y0109348D01*
X0023776Y0109369D01*
X0023842Y0109394D01*
X0023906Y0109422D01*
X0023969Y0109454D01*
X0024030Y0109489D01*
X0024089Y0109528D01*
X0024146Y0109569D01*
X0024200Y0109614D01*
X0024252Y0109662D01*
X0024301Y0109712D01*
X0024348Y0109766D01*
X0024391Y0109821D01*
X0024431Y0109879D01*
X0024468Y0109939D01*
X0024501Y0110001D01*
X0024531Y0110065D01*
X0024558Y0110130D01*
X0024581Y0110196D01*
X0024600Y0110264D01*
X0024615Y0110333D01*
X0024627Y0110402D01*
X0024635Y0110472D01*
X0024639Y0110543D01*
X0024639Y0110613D01*
X0024635Y0110684D01*
X0024627Y0110754D01*
X0024615Y0110823D01*
X0024600Y0110892D01*
X0024581Y0110960D01*
X0024558Y0111026D01*
X0024531Y0111091D01*
X0024501Y0111155D01*
X0024468Y0111217D01*
X0024431Y0111277D01*
X0024391Y0111335D01*
X0024348Y0111390D01*
X0024301Y0111444D01*
X0024252Y0111494D01*
X0024200Y0111542D01*
X0024146Y0111587D01*
X0024089Y0111628D01*
X0024030Y0111667D01*
X0023969Y0111702D01*
X0023906Y0111734D01*
X0023842Y0111762D01*
X0023776Y0111787D01*
X0023709Y0111808D01*
X0023640Y0111825D01*
X0023571Y0111839D01*
X0023502Y0111848D01*
X0023431Y0111854D01*
X0023361Y0111856D01*
X0023617Y0111856D02*
X0022594Y0111856D01*
X0023617Y0111856D02*
X0023680Y0111858D01*
X0023743Y0111864D01*
X0023805Y0111873D01*
X0023866Y0111887D01*
X0023927Y0111904D01*
X0023986Y0111925D01*
X0024044Y0111950D01*
X0024101Y0111978D01*
X0024155Y0112009D01*
X0024207Y0112044D01*
X0024258Y0112082D01*
X0024306Y0112123D01*
X0024351Y0112167D01*
X0024393Y0112213D01*
X0024433Y0112262D01*
X0024469Y0112313D01*
X0024502Y0112367D01*
X0024532Y0112422D01*
X0024558Y0112480D01*
X0024581Y0112538D01*
X0024600Y0112598D01*
X0024615Y0112659D01*
X0024627Y0112721D01*
X0024635Y0112784D01*
X0024639Y0112847D01*
X0024639Y0112909D01*
X0024635Y0112972D01*
X0024627Y0113035D01*
X0024615Y0113097D01*
X0024600Y0113158D01*
X0024581Y0113218D01*
X0024558Y0113276D01*
X0024532Y0113334D01*
X0024502Y0113389D01*
X0024469Y0113443D01*
X0024433Y0113494D01*
X0024393Y0113543D01*
X0024351Y0113589D01*
X0024306Y0113633D01*
X0024258Y0113674D01*
X0024207Y0113712D01*
X0024155Y0113747D01*
X0024101Y0113778D01*
X0024044Y0113806D01*
X0023986Y0113831D01*
X0023927Y0113852D01*
X0023866Y0113869D01*
X0023805Y0113883D01*
X0023743Y0113892D01*
X0023680Y0113898D01*
X0023617Y0113900D01*
X0022083Y0113900D01*
X0019078Y0113900D02*
X0017800Y0113900D01*
X0017800Y0109300D01*
X0019078Y0109300D01*
X0019148Y0109302D01*
X0019219Y0109308D01*
X0019288Y0109317D01*
X0019357Y0109331D01*
X0019426Y0109348D01*
X0019493Y0109369D01*
X0019559Y0109394D01*
X0019623Y0109422D01*
X0019686Y0109454D01*
X0019747Y0109489D01*
X0019806Y0109528D01*
X0019863Y0109569D01*
X0019917Y0109614D01*
X0019969Y0109662D01*
X0020018Y0109712D01*
X0020065Y0109766D01*
X0020108Y0109821D01*
X0020148Y0109879D01*
X0020185Y0109939D01*
X0020218Y0110001D01*
X0020248Y0110065D01*
X0020275Y0110130D01*
X0020298Y0110196D01*
X0020317Y0110264D01*
X0020332Y0110333D01*
X0020344Y0110402D01*
X0020352Y0110472D01*
X0020356Y0110543D01*
X0020356Y0110613D01*
X0020352Y0110684D01*
X0020344Y0110754D01*
X0020332Y0110823D01*
X0020317Y0110892D01*
X0020298Y0110960D01*
X0020275Y0111026D01*
X0020248Y0111091D01*
X0020218Y0111155D01*
X0020185Y0111217D01*
X0020148Y0111277D01*
X0020108Y0111335D01*
X0020065Y0111390D01*
X0020018Y0111444D01*
X0019969Y0111494D01*
X0019917Y0111542D01*
X0019863Y0111587D01*
X0019806Y0111628D01*
X0019747Y0111667D01*
X0019686Y0111702D01*
X0019623Y0111734D01*
X0019559Y0111762D01*
X0019493Y0111787D01*
X0019426Y0111808D01*
X0019357Y0111825D01*
X0019288Y0111839D01*
X0019219Y0111848D01*
X0019148Y0111854D01*
X0019078Y0111856D01*
X0017800Y0111856D01*
X0019078Y0111856D02*
X0019141Y0111858D01*
X0019204Y0111864D01*
X0019266Y0111873D01*
X0019327Y0111887D01*
X0019388Y0111904D01*
X0019447Y0111925D01*
X0019505Y0111950D01*
X0019562Y0111978D01*
X0019616Y0112009D01*
X0019668Y0112044D01*
X0019719Y0112082D01*
X0019767Y0112123D01*
X0019812Y0112167D01*
X0019854Y0112213D01*
X0019894Y0112262D01*
X0019930Y0112313D01*
X0019963Y0112367D01*
X0019993Y0112422D01*
X0020019Y0112480D01*
X0020042Y0112538D01*
X0020061Y0112598D01*
X0020076Y0112659D01*
X0020088Y0112721D01*
X0020096Y0112784D01*
X0020100Y0112847D01*
X0020100Y0112909D01*
X0020096Y0112972D01*
X0020088Y0113035D01*
X0020076Y0113097D01*
X0020061Y0113158D01*
X0020042Y0113218D01*
X0020019Y0113276D01*
X0019993Y0113334D01*
X0019963Y0113389D01*
X0019930Y0113443D01*
X0019894Y0113494D01*
X0019854Y0113543D01*
X0019812Y0113589D01*
X0019767Y0113633D01*
X0019719Y0113674D01*
X0019668Y0113712D01*
X0019616Y0113747D01*
X0019562Y0113778D01*
X0019505Y0113806D01*
X0019447Y0113831D01*
X0019388Y0113852D01*
X0019327Y0113869D01*
X0019266Y0113883D01*
X0019204Y0113892D01*
X0019141Y0113898D01*
X0019078Y0113900D01*
X0019078Y0119300D02*
X0017800Y0119300D01*
X0017800Y0123900D01*
X0019078Y0123900D01*
X0019141Y0123898D01*
X0019204Y0123892D01*
X0019266Y0123883D01*
X0019327Y0123869D01*
X0019388Y0123852D01*
X0019447Y0123831D01*
X0019505Y0123806D01*
X0019562Y0123778D01*
X0019616Y0123747D01*
X0019668Y0123712D01*
X0019719Y0123674D01*
X0019767Y0123633D01*
X0019812Y0123589D01*
X0019854Y0123543D01*
X0019894Y0123494D01*
X0019930Y0123443D01*
X0019963Y0123389D01*
X0019993Y0123334D01*
X0020019Y0123276D01*
X0020042Y0123218D01*
X0020061Y0123158D01*
X0020076Y0123097D01*
X0020088Y0123035D01*
X0020096Y0122972D01*
X0020100Y0122909D01*
X0020100Y0122847D01*
X0020096Y0122784D01*
X0020088Y0122721D01*
X0020076Y0122659D01*
X0020061Y0122598D01*
X0020042Y0122538D01*
X0020019Y0122480D01*
X0019993Y0122422D01*
X0019963Y0122367D01*
X0019930Y0122313D01*
X0019894Y0122262D01*
X0019854Y0122213D01*
X0019812Y0122167D01*
X0019767Y0122123D01*
X0019719Y0122082D01*
X0019668Y0122044D01*
X0019616Y0122009D01*
X0019562Y0121978D01*
X0019505Y0121950D01*
X0019447Y0121925D01*
X0019388Y0121904D01*
X0019327Y0121887D01*
X0019266Y0121873D01*
X0019204Y0121864D01*
X0019141Y0121858D01*
X0019078Y0121856D01*
X0017800Y0121856D01*
X0019078Y0121856D02*
X0019148Y0121854D01*
X0019219Y0121848D01*
X0019288Y0121839D01*
X0019357Y0121825D01*
X0019426Y0121808D01*
X0019493Y0121787D01*
X0019559Y0121762D01*
X0019623Y0121734D01*
X0019686Y0121702D01*
X0019747Y0121667D01*
X0019806Y0121628D01*
X0019863Y0121587D01*
X0019917Y0121542D01*
X0019969Y0121494D01*
X0020018Y0121444D01*
X0020065Y0121390D01*
X0020108Y0121335D01*
X0020148Y0121277D01*
X0020185Y0121217D01*
X0020218Y0121155D01*
X0020248Y0121091D01*
X0020275Y0121026D01*
X0020298Y0120960D01*
X0020317Y0120892D01*
X0020332Y0120823D01*
X0020344Y0120754D01*
X0020352Y0120684D01*
X0020356Y0120613D01*
X0020356Y0120543D01*
X0020352Y0120472D01*
X0020344Y0120402D01*
X0020332Y0120333D01*
X0020317Y0120264D01*
X0020298Y0120196D01*
X0020275Y0120130D01*
X0020248Y0120065D01*
X0020218Y0120001D01*
X0020185Y0119939D01*
X0020148Y0119879D01*
X0020108Y0119821D01*
X0020065Y0119766D01*
X0020018Y0119712D01*
X0019969Y0119662D01*
X0019917Y0119614D01*
X0019863Y0119569D01*
X0019806Y0119528D01*
X0019747Y0119489D01*
X0019686Y0119454D01*
X0019623Y0119422D01*
X0019559Y0119394D01*
X0019493Y0119369D01*
X0019426Y0119348D01*
X0019357Y0119331D01*
X0019288Y0119317D01*
X0019219Y0119308D01*
X0019148Y0119302D01*
X0019078Y0119300D01*
X0022083Y0119300D02*
X0024639Y0119300D01*
X0022083Y0119300D02*
X0024256Y0121856D01*
X0023489Y0123900D02*
X0023415Y0123898D01*
X0023341Y0123893D01*
X0023267Y0123883D01*
X0023194Y0123870D01*
X0023121Y0123854D01*
X0023050Y0123833D01*
X0022980Y0123809D01*
X0022911Y0123782D01*
X0022843Y0123751D01*
X0022777Y0123717D01*
X0022713Y0123680D01*
X0022651Y0123639D01*
X0022591Y0123595D01*
X0022533Y0123549D01*
X0022477Y0123499D01*
X0022424Y0123447D01*
X0022374Y0123392D01*
X0022327Y0123335D01*
X0022283Y0123275D01*
X0022241Y0123213D01*
X0022203Y0123150D01*
X0022168Y0123084D01*
X0022137Y0123017D01*
X0022109Y0122948D01*
X0022084Y0122878D01*
X0024256Y0121856D02*
X0024303Y0121903D01*
X0024347Y0121953D01*
X0024389Y0122005D01*
X0024428Y0122059D01*
X0024463Y0122115D01*
X0024496Y0122173D01*
X0024526Y0122233D01*
X0024552Y0122294D01*
X0024575Y0122357D01*
X0024594Y0122421D01*
X0024610Y0122485D01*
X0024623Y0122551D01*
X0024632Y0122617D01*
X0024637Y0122683D01*
X0024639Y0122750D01*
X0024637Y0122817D01*
X0024631Y0122884D01*
X0024622Y0122950D01*
X0024608Y0123015D01*
X0024591Y0123080D01*
X0024570Y0123143D01*
X0024545Y0123205D01*
X0024517Y0123266D01*
X0024485Y0123325D01*
X0024450Y0123382D01*
X0024411Y0123437D01*
X0024370Y0123489D01*
X0024325Y0123539D01*
X0024278Y0123586D01*
X0024228Y0123631D01*
X0024176Y0123672D01*
X0024121Y0123711D01*
X0024064Y0123746D01*
X0024005Y0123778D01*
X0023944Y0123806D01*
X0023882Y0123831D01*
X0023819Y0123852D01*
X0023754Y0123869D01*
X0023689Y0123883D01*
X0023623Y0123892D01*
X0023556Y0123898D01*
X0023489Y0123900D01*
X0023833Y0129300D02*
X0023833Y0133900D01*
X0022556Y0132878D01*
X0020483Y0130450D02*
X0018183Y0130450D01*
X0017800Y0129300D02*
X0019333Y0133900D01*
X0020867Y0129300D01*
X0022556Y0129300D02*
X0025111Y0129300D01*
X0020867Y0139300D02*
X0019333Y0143900D01*
X0017800Y0139300D01*
X0018183Y0140450D02*
X0020483Y0140450D01*
X0024728Y0139939D02*
X0024776Y0140043D01*
X0024822Y0140148D01*
X0024864Y0140254D01*
X0024903Y0140362D01*
X0024939Y0140471D01*
X0024971Y0140581D01*
X0025001Y0140692D01*
X0025026Y0140804D01*
X0025049Y0140916D01*
X0025068Y0141029D01*
X0025083Y0141143D01*
X0025095Y0141257D01*
X0025104Y0141371D01*
X0025109Y0141485D01*
X0025111Y0141600D01*
X0022555Y0141600D02*
X0022557Y0141715D01*
X0022562Y0141829D01*
X0022571Y0141943D01*
X0022583Y0142057D01*
X0022598Y0142171D01*
X0022617Y0142284D01*
X0022640Y0142396D01*
X0022665Y0142508D01*
X0022695Y0142619D01*
X0022727Y0142729D01*
X0022763Y0142838D01*
X0022802Y0142946D01*
X0022844Y0143052D01*
X0022890Y0143157D01*
X0022938Y0143261D01*
X0023833Y0143900D02*
X0023892Y0143898D01*
X0023950Y0143893D01*
X0024008Y0143884D01*
X0024065Y0143871D01*
X0024122Y0143855D01*
X0024177Y0143835D01*
X0024231Y0143812D01*
X0024283Y0143786D01*
X0024334Y0143756D01*
X0024383Y0143724D01*
X0024430Y0143688D01*
X0024474Y0143650D01*
X0024516Y0143609D01*
X0024555Y0143565D01*
X0024592Y0143519D01*
X0024625Y0143471D01*
X0024656Y0143421D01*
X0024683Y0143369D01*
X0024707Y0143316D01*
X0024728Y0143261D01*
X0024856Y0142878D02*
X0022811Y0140322D01*
X0023833Y0139300D02*
X0023892Y0139302D01*
X0023950Y0139307D01*
X0024008Y0139316D01*
X0024065Y0139329D01*
X0024122Y0139345D01*
X0024177Y0139365D01*
X0024231Y0139388D01*
X0024283Y0139414D01*
X0024334Y0139444D01*
X0024383Y0139476D01*
X0024430Y0139512D01*
X0024474Y0139550D01*
X0024516Y0139591D01*
X0024555Y0139635D01*
X0024592Y0139681D01*
X0024625Y0139729D01*
X0024656Y0139779D01*
X0024683Y0139831D01*
X0024707Y0139884D01*
X0024728Y0139939D01*
X0023833Y0139300D02*
X0023774Y0139302D01*
X0023716Y0139307D01*
X0023658Y0139316D01*
X0023601Y0139329D01*
X0023544Y0139345D01*
X0023489Y0139365D01*
X0023435Y0139388D01*
X0023383Y0139414D01*
X0023332Y0139444D01*
X0023283Y0139476D01*
X0023236Y0139512D01*
X0023192Y0139550D01*
X0023150Y0139591D01*
X0023111Y0139635D01*
X0023074Y0139681D01*
X0023041Y0139729D01*
X0023010Y0139779D01*
X0022983Y0139831D01*
X0022959Y0139884D01*
X0022938Y0139939D01*
X0025111Y0141600D02*
X0025109Y0141715D01*
X0025104Y0141829D01*
X0025095Y0141943D01*
X0025083Y0142057D01*
X0025068Y0142171D01*
X0025049Y0142284D01*
X0025026Y0142396D01*
X0025001Y0142508D01*
X0024971Y0142619D01*
X0024939Y0142729D01*
X0024903Y0142838D01*
X0024864Y0142946D01*
X0024822Y0143052D01*
X0024776Y0143157D01*
X0024728Y0143261D01*
X0023833Y0143900D02*
X0023774Y0143898D01*
X0023716Y0143893D01*
X0023658Y0143884D01*
X0023601Y0143871D01*
X0023544Y0143855D01*
X0023489Y0143835D01*
X0023435Y0143812D01*
X0023383Y0143786D01*
X0023332Y0143756D01*
X0023283Y0143724D01*
X0023236Y0143688D01*
X0023192Y0143650D01*
X0023150Y0143609D01*
X0023111Y0143565D01*
X0023074Y0143519D01*
X0023041Y0143471D01*
X0023010Y0143421D01*
X0022983Y0143369D01*
X0022959Y0143316D01*
X0022938Y0143261D01*
X0022555Y0141600D02*
X0022557Y0141485D01*
X0022562Y0141371D01*
X0022571Y0141257D01*
X0022583Y0141143D01*
X0022598Y0141029D01*
X0022617Y0140916D01*
X0022640Y0140804D01*
X0022665Y0140692D01*
X0022695Y0140581D01*
X0022727Y0140471D01*
X0022763Y0140362D01*
X0022802Y0140254D01*
X0022844Y0140148D01*
X0022890Y0140043D01*
X0022938Y0139939D01*
X0055971Y0157800D02*
X0055971Y0161300D01*
X0056944Y0161300D01*
X0057005Y0161298D01*
X0057066Y0161292D01*
X0057126Y0161283D01*
X0057186Y0161269D01*
X0057244Y0161252D01*
X0057302Y0161232D01*
X0057358Y0161207D01*
X0057412Y0161180D01*
X0057465Y0161149D01*
X0057515Y0161114D01*
X0057564Y0161077D01*
X0057609Y0161037D01*
X0057653Y0160993D01*
X0057693Y0160948D01*
X0057730Y0160899D01*
X0057765Y0160849D01*
X0057796Y0160796D01*
X0057823Y0160742D01*
X0057848Y0160686D01*
X0057868Y0160628D01*
X0057885Y0160570D01*
X0057899Y0160510D01*
X0057908Y0160450D01*
X0057914Y0160389D01*
X0057916Y0160328D01*
X0057914Y0160267D01*
X0057908Y0160206D01*
X0057899Y0160146D01*
X0057885Y0160086D01*
X0057868Y0160028D01*
X0057848Y0159970D01*
X0057823Y0159914D01*
X0057796Y0159860D01*
X0057765Y0159807D01*
X0057730Y0159757D01*
X0057693Y0159708D01*
X0057653Y0159663D01*
X0057609Y0159619D01*
X0057564Y0159579D01*
X0057515Y0159542D01*
X0057465Y0159507D01*
X0057412Y0159476D01*
X0057358Y0159449D01*
X0057302Y0159424D01*
X0057244Y0159404D01*
X0057186Y0159387D01*
X0057126Y0159373D01*
X0057066Y0159364D01*
X0057005Y0159358D01*
X0056944Y0159356D01*
X0055971Y0159356D01*
X0057138Y0159356D02*
X0057916Y0157800D01*
X0059456Y0157800D02*
X0061400Y0157800D01*
X0059456Y0157800D02*
X0061108Y0159744D01*
X0060525Y0161300D02*
X0060461Y0161298D01*
X0060397Y0161293D01*
X0060333Y0161284D01*
X0060270Y0161271D01*
X0060208Y0161254D01*
X0060147Y0161235D01*
X0060087Y0161211D01*
X0060029Y0161185D01*
X0059972Y0161155D01*
X0059917Y0161121D01*
X0059864Y0161085D01*
X0059813Y0161046D01*
X0059765Y0161004D01*
X0059718Y0160959D01*
X0059675Y0160912D01*
X0059634Y0160862D01*
X0059597Y0160810D01*
X0059562Y0160756D01*
X0059530Y0160700D01*
X0059502Y0160642D01*
X0059477Y0160583D01*
X0059456Y0160522D01*
X0061108Y0159744D02*
X0061149Y0159786D01*
X0061188Y0159830D01*
X0061223Y0159877D01*
X0061256Y0159925D01*
X0061286Y0159976D01*
X0061312Y0160028D01*
X0061335Y0160082D01*
X0061355Y0160137D01*
X0061371Y0160193D01*
X0061384Y0160250D01*
X0061393Y0160308D01*
X0061398Y0160366D01*
X0061400Y0160425D01*
X0061398Y0160482D01*
X0061393Y0160539D01*
X0061383Y0160596D01*
X0061370Y0160651D01*
X0061354Y0160706D01*
X0061333Y0160760D01*
X0061310Y0160812D01*
X0061283Y0160863D01*
X0061253Y0160911D01*
X0061219Y0160958D01*
X0061183Y0161002D01*
X0061144Y0161044D01*
X0061102Y0161083D01*
X0061058Y0161119D01*
X0061011Y0161153D01*
X0060963Y0161183D01*
X0060912Y0161210D01*
X0060860Y0161233D01*
X0060806Y0161254D01*
X0060751Y0161270D01*
X0060696Y0161283D01*
X0060639Y0161293D01*
X0060582Y0161298D01*
X0060525Y0161300D01*
D13*
X0060600Y0162600D02*
X0059100Y0162600D01*
X0058600Y0163100D01*
X0044600Y0163100D01*
X0044100Y0162600D01*
X0042600Y0162600D01*
X0042540Y0162602D01*
X0042479Y0162607D01*
X0042420Y0162616D01*
X0042361Y0162629D01*
X0042302Y0162645D01*
X0042245Y0162665D01*
X0042190Y0162688D01*
X0042135Y0162715D01*
X0042083Y0162744D01*
X0042032Y0162777D01*
X0041983Y0162813D01*
X0041937Y0162851D01*
X0041893Y0162893D01*
X0041851Y0162937D01*
X0041813Y0162983D01*
X0041777Y0163032D01*
X0041744Y0163083D01*
X0041715Y0163135D01*
X0041688Y0163190D01*
X0041665Y0163245D01*
X0041645Y0163302D01*
X0041629Y0163361D01*
X0041616Y0163420D01*
X0041607Y0163479D01*
X0041602Y0163540D01*
X0041600Y0163600D01*
X0041600Y0169600D01*
X0041602Y0169660D01*
X0041607Y0169721D01*
X0041616Y0169780D01*
X0041629Y0169839D01*
X0041645Y0169898D01*
X0041665Y0169955D01*
X0041688Y0170010D01*
X0041715Y0170065D01*
X0041744Y0170117D01*
X0041777Y0170168D01*
X0041813Y0170217D01*
X0041851Y0170263D01*
X0041893Y0170307D01*
X0041937Y0170349D01*
X0041983Y0170387D01*
X0042032Y0170423D01*
X0042083Y0170456D01*
X0042135Y0170485D01*
X0042190Y0170512D01*
X0042245Y0170535D01*
X0042302Y0170555D01*
X0042361Y0170571D01*
X0042420Y0170584D01*
X0042479Y0170593D01*
X0042540Y0170598D01*
X0042600Y0170600D01*
X0044100Y0170600D01*
X0044600Y0170100D01*
X0058600Y0170100D01*
X0059100Y0170600D01*
X0060600Y0170600D01*
X0060660Y0170598D01*
X0060721Y0170593D01*
X0060780Y0170584D01*
X0060839Y0170571D01*
X0060898Y0170555D01*
X0060955Y0170535D01*
X0061010Y0170512D01*
X0061065Y0170485D01*
X0061117Y0170456D01*
X0061168Y0170423D01*
X0061217Y0170387D01*
X0061263Y0170349D01*
X0061307Y0170307D01*
X0061349Y0170263D01*
X0061387Y0170217D01*
X0061423Y0170168D01*
X0061456Y0170117D01*
X0061485Y0170065D01*
X0061512Y0170010D01*
X0061535Y0169955D01*
X0061555Y0169898D01*
X0061571Y0169839D01*
X0061584Y0169780D01*
X0061593Y0169721D01*
X0061598Y0169660D01*
X0061600Y0169600D01*
X0061600Y0163600D01*
X0061598Y0163540D01*
X0061593Y0163479D01*
X0061584Y0163420D01*
X0061571Y0163361D01*
X0061555Y0163302D01*
X0061535Y0163245D01*
X0061512Y0163190D01*
X0061485Y0163135D01*
X0061456Y0163083D01*
X0061423Y0163032D01*
X0061387Y0162983D01*
X0061349Y0162937D01*
X0061307Y0162893D01*
X0061263Y0162851D01*
X0061217Y0162813D01*
X0061168Y0162777D01*
X0061117Y0162744D01*
X0061065Y0162715D01*
X0061010Y0162688D01*
X0060955Y0162665D01*
X0060898Y0162645D01*
X0060839Y0162629D01*
X0060780Y0162616D01*
X0060721Y0162607D01*
X0060660Y0162602D01*
X0060600Y0162600D01*
X0073100Y0169100D02*
X0073100Y0174100D01*
X0073102Y0174187D01*
X0073108Y0174274D01*
X0073117Y0174361D01*
X0073130Y0174447D01*
X0073147Y0174533D01*
X0073168Y0174618D01*
X0073193Y0174701D01*
X0073221Y0174784D01*
X0073252Y0174865D01*
X0073287Y0174945D01*
X0073326Y0175023D01*
X0073368Y0175100D01*
X0073413Y0175175D01*
X0073462Y0175247D01*
X0073513Y0175318D01*
X0073568Y0175386D01*
X0073625Y0175451D01*
X0073686Y0175514D01*
X0073749Y0175575D01*
X0073814Y0175632D01*
X0073882Y0175687D01*
X0073953Y0175738D01*
X0074025Y0175787D01*
X0074100Y0175832D01*
X0074177Y0175874D01*
X0074255Y0175913D01*
X0074335Y0175948D01*
X0074416Y0175979D01*
X0074499Y0176007D01*
X0074582Y0176032D01*
X0074667Y0176053D01*
X0074753Y0176070D01*
X0074839Y0176083D01*
X0074926Y0176092D01*
X0075013Y0176098D01*
X0075100Y0176100D01*
X0088100Y0176100D01*
X0088187Y0176098D01*
X0088274Y0176092D01*
X0088361Y0176083D01*
X0088447Y0176070D01*
X0088533Y0176053D01*
X0088618Y0176032D01*
X0088701Y0176007D01*
X0088784Y0175979D01*
X0088865Y0175948D01*
X0088945Y0175913D01*
X0089023Y0175874D01*
X0089100Y0175832D01*
X0089175Y0175787D01*
X0089247Y0175738D01*
X0089318Y0175687D01*
X0089386Y0175632D01*
X0089451Y0175575D01*
X0089514Y0175514D01*
X0089575Y0175451D01*
X0089632Y0175386D01*
X0089687Y0175318D01*
X0089738Y0175247D01*
X0089787Y0175175D01*
X0089832Y0175100D01*
X0089874Y0175023D01*
X0089913Y0174945D01*
X0089948Y0174865D01*
X0089979Y0174784D01*
X0090007Y0174701D01*
X0090032Y0174618D01*
X0090053Y0174533D01*
X0090070Y0174447D01*
X0090083Y0174361D01*
X0090092Y0174274D01*
X0090098Y0174187D01*
X0090100Y0174100D01*
X0090100Y0169100D01*
X0090098Y0169013D01*
X0090092Y0168926D01*
X0090083Y0168839D01*
X0090070Y0168753D01*
X0090053Y0168667D01*
X0090032Y0168582D01*
X0090007Y0168499D01*
X0089979Y0168416D01*
X0089948Y0168335D01*
X0089913Y0168255D01*
X0089874Y0168177D01*
X0089832Y0168100D01*
X0089787Y0168025D01*
X0089738Y0167953D01*
X0089687Y0167882D01*
X0089632Y0167814D01*
X0089575Y0167749D01*
X0089514Y0167686D01*
X0089451Y0167625D01*
X0089386Y0167568D01*
X0089318Y0167513D01*
X0089247Y0167462D01*
X0089175Y0167413D01*
X0089100Y0167368D01*
X0089023Y0167326D01*
X0088945Y0167287D01*
X0088865Y0167252D01*
X0088784Y0167221D01*
X0088701Y0167193D01*
X0088618Y0167168D01*
X0088533Y0167147D01*
X0088447Y0167130D01*
X0088361Y0167117D01*
X0088274Y0167108D01*
X0088187Y0167102D01*
X0088100Y0167100D01*
X0075100Y0167100D01*
X0075013Y0167102D01*
X0074926Y0167108D01*
X0074839Y0167117D01*
X0074753Y0167130D01*
X0074667Y0167147D01*
X0074582Y0167168D01*
X0074499Y0167193D01*
X0074416Y0167221D01*
X0074335Y0167252D01*
X0074255Y0167287D01*
X0074177Y0167326D01*
X0074100Y0167368D01*
X0074025Y0167413D01*
X0073953Y0167462D01*
X0073882Y0167513D01*
X0073814Y0167568D01*
X0073749Y0167625D01*
X0073686Y0167686D01*
X0073625Y0167749D01*
X0073568Y0167814D01*
X0073513Y0167882D01*
X0073462Y0167953D01*
X0073413Y0168025D01*
X0073368Y0168100D01*
X0073326Y0168177D01*
X0073287Y0168255D01*
X0073252Y0168335D01*
X0073221Y0168416D01*
X0073193Y0168499D01*
X0073168Y0168582D01*
X0073147Y0168667D01*
X0073130Y0168753D01*
X0073117Y0168839D01*
X0073108Y0168926D01*
X0073102Y0169013D01*
X0073100Y0169100D01*
X0075100Y0182600D02*
X0072100Y0185600D01*
X0072100Y0197600D01*
X0075100Y0200600D01*
X0089600Y0200600D01*
X0089676Y0200598D01*
X0089752Y0200592D01*
X0089827Y0200583D01*
X0089902Y0200569D01*
X0089976Y0200552D01*
X0090049Y0200531D01*
X0090121Y0200507D01*
X0090192Y0200478D01*
X0090261Y0200447D01*
X0090328Y0200412D01*
X0090393Y0200373D01*
X0090457Y0200331D01*
X0090518Y0200286D01*
X0090577Y0200238D01*
X0090633Y0200187D01*
X0090687Y0200133D01*
X0090738Y0200077D01*
X0090786Y0200018D01*
X0090831Y0199957D01*
X0090873Y0199893D01*
X0090912Y0199828D01*
X0090947Y0199761D01*
X0090978Y0199692D01*
X0091007Y0199621D01*
X0091031Y0199549D01*
X0091052Y0199476D01*
X0091069Y0199402D01*
X0091083Y0199327D01*
X0091092Y0199252D01*
X0091098Y0199176D01*
X0091100Y0199100D01*
X0091100Y0184100D01*
X0091098Y0184024D01*
X0091092Y0183948D01*
X0091083Y0183873D01*
X0091069Y0183798D01*
X0091052Y0183724D01*
X0091031Y0183651D01*
X0091007Y0183579D01*
X0090978Y0183508D01*
X0090947Y0183439D01*
X0090912Y0183372D01*
X0090873Y0183307D01*
X0090831Y0183243D01*
X0090786Y0183182D01*
X0090738Y0183123D01*
X0090687Y0183067D01*
X0090633Y0183013D01*
X0090577Y0182962D01*
X0090518Y0182914D01*
X0090457Y0182869D01*
X0090393Y0182827D01*
X0090328Y0182788D01*
X0090261Y0182753D01*
X0090192Y0182722D01*
X0090121Y0182693D01*
X0090049Y0182669D01*
X0089976Y0182648D01*
X0089902Y0182631D01*
X0089827Y0182617D01*
X0089752Y0182608D01*
X0089676Y0182602D01*
X0089600Y0182600D01*
X0075100Y0182600D01*
X0074600Y0195700D02*
X0074600Y0198200D01*
X0075900Y0197000D02*
X0073300Y0197000D01*
X0096600Y0166600D02*
X0101600Y0166600D01*
X0096600Y0166100D02*
X0096600Y0026600D01*
X0116600Y0026600D01*
X0116600Y0166600D01*
X0111600Y0166600D01*
X0111598Y0166460D01*
X0111592Y0166320D01*
X0111582Y0166180D01*
X0111569Y0166040D01*
X0111551Y0165901D01*
X0111529Y0165762D01*
X0111504Y0165625D01*
X0111475Y0165487D01*
X0111442Y0165351D01*
X0111405Y0165216D01*
X0111364Y0165082D01*
X0111319Y0164949D01*
X0111271Y0164817D01*
X0111219Y0164687D01*
X0111164Y0164558D01*
X0111105Y0164431D01*
X0111042Y0164305D01*
X0110976Y0164181D01*
X0110907Y0164060D01*
X0110834Y0163940D01*
X0110757Y0163822D01*
X0110678Y0163707D01*
X0110595Y0163593D01*
X0110509Y0163483D01*
X0110420Y0163374D01*
X0110328Y0163268D01*
X0110233Y0163165D01*
X0110136Y0163064D01*
X0110035Y0162967D01*
X0109932Y0162872D01*
X0109826Y0162780D01*
X0109717Y0162691D01*
X0109607Y0162605D01*
X0109493Y0162522D01*
X0109378Y0162443D01*
X0109260Y0162366D01*
X0109140Y0162293D01*
X0109019Y0162224D01*
X0108895Y0162158D01*
X0108769Y0162095D01*
X0108642Y0162036D01*
X0108513Y0161981D01*
X0108383Y0161929D01*
X0108251Y0161881D01*
X0108118Y0161836D01*
X0107984Y0161795D01*
X0107849Y0161758D01*
X0107713Y0161725D01*
X0107575Y0161696D01*
X0107438Y0161671D01*
X0107299Y0161649D01*
X0107160Y0161631D01*
X0107020Y0161618D01*
X0106880Y0161608D01*
X0106740Y0161602D01*
X0106600Y0161600D01*
X0106460Y0161602D01*
X0106320Y0161608D01*
X0106180Y0161618D01*
X0106040Y0161631D01*
X0105901Y0161649D01*
X0105762Y0161671D01*
X0105625Y0161696D01*
X0105487Y0161725D01*
X0105351Y0161758D01*
X0105216Y0161795D01*
X0105082Y0161836D01*
X0104949Y0161881D01*
X0104817Y0161929D01*
X0104687Y0161981D01*
X0104558Y0162036D01*
X0104431Y0162095D01*
X0104305Y0162158D01*
X0104181Y0162224D01*
X0104060Y0162293D01*
X0103940Y0162366D01*
X0103822Y0162443D01*
X0103707Y0162522D01*
X0103593Y0162605D01*
X0103483Y0162691D01*
X0103374Y0162780D01*
X0103268Y0162872D01*
X0103165Y0162967D01*
X0103064Y0163064D01*
X0102967Y0163165D01*
X0102872Y0163268D01*
X0102780Y0163374D01*
X0102691Y0163483D01*
X0102605Y0163593D01*
X0102522Y0163707D01*
X0102443Y0163822D01*
X0102366Y0163940D01*
X0102293Y0164060D01*
X0102224Y0164181D01*
X0102158Y0164305D01*
X0102095Y0164431D01*
X0102036Y0164558D01*
X0101981Y0164687D01*
X0101929Y0164817D01*
X0101881Y0164949D01*
X0101836Y0165082D01*
X0101795Y0165216D01*
X0101758Y0165351D01*
X0101725Y0165487D01*
X0101696Y0165625D01*
X0101671Y0165762D01*
X0101649Y0165901D01*
X0101631Y0166040D01*
X0101618Y0166180D01*
X0101608Y0166320D01*
X0101602Y0166460D01*
X0101600Y0166600D01*
X0124671Y0186135D02*
X0124671Y0203065D01*
X0158529Y0203065D01*
X0158529Y0186135D01*
X0124671Y0186135D01*
X0128600Y0182600D02*
X0133600Y0182600D01*
X0133687Y0182598D01*
X0133774Y0182592D01*
X0133861Y0182583D01*
X0133947Y0182570D01*
X0134033Y0182553D01*
X0134118Y0182532D01*
X0134201Y0182507D01*
X0134284Y0182479D01*
X0134365Y0182448D01*
X0134445Y0182413D01*
X0134523Y0182374D01*
X0134600Y0182332D01*
X0134675Y0182287D01*
X0134747Y0182238D01*
X0134818Y0182187D01*
X0134886Y0182132D01*
X0134951Y0182075D01*
X0135014Y0182014D01*
X0135075Y0181951D01*
X0135132Y0181886D01*
X0135187Y0181818D01*
X0135238Y0181747D01*
X0135287Y0181675D01*
X0135332Y0181600D01*
X0135374Y0181523D01*
X0135413Y0181445D01*
X0135448Y0181365D01*
X0135479Y0181284D01*
X0135507Y0181201D01*
X0135532Y0181118D01*
X0135553Y0181033D01*
X0135570Y0180947D01*
X0135583Y0180861D01*
X0135592Y0180774D01*
X0135598Y0180687D01*
X0135600Y0180600D01*
X0135600Y0167600D01*
X0135598Y0167513D01*
X0135592Y0167426D01*
X0135583Y0167339D01*
X0135570Y0167253D01*
X0135553Y0167167D01*
X0135532Y0167082D01*
X0135507Y0166999D01*
X0135479Y0166916D01*
X0135448Y0166835D01*
X0135413Y0166755D01*
X0135374Y0166677D01*
X0135332Y0166600D01*
X0135287Y0166525D01*
X0135238Y0166453D01*
X0135187Y0166382D01*
X0135132Y0166314D01*
X0135075Y0166249D01*
X0135014Y0166186D01*
X0134951Y0166125D01*
X0134886Y0166068D01*
X0134818Y0166013D01*
X0134747Y0165962D01*
X0134675Y0165913D01*
X0134600Y0165868D01*
X0134523Y0165826D01*
X0134445Y0165787D01*
X0134365Y0165752D01*
X0134284Y0165721D01*
X0134201Y0165693D01*
X0134118Y0165668D01*
X0134033Y0165647D01*
X0133947Y0165630D01*
X0133861Y0165617D01*
X0133774Y0165608D01*
X0133687Y0165602D01*
X0133600Y0165600D01*
X0128600Y0165600D01*
X0128513Y0165602D01*
X0128426Y0165608D01*
X0128339Y0165617D01*
X0128253Y0165630D01*
X0128167Y0165647D01*
X0128082Y0165668D01*
X0127999Y0165693D01*
X0127916Y0165721D01*
X0127835Y0165752D01*
X0127755Y0165787D01*
X0127677Y0165826D01*
X0127600Y0165868D01*
X0127525Y0165913D01*
X0127453Y0165962D01*
X0127382Y0166013D01*
X0127314Y0166068D01*
X0127249Y0166125D01*
X0127186Y0166186D01*
X0127125Y0166249D01*
X0127068Y0166314D01*
X0127013Y0166382D01*
X0126962Y0166453D01*
X0126913Y0166525D01*
X0126868Y0166600D01*
X0126826Y0166677D01*
X0126787Y0166755D01*
X0126752Y0166835D01*
X0126721Y0166916D01*
X0126693Y0166999D01*
X0126668Y0167082D01*
X0126647Y0167167D01*
X0126630Y0167253D01*
X0126617Y0167339D01*
X0126608Y0167426D01*
X0126602Y0167513D01*
X0126600Y0167600D01*
X0126600Y0180600D01*
X0126602Y0180687D01*
X0126608Y0180774D01*
X0126617Y0180861D01*
X0126630Y0180947D01*
X0126647Y0181033D01*
X0126668Y0181118D01*
X0126693Y0181201D01*
X0126721Y0181284D01*
X0126752Y0181365D01*
X0126787Y0181445D01*
X0126826Y0181523D01*
X0126868Y0181600D01*
X0126913Y0181675D01*
X0126962Y0181747D01*
X0127013Y0181818D01*
X0127068Y0181886D01*
X0127125Y0181951D01*
X0127186Y0182014D01*
X0127249Y0182075D01*
X0127314Y0182132D01*
X0127382Y0182187D01*
X0127453Y0182238D01*
X0127525Y0182287D01*
X0127600Y0182332D01*
X0127677Y0182374D01*
X0127755Y0182413D01*
X0127835Y0182448D01*
X0127916Y0182479D01*
X0127999Y0182507D01*
X0128082Y0182532D01*
X0128167Y0182553D01*
X0128253Y0182570D01*
X0128339Y0182583D01*
X0128426Y0182592D01*
X0128513Y0182598D01*
X0128600Y0182600D01*
X0134100Y0165100D02*
X0139100Y0165100D01*
X0139187Y0165098D01*
X0139274Y0165092D01*
X0139361Y0165083D01*
X0139447Y0165070D01*
X0139533Y0165053D01*
X0139618Y0165032D01*
X0139701Y0165007D01*
X0139784Y0164979D01*
X0139865Y0164948D01*
X0139945Y0164913D01*
X0140023Y0164874D01*
X0140100Y0164832D01*
X0140175Y0164787D01*
X0140247Y0164738D01*
X0140318Y0164687D01*
X0140386Y0164632D01*
X0140451Y0164575D01*
X0140514Y0164514D01*
X0140575Y0164451D01*
X0140632Y0164386D01*
X0140687Y0164318D01*
X0140738Y0164247D01*
X0140787Y0164175D01*
X0140832Y0164100D01*
X0140874Y0164023D01*
X0140913Y0163945D01*
X0140948Y0163865D01*
X0140979Y0163784D01*
X0141007Y0163701D01*
X0141032Y0163618D01*
X0141053Y0163533D01*
X0141070Y0163447D01*
X0141083Y0163361D01*
X0141092Y0163274D01*
X0141098Y0163187D01*
X0141100Y0163100D01*
X0141100Y0150100D01*
X0141098Y0150013D01*
X0141092Y0149926D01*
X0141083Y0149839D01*
X0141070Y0149753D01*
X0141053Y0149667D01*
X0141032Y0149582D01*
X0141007Y0149499D01*
X0140979Y0149416D01*
X0140948Y0149335D01*
X0140913Y0149255D01*
X0140874Y0149177D01*
X0140832Y0149100D01*
X0140787Y0149025D01*
X0140738Y0148953D01*
X0140687Y0148882D01*
X0140632Y0148814D01*
X0140575Y0148749D01*
X0140514Y0148686D01*
X0140451Y0148625D01*
X0140386Y0148568D01*
X0140318Y0148513D01*
X0140247Y0148462D01*
X0140175Y0148413D01*
X0140100Y0148368D01*
X0140023Y0148326D01*
X0139945Y0148287D01*
X0139865Y0148252D01*
X0139784Y0148221D01*
X0139701Y0148193D01*
X0139618Y0148168D01*
X0139533Y0148147D01*
X0139447Y0148130D01*
X0139361Y0148117D01*
X0139274Y0148108D01*
X0139187Y0148102D01*
X0139100Y0148100D01*
X0134100Y0148100D01*
X0134013Y0148102D01*
X0133926Y0148108D01*
X0133839Y0148117D01*
X0133753Y0148130D01*
X0133667Y0148147D01*
X0133582Y0148168D01*
X0133499Y0148193D01*
X0133416Y0148221D01*
X0133335Y0148252D01*
X0133255Y0148287D01*
X0133177Y0148326D01*
X0133100Y0148368D01*
X0133025Y0148413D01*
X0132953Y0148462D01*
X0132882Y0148513D01*
X0132814Y0148568D01*
X0132749Y0148625D01*
X0132686Y0148686D01*
X0132625Y0148749D01*
X0132568Y0148814D01*
X0132513Y0148882D01*
X0132462Y0148953D01*
X0132413Y0149025D01*
X0132368Y0149100D01*
X0132326Y0149177D01*
X0132287Y0149255D01*
X0132252Y0149335D01*
X0132221Y0149416D01*
X0132193Y0149499D01*
X0132168Y0149582D01*
X0132147Y0149667D01*
X0132130Y0149753D01*
X0132117Y0149839D01*
X0132108Y0149926D01*
X0132102Y0150013D01*
X0132100Y0150100D01*
X0132100Y0163100D01*
X0132102Y0163187D01*
X0132108Y0163274D01*
X0132117Y0163361D01*
X0132130Y0163447D01*
X0132147Y0163533D01*
X0132168Y0163618D01*
X0132193Y0163701D01*
X0132221Y0163784D01*
X0132252Y0163865D01*
X0132287Y0163945D01*
X0132326Y0164023D01*
X0132368Y0164100D01*
X0132413Y0164175D01*
X0132462Y0164247D01*
X0132513Y0164318D01*
X0132568Y0164386D01*
X0132625Y0164451D01*
X0132686Y0164514D01*
X0132749Y0164575D01*
X0132814Y0164632D01*
X0132882Y0164687D01*
X0132953Y0164738D01*
X0133025Y0164787D01*
X0133100Y0164832D01*
X0133177Y0164874D01*
X0133255Y0164913D01*
X0133335Y0164948D01*
X0133416Y0164979D01*
X0133499Y0165007D01*
X0133582Y0165032D01*
X0133667Y0165053D01*
X0133753Y0165070D01*
X0133839Y0165083D01*
X0133926Y0165092D01*
X0134013Y0165098D01*
X0134100Y0165100D01*
X0147600Y0159100D02*
X0147600Y0157600D01*
X0147602Y0157540D01*
X0147607Y0157479D01*
X0147616Y0157420D01*
X0147629Y0157361D01*
X0147645Y0157302D01*
X0147665Y0157245D01*
X0147688Y0157190D01*
X0147715Y0157135D01*
X0147744Y0157083D01*
X0147777Y0157032D01*
X0147813Y0156983D01*
X0147851Y0156937D01*
X0147893Y0156893D01*
X0147937Y0156851D01*
X0147983Y0156813D01*
X0148032Y0156777D01*
X0148083Y0156744D01*
X0148135Y0156715D01*
X0148190Y0156688D01*
X0148245Y0156665D01*
X0148302Y0156645D01*
X0148361Y0156629D01*
X0148420Y0156616D01*
X0148479Y0156607D01*
X0148540Y0156602D01*
X0148600Y0156600D01*
X0154600Y0156600D01*
X0154660Y0156602D01*
X0154721Y0156607D01*
X0154780Y0156616D01*
X0154839Y0156629D01*
X0154898Y0156645D01*
X0154955Y0156665D01*
X0155010Y0156688D01*
X0155065Y0156715D01*
X0155117Y0156744D01*
X0155168Y0156777D01*
X0155217Y0156813D01*
X0155263Y0156851D01*
X0155307Y0156893D01*
X0155349Y0156937D01*
X0155387Y0156983D01*
X0155423Y0157032D01*
X0155456Y0157083D01*
X0155485Y0157135D01*
X0155512Y0157190D01*
X0155535Y0157245D01*
X0155555Y0157302D01*
X0155571Y0157361D01*
X0155584Y0157420D01*
X0155593Y0157479D01*
X0155598Y0157540D01*
X0155600Y0157600D01*
X0155600Y0159100D01*
X0155100Y0159600D01*
X0155100Y0173600D01*
X0155600Y0174100D01*
X0155600Y0175600D01*
X0155598Y0175660D01*
X0155593Y0175721D01*
X0155584Y0175780D01*
X0155571Y0175839D01*
X0155555Y0175898D01*
X0155535Y0175955D01*
X0155512Y0176010D01*
X0155485Y0176065D01*
X0155456Y0176117D01*
X0155423Y0176168D01*
X0155387Y0176217D01*
X0155349Y0176263D01*
X0155307Y0176307D01*
X0155263Y0176349D01*
X0155217Y0176387D01*
X0155168Y0176423D01*
X0155117Y0176456D01*
X0155065Y0176485D01*
X0155010Y0176512D01*
X0154955Y0176535D01*
X0154898Y0176555D01*
X0154839Y0176571D01*
X0154780Y0176584D01*
X0154721Y0176593D01*
X0154660Y0176598D01*
X0154600Y0176600D01*
X0148600Y0176600D01*
X0148540Y0176598D01*
X0148479Y0176593D01*
X0148420Y0176584D01*
X0148361Y0176571D01*
X0148302Y0176555D01*
X0148245Y0176535D01*
X0148190Y0176512D01*
X0148135Y0176485D01*
X0148083Y0176456D01*
X0148032Y0176423D01*
X0147983Y0176387D01*
X0147937Y0176349D01*
X0147893Y0176307D01*
X0147851Y0176263D01*
X0147813Y0176217D01*
X0147777Y0176168D01*
X0147744Y0176117D01*
X0147715Y0176065D01*
X0147688Y0176010D01*
X0147665Y0175955D01*
X0147645Y0175898D01*
X0147629Y0175839D01*
X0147616Y0175780D01*
X0147607Y0175721D01*
X0147602Y0175660D01*
X0147600Y0175600D01*
X0147600Y0174100D01*
X0148100Y0173600D01*
X0148100Y0159600D01*
X0147600Y0159100D01*
X0164400Y0161389D02*
X0168667Y0161389D01*
X0166533Y0159256D02*
X0166533Y0163522D01*
X0177600Y0151600D02*
X0177598Y0151446D01*
X0177592Y0151292D01*
X0177582Y0151138D01*
X0177568Y0150984D01*
X0177551Y0150831D01*
X0177529Y0150679D01*
X0177503Y0150527D01*
X0177474Y0150375D01*
X0177440Y0150225D01*
X0177403Y0150075D01*
X0177362Y0149927D01*
X0177317Y0149779D01*
X0177268Y0149633D01*
X0177216Y0149488D01*
X0177160Y0149345D01*
X0177100Y0149202D01*
X0177037Y0149062D01*
X0176970Y0148923D01*
X0176899Y0148786D01*
X0176825Y0148651D01*
X0176748Y0148518D01*
X0176667Y0148386D01*
X0176583Y0148257D01*
X0176495Y0148130D01*
X0176404Y0148006D01*
X0176311Y0147884D01*
X0176213Y0147764D01*
X0176113Y0147647D01*
X0176010Y0147532D01*
X0175904Y0147420D01*
X0175796Y0147311D01*
X0175684Y0147205D01*
X0175570Y0147101D01*
X0175453Y0147001D01*
X0175334Y0146903D01*
X0175212Y0146809D01*
X0175087Y0146718D01*
X0165600Y0151600D02*
X0165602Y0151752D01*
X0165608Y0151903D01*
X0165617Y0152054D01*
X0165631Y0152206D01*
X0165648Y0152356D01*
X0165669Y0152506D01*
X0165694Y0152656D01*
X0165722Y0152805D01*
X0165755Y0152953D01*
X0165791Y0153100D01*
X0165830Y0153247D01*
X0165874Y0153392D01*
X0165921Y0153536D01*
X0165972Y0153679D01*
X0166026Y0153820D01*
X0166084Y0153961D01*
X0166145Y0154099D01*
X0166210Y0154236D01*
X0166279Y0154372D01*
X0166350Y0154505D01*
X0166425Y0154637D01*
X0166504Y0154767D01*
X0166585Y0154894D01*
X0166670Y0155020D01*
X0166758Y0155144D01*
X0166849Y0155265D01*
X0166943Y0155384D01*
X0167041Y0155500D01*
X0167141Y0155614D01*
X0167243Y0155726D01*
X0167349Y0155834D01*
X0167457Y0155940D01*
X0167568Y0156044D01*
X0167682Y0156144D01*
X0167798Y0156242D01*
X0167917Y0156336D01*
X0165600Y0151600D02*
X0165602Y0151448D01*
X0165608Y0151297D01*
X0165617Y0151146D01*
X0165631Y0150994D01*
X0165648Y0150844D01*
X0165669Y0150694D01*
X0165694Y0150544D01*
X0165722Y0150395D01*
X0165755Y0150247D01*
X0165791Y0150100D01*
X0165830Y0149953D01*
X0165874Y0149808D01*
X0165921Y0149664D01*
X0165972Y0149521D01*
X0166026Y0149380D01*
X0166084Y0149239D01*
X0166145Y0149101D01*
X0166210Y0148964D01*
X0166279Y0148828D01*
X0166350Y0148695D01*
X0166425Y0148563D01*
X0166504Y0148433D01*
X0166585Y0148306D01*
X0166670Y0148180D01*
X0166758Y0148056D01*
X0166849Y0147935D01*
X0166943Y0147816D01*
X0167041Y0147700D01*
X0167141Y0147586D01*
X0167243Y0147474D01*
X0167349Y0147366D01*
X0167457Y0147260D01*
X0167568Y0147156D01*
X0167682Y0147056D01*
X0167798Y0146958D01*
X0167917Y0146864D01*
X0177600Y0151600D02*
X0177598Y0151750D01*
X0177592Y0151901D01*
X0177583Y0152051D01*
X0177570Y0152200D01*
X0177553Y0152350D01*
X0177532Y0152499D01*
X0177508Y0152647D01*
X0177480Y0152795D01*
X0177448Y0152942D01*
X0177413Y0153088D01*
X0177373Y0153233D01*
X0177331Y0153377D01*
X0177284Y0153520D01*
X0177234Y0153662D01*
X0177181Y0153803D01*
X0177124Y0153942D01*
X0177064Y0154080D01*
X0177000Y0154216D01*
X0176933Y0154350D01*
X0176862Y0154483D01*
X0176788Y0154614D01*
X0176711Y0154743D01*
X0176630Y0154870D01*
X0176547Y0154995D01*
X0176460Y0155118D01*
X0176371Y0155239D01*
X0176278Y0155357D01*
X0176182Y0155473D01*
X0176084Y0155587D01*
X0175983Y0155698D01*
X0175878Y0155807D01*
X0175772Y0155912D01*
X0175662Y0156016D01*
X0175550Y0156116D01*
X0175436Y0156214D01*
X0175319Y0156308D01*
X0175200Y0156400D01*
X0153100Y0203100D02*
X0152600Y0203100D01*
X0152600Y0207600D01*
X0144600Y0207600D01*
X0144600Y0203600D01*
X0147600Y0086100D02*
X0135600Y0086100D01*
X0132600Y0083100D01*
X0132600Y0068600D01*
X0132602Y0068524D01*
X0132608Y0068448D01*
X0132617Y0068373D01*
X0132631Y0068298D01*
X0132648Y0068224D01*
X0132669Y0068151D01*
X0132693Y0068079D01*
X0132722Y0068008D01*
X0132753Y0067939D01*
X0132788Y0067872D01*
X0132827Y0067807D01*
X0132869Y0067743D01*
X0132914Y0067682D01*
X0132962Y0067623D01*
X0133013Y0067567D01*
X0133067Y0067513D01*
X0133123Y0067462D01*
X0133182Y0067414D01*
X0133243Y0067369D01*
X0133307Y0067327D01*
X0133372Y0067288D01*
X0133439Y0067253D01*
X0133508Y0067222D01*
X0133579Y0067193D01*
X0133651Y0067169D01*
X0133724Y0067148D01*
X0133798Y0067131D01*
X0133873Y0067117D01*
X0133948Y0067108D01*
X0134024Y0067102D01*
X0134100Y0067100D01*
X0149100Y0067100D01*
X0149176Y0067102D01*
X0149252Y0067108D01*
X0149327Y0067117D01*
X0149402Y0067131D01*
X0149476Y0067148D01*
X0149549Y0067169D01*
X0149621Y0067193D01*
X0149692Y0067222D01*
X0149761Y0067253D01*
X0149828Y0067288D01*
X0149893Y0067327D01*
X0149957Y0067369D01*
X0150018Y0067414D01*
X0150077Y0067462D01*
X0150133Y0067513D01*
X0150187Y0067567D01*
X0150238Y0067623D01*
X0150286Y0067682D01*
X0150331Y0067743D01*
X0150373Y0067807D01*
X0150412Y0067872D01*
X0150447Y0067939D01*
X0150478Y0068008D01*
X0150507Y0068079D01*
X0150531Y0068151D01*
X0150552Y0068224D01*
X0150569Y0068298D01*
X0150583Y0068373D01*
X0150592Y0068448D01*
X0150598Y0068524D01*
X0150600Y0068600D01*
X0150600Y0083100D01*
X0147600Y0086100D01*
X0147000Y0084900D02*
X0147000Y0082300D01*
X0148200Y0083600D02*
X0145700Y0083600D01*
X0081100Y0043100D02*
X0081100Y0030100D01*
X0081098Y0030013D01*
X0081092Y0029926D01*
X0081083Y0029839D01*
X0081070Y0029753D01*
X0081053Y0029667D01*
X0081032Y0029582D01*
X0081007Y0029499D01*
X0080979Y0029416D01*
X0080948Y0029335D01*
X0080913Y0029255D01*
X0080874Y0029177D01*
X0080832Y0029100D01*
X0080787Y0029025D01*
X0080738Y0028953D01*
X0080687Y0028882D01*
X0080632Y0028814D01*
X0080575Y0028749D01*
X0080514Y0028686D01*
X0080451Y0028625D01*
X0080386Y0028568D01*
X0080318Y0028513D01*
X0080247Y0028462D01*
X0080175Y0028413D01*
X0080100Y0028368D01*
X0080023Y0028326D01*
X0079945Y0028287D01*
X0079865Y0028252D01*
X0079784Y0028221D01*
X0079701Y0028193D01*
X0079618Y0028168D01*
X0079533Y0028147D01*
X0079447Y0028130D01*
X0079361Y0028117D01*
X0079274Y0028108D01*
X0079187Y0028102D01*
X0079100Y0028100D01*
X0074100Y0028100D01*
X0074013Y0028102D01*
X0073926Y0028108D01*
X0073839Y0028117D01*
X0073753Y0028130D01*
X0073667Y0028147D01*
X0073582Y0028168D01*
X0073499Y0028193D01*
X0073416Y0028221D01*
X0073335Y0028252D01*
X0073255Y0028287D01*
X0073177Y0028326D01*
X0073100Y0028368D01*
X0073025Y0028413D01*
X0072953Y0028462D01*
X0072882Y0028513D01*
X0072814Y0028568D01*
X0072749Y0028625D01*
X0072686Y0028686D01*
X0072625Y0028749D01*
X0072568Y0028814D01*
X0072513Y0028882D01*
X0072462Y0028953D01*
X0072413Y0029025D01*
X0072368Y0029100D01*
X0072326Y0029177D01*
X0072287Y0029255D01*
X0072252Y0029335D01*
X0072221Y0029416D01*
X0072193Y0029499D01*
X0072168Y0029582D01*
X0072147Y0029667D01*
X0072130Y0029753D01*
X0072117Y0029839D01*
X0072108Y0029926D01*
X0072102Y0030013D01*
X0072100Y0030100D01*
X0072100Y0043100D01*
X0072102Y0043187D01*
X0072108Y0043274D01*
X0072117Y0043361D01*
X0072130Y0043447D01*
X0072147Y0043533D01*
X0072168Y0043618D01*
X0072193Y0043701D01*
X0072221Y0043784D01*
X0072252Y0043865D01*
X0072287Y0043945D01*
X0072326Y0044023D01*
X0072368Y0044100D01*
X0072413Y0044175D01*
X0072462Y0044247D01*
X0072513Y0044318D01*
X0072568Y0044386D01*
X0072625Y0044451D01*
X0072686Y0044514D01*
X0072749Y0044575D01*
X0072814Y0044632D01*
X0072882Y0044687D01*
X0072953Y0044738D01*
X0073025Y0044787D01*
X0073100Y0044832D01*
X0073177Y0044874D01*
X0073255Y0044913D01*
X0073335Y0044948D01*
X0073416Y0044979D01*
X0073499Y0045007D01*
X0073582Y0045032D01*
X0073667Y0045053D01*
X0073753Y0045070D01*
X0073839Y0045083D01*
X0073926Y0045092D01*
X0074013Y0045098D01*
X0074100Y0045100D01*
X0079100Y0045100D01*
X0079187Y0045098D01*
X0079274Y0045092D01*
X0079361Y0045083D01*
X0079447Y0045070D01*
X0079533Y0045053D01*
X0079618Y0045032D01*
X0079701Y0045007D01*
X0079784Y0044979D01*
X0079865Y0044948D01*
X0079945Y0044913D01*
X0080023Y0044874D01*
X0080100Y0044832D01*
X0080175Y0044787D01*
X0080247Y0044738D01*
X0080318Y0044687D01*
X0080386Y0044632D01*
X0080451Y0044575D01*
X0080514Y0044514D01*
X0080575Y0044451D01*
X0080632Y0044386D01*
X0080687Y0044318D01*
X0080738Y0044247D01*
X0080787Y0044175D01*
X0080832Y0044100D01*
X0080874Y0044023D01*
X0080913Y0043945D01*
X0080948Y0043865D01*
X0080979Y0043784D01*
X0081007Y0043701D01*
X0081032Y0043618D01*
X0081053Y0043533D01*
X0081070Y0043447D01*
X0081083Y0043361D01*
X0081092Y0043274D01*
X0081098Y0043187D01*
X0081100Y0043100D01*
X0097600Y0020600D02*
X0099100Y0020600D01*
X0099600Y0020100D01*
X0113600Y0020100D01*
X0114100Y0020600D01*
X0115600Y0020600D01*
X0115660Y0020598D01*
X0115721Y0020593D01*
X0115780Y0020584D01*
X0115839Y0020571D01*
X0115898Y0020555D01*
X0115955Y0020535D01*
X0116010Y0020512D01*
X0116065Y0020485D01*
X0116117Y0020456D01*
X0116168Y0020423D01*
X0116217Y0020387D01*
X0116263Y0020349D01*
X0116307Y0020307D01*
X0116349Y0020263D01*
X0116387Y0020217D01*
X0116423Y0020168D01*
X0116456Y0020117D01*
X0116485Y0020065D01*
X0116512Y0020010D01*
X0116535Y0019955D01*
X0116555Y0019898D01*
X0116571Y0019839D01*
X0116584Y0019780D01*
X0116593Y0019721D01*
X0116598Y0019660D01*
X0116600Y0019600D01*
X0116600Y0013600D01*
X0116598Y0013540D01*
X0116593Y0013479D01*
X0116584Y0013420D01*
X0116571Y0013361D01*
X0116555Y0013302D01*
X0116535Y0013245D01*
X0116512Y0013190D01*
X0116485Y0013135D01*
X0116456Y0013083D01*
X0116423Y0013032D01*
X0116387Y0012983D01*
X0116349Y0012937D01*
X0116307Y0012893D01*
X0116263Y0012851D01*
X0116217Y0012813D01*
X0116168Y0012777D01*
X0116117Y0012744D01*
X0116065Y0012715D01*
X0116010Y0012688D01*
X0115955Y0012665D01*
X0115898Y0012645D01*
X0115839Y0012629D01*
X0115780Y0012616D01*
X0115721Y0012607D01*
X0115660Y0012602D01*
X0115600Y0012600D01*
X0114100Y0012600D01*
X0113600Y0013100D01*
X0099600Y0013100D01*
X0099100Y0012600D01*
X0097600Y0012600D01*
X0097540Y0012602D01*
X0097479Y0012607D01*
X0097420Y0012616D01*
X0097361Y0012629D01*
X0097302Y0012645D01*
X0097245Y0012665D01*
X0097190Y0012688D01*
X0097135Y0012715D01*
X0097083Y0012744D01*
X0097032Y0012777D01*
X0096983Y0012813D01*
X0096937Y0012851D01*
X0096893Y0012893D01*
X0096851Y0012937D01*
X0096813Y0012983D01*
X0096777Y0013032D01*
X0096744Y0013083D01*
X0096715Y0013135D01*
X0096688Y0013190D01*
X0096665Y0013245D01*
X0096645Y0013302D01*
X0096629Y0013361D01*
X0096616Y0013420D01*
X0096607Y0013479D01*
X0096602Y0013540D01*
X0096600Y0013600D01*
X0096600Y0019600D01*
X0096602Y0019660D01*
X0096607Y0019721D01*
X0096616Y0019780D01*
X0096629Y0019839D01*
X0096645Y0019898D01*
X0096665Y0019955D01*
X0096688Y0020010D01*
X0096715Y0020065D01*
X0096744Y0020117D01*
X0096777Y0020168D01*
X0096813Y0020217D01*
X0096851Y0020263D01*
X0096893Y0020307D01*
X0096937Y0020349D01*
X0096983Y0020387D01*
X0097032Y0020423D01*
X0097083Y0020456D01*
X0097135Y0020485D01*
X0097190Y0020512D01*
X0097245Y0020535D01*
X0097302Y0020555D01*
X0097361Y0020571D01*
X0097420Y0020584D01*
X0097479Y0020593D01*
X0097540Y0020598D01*
X0097600Y0020600D01*
X0139400Y0012389D02*
X0143667Y0012389D01*
X0141533Y0010256D02*
X0141533Y0014522D01*
X0151600Y0022600D02*
X0151754Y0022598D01*
X0151908Y0022592D01*
X0152062Y0022582D01*
X0152216Y0022568D01*
X0152369Y0022551D01*
X0152521Y0022529D01*
X0152673Y0022503D01*
X0152825Y0022474D01*
X0152975Y0022440D01*
X0153125Y0022403D01*
X0153273Y0022362D01*
X0153421Y0022317D01*
X0153567Y0022268D01*
X0153712Y0022216D01*
X0153855Y0022160D01*
X0153998Y0022100D01*
X0154138Y0022037D01*
X0154277Y0021970D01*
X0154414Y0021899D01*
X0154549Y0021825D01*
X0154682Y0021748D01*
X0154814Y0021667D01*
X0154943Y0021583D01*
X0155070Y0021495D01*
X0155194Y0021404D01*
X0155316Y0021311D01*
X0155436Y0021213D01*
X0155553Y0021113D01*
X0155668Y0021010D01*
X0155780Y0020904D01*
X0155889Y0020796D01*
X0155995Y0020684D01*
X0156099Y0020570D01*
X0156199Y0020453D01*
X0156297Y0020334D01*
X0156391Y0020212D01*
X0156482Y0020087D01*
X0151600Y0010600D02*
X0151448Y0010602D01*
X0151297Y0010608D01*
X0151146Y0010617D01*
X0150994Y0010631D01*
X0150844Y0010648D01*
X0150694Y0010669D01*
X0150544Y0010694D01*
X0150395Y0010722D01*
X0150247Y0010755D01*
X0150100Y0010791D01*
X0149953Y0010830D01*
X0149808Y0010874D01*
X0149664Y0010921D01*
X0149521Y0010972D01*
X0149380Y0011026D01*
X0149239Y0011084D01*
X0149101Y0011145D01*
X0148964Y0011210D01*
X0148828Y0011279D01*
X0148695Y0011350D01*
X0148563Y0011425D01*
X0148433Y0011504D01*
X0148306Y0011585D01*
X0148180Y0011670D01*
X0148056Y0011758D01*
X0147935Y0011849D01*
X0147816Y0011943D01*
X0147700Y0012041D01*
X0147586Y0012141D01*
X0147474Y0012243D01*
X0147366Y0012349D01*
X0147260Y0012457D01*
X0147156Y0012568D01*
X0147056Y0012682D01*
X0146958Y0012798D01*
X0146864Y0012917D01*
X0151600Y0010600D02*
X0151752Y0010602D01*
X0151903Y0010608D01*
X0152054Y0010617D01*
X0152206Y0010631D01*
X0152356Y0010648D01*
X0152506Y0010669D01*
X0152656Y0010694D01*
X0152805Y0010722D01*
X0152953Y0010755D01*
X0153100Y0010791D01*
X0153247Y0010830D01*
X0153392Y0010874D01*
X0153536Y0010921D01*
X0153679Y0010972D01*
X0153820Y0011026D01*
X0153961Y0011084D01*
X0154099Y0011145D01*
X0154236Y0011210D01*
X0154372Y0011279D01*
X0154505Y0011350D01*
X0154637Y0011425D01*
X0154767Y0011504D01*
X0154894Y0011585D01*
X0155020Y0011670D01*
X0155144Y0011758D01*
X0155265Y0011849D01*
X0155384Y0011943D01*
X0155500Y0012041D01*
X0155614Y0012141D01*
X0155726Y0012243D01*
X0155834Y0012349D01*
X0155940Y0012457D01*
X0156044Y0012568D01*
X0156144Y0012682D01*
X0156242Y0012798D01*
X0156336Y0012917D01*
X0151600Y0022600D02*
X0151450Y0022598D01*
X0151299Y0022592D01*
X0151149Y0022583D01*
X0151000Y0022570D01*
X0150850Y0022553D01*
X0150701Y0022532D01*
X0150553Y0022508D01*
X0150405Y0022480D01*
X0150258Y0022448D01*
X0150112Y0022413D01*
X0149967Y0022373D01*
X0149823Y0022331D01*
X0149680Y0022284D01*
X0149538Y0022234D01*
X0149397Y0022181D01*
X0149258Y0022124D01*
X0149120Y0022064D01*
X0148984Y0022000D01*
X0148850Y0021933D01*
X0148717Y0021862D01*
X0148586Y0021788D01*
X0148457Y0021711D01*
X0148330Y0021630D01*
X0148205Y0021547D01*
X0148082Y0021460D01*
X0147961Y0021371D01*
X0147843Y0021278D01*
X0147727Y0021182D01*
X0147613Y0021084D01*
X0147502Y0020983D01*
X0147393Y0020878D01*
X0147288Y0020772D01*
X0147184Y0020662D01*
X0147084Y0020550D01*
X0146986Y0020436D01*
X0146892Y0020319D01*
X0146800Y0020200D01*
X0040600Y0057600D02*
X0040600Y0059100D01*
X0040100Y0059600D01*
X0040100Y0073600D01*
X0040600Y0074100D01*
X0040600Y0075600D01*
X0040598Y0075660D01*
X0040593Y0075721D01*
X0040584Y0075780D01*
X0040571Y0075839D01*
X0040555Y0075898D01*
X0040535Y0075955D01*
X0040512Y0076010D01*
X0040485Y0076065D01*
X0040456Y0076117D01*
X0040423Y0076168D01*
X0040387Y0076217D01*
X0040349Y0076263D01*
X0040307Y0076307D01*
X0040263Y0076349D01*
X0040217Y0076387D01*
X0040168Y0076423D01*
X0040117Y0076456D01*
X0040065Y0076485D01*
X0040010Y0076512D01*
X0039955Y0076535D01*
X0039898Y0076555D01*
X0039839Y0076571D01*
X0039780Y0076584D01*
X0039721Y0076593D01*
X0039660Y0076598D01*
X0039600Y0076600D01*
X0033600Y0076600D01*
X0033540Y0076598D01*
X0033479Y0076593D01*
X0033420Y0076584D01*
X0033361Y0076571D01*
X0033302Y0076555D01*
X0033245Y0076535D01*
X0033190Y0076512D01*
X0033135Y0076485D01*
X0033083Y0076456D01*
X0033032Y0076423D01*
X0032983Y0076387D01*
X0032937Y0076349D01*
X0032893Y0076307D01*
X0032851Y0076263D01*
X0032813Y0076217D01*
X0032777Y0076168D01*
X0032744Y0076117D01*
X0032715Y0076065D01*
X0032688Y0076010D01*
X0032665Y0075955D01*
X0032645Y0075898D01*
X0032629Y0075839D01*
X0032616Y0075780D01*
X0032607Y0075721D01*
X0032602Y0075660D01*
X0032600Y0075600D01*
X0032600Y0074100D01*
X0033100Y0073600D01*
X0033100Y0059600D01*
X0032600Y0059100D01*
X0032600Y0057600D01*
X0032602Y0057540D01*
X0032607Y0057479D01*
X0032616Y0057420D01*
X0032629Y0057361D01*
X0032645Y0057302D01*
X0032665Y0057245D01*
X0032688Y0057190D01*
X0032715Y0057135D01*
X0032744Y0057083D01*
X0032777Y0057032D01*
X0032813Y0056983D01*
X0032851Y0056937D01*
X0032893Y0056893D01*
X0032937Y0056851D01*
X0032983Y0056813D01*
X0033032Y0056777D01*
X0033083Y0056744D01*
X0033135Y0056715D01*
X0033190Y0056688D01*
X0033245Y0056665D01*
X0033302Y0056645D01*
X0033361Y0056629D01*
X0033420Y0056616D01*
X0033479Y0056607D01*
X0033540Y0056602D01*
X0033600Y0056600D01*
X0039600Y0056600D01*
X0039660Y0056602D01*
X0039721Y0056607D01*
X0039780Y0056616D01*
X0039839Y0056629D01*
X0039898Y0056645D01*
X0039955Y0056665D01*
X0040010Y0056688D01*
X0040065Y0056715D01*
X0040117Y0056744D01*
X0040168Y0056777D01*
X0040217Y0056813D01*
X0040263Y0056851D01*
X0040307Y0056893D01*
X0040349Y0056937D01*
X0040387Y0056983D01*
X0040423Y0057032D01*
X0040456Y0057083D01*
X0040485Y0057135D01*
X0040512Y0057190D01*
X0040535Y0057245D01*
X0040555Y0057302D01*
X0040571Y0057361D01*
X0040584Y0057420D01*
X0040593Y0057479D01*
X0040598Y0057540D01*
X0040600Y0057600D01*
D14*
X0032506Y0033411D02*
X0020694Y0033411D01*
X0014789Y0027506D01*
X0014789Y0015694D01*
X0020694Y0009789D01*
X0032506Y0009789D01*
X0038411Y0015694D01*
X0038411Y0027506D01*
X0032506Y0033411D01*
X0005850Y0066850D02*
X0005850Y0067061D01*
X0005848Y0067100D01*
X0005843Y0067139D01*
X0005834Y0067176D01*
X0005822Y0067213D01*
X0005806Y0067249D01*
X0005787Y0067283D01*
X0005765Y0067315D01*
X0005740Y0067345D01*
X0005712Y0067373D01*
X0005682Y0067398D01*
X0005650Y0067420D01*
X0005616Y0067439D01*
X0005580Y0067455D01*
X0005543Y0067467D01*
X0005506Y0067476D01*
X0005467Y0067481D01*
X0005428Y0067483D01*
X0003950Y0067483D01*
X0004794Y0069541D02*
X0004765Y0069569D01*
X0004733Y0069596D01*
X0004699Y0069619D01*
X0004663Y0069640D01*
X0004626Y0069658D01*
X0004587Y0069672D01*
X0004548Y0069684D01*
X0004507Y0069692D01*
X0004466Y0069697D01*
X0004425Y0069699D01*
X0004794Y0069541D02*
X0005850Y0068644D01*
X0005850Y0069699D01*
X0004372Y0068644D02*
X0004327Y0068660D01*
X0004284Y0068680D01*
X0004242Y0068704D01*
X0004202Y0068730D01*
X0004164Y0068760D01*
X0004129Y0068792D01*
X0004096Y0068828D01*
X0004067Y0068865D01*
X0004040Y0068905D01*
X0004017Y0068947D01*
X0003996Y0068990D01*
X0003980Y0069035D01*
X0003967Y0069082D01*
X0003958Y0069129D01*
X0003952Y0069176D01*
X0003950Y0069224D01*
X0003952Y0069265D01*
X0003957Y0069307D01*
X0003966Y0069347D01*
X0003979Y0069386D01*
X0003995Y0069425D01*
X0004014Y0069462D01*
X0004036Y0069496D01*
X0004061Y0069529D01*
X0004089Y0069560D01*
X0004120Y0069588D01*
X0004153Y0069613D01*
X0004188Y0069635D01*
X0004224Y0069654D01*
X0004263Y0069670D01*
X0004302Y0069683D01*
X0004343Y0069692D01*
X0004384Y0069697D01*
X0004425Y0069699D01*
X0071600Y0061600D02*
X0081600Y0061600D01*
X0081600Y0091600D01*
X0071600Y0091600D01*
X0071600Y0061600D01*
X0144350Y0032850D02*
X0144350Y0028350D01*
X0146350Y0028350D01*
X0148250Y0028350D02*
X0148250Y0032850D01*
X0150250Y0032850D01*
X0152140Y0032850D02*
X0153390Y0032850D01*
X0153458Y0032848D01*
X0153525Y0032843D01*
X0153592Y0032834D01*
X0153659Y0032821D01*
X0153724Y0032804D01*
X0153789Y0032785D01*
X0153853Y0032761D01*
X0153915Y0032734D01*
X0153976Y0032704D01*
X0154034Y0032671D01*
X0154091Y0032635D01*
X0154146Y0032595D01*
X0154199Y0032553D01*
X0154250Y0032507D01*
X0154297Y0032460D01*
X0154343Y0032409D01*
X0154385Y0032356D01*
X0154425Y0032301D01*
X0154461Y0032244D01*
X0154494Y0032186D01*
X0154524Y0032125D01*
X0154551Y0032063D01*
X0154575Y0031999D01*
X0154594Y0031934D01*
X0154611Y0031869D01*
X0154624Y0031802D01*
X0154633Y0031735D01*
X0154638Y0031668D01*
X0154640Y0031600D01*
X0154640Y0029600D01*
X0154638Y0029532D01*
X0154633Y0029465D01*
X0154624Y0029398D01*
X0154611Y0029331D01*
X0154594Y0029266D01*
X0154575Y0029201D01*
X0154551Y0029137D01*
X0154524Y0029075D01*
X0154494Y0029014D01*
X0154461Y0028956D01*
X0154425Y0028899D01*
X0154385Y0028844D01*
X0154343Y0028791D01*
X0154297Y0028740D01*
X0154250Y0028693D01*
X0154199Y0028647D01*
X0154146Y0028605D01*
X0154091Y0028565D01*
X0154034Y0028529D01*
X0153976Y0028496D01*
X0153915Y0028466D01*
X0153853Y0028439D01*
X0153789Y0028415D01*
X0153724Y0028396D01*
X0153659Y0028379D01*
X0153592Y0028366D01*
X0153525Y0028357D01*
X0153458Y0028352D01*
X0153390Y0028350D01*
X0152140Y0028350D01*
X0152140Y0032850D01*
X0149750Y0030850D02*
X0148250Y0030850D01*
X0148250Y0028350D02*
X0150250Y0028350D01*
X0156790Y0028350D02*
X0159290Y0028350D01*
X0158040Y0028350D02*
X0158040Y0032850D01*
X0156790Y0031850D01*
X0164350Y0138350D02*
X0166350Y0138350D01*
X0168250Y0138350D02*
X0168250Y0142850D01*
X0170250Y0142850D01*
X0172140Y0142850D02*
X0173390Y0142850D01*
X0173458Y0142848D01*
X0173525Y0142843D01*
X0173592Y0142834D01*
X0173659Y0142821D01*
X0173724Y0142804D01*
X0173789Y0142785D01*
X0173853Y0142761D01*
X0173915Y0142734D01*
X0173976Y0142704D01*
X0174034Y0142671D01*
X0174091Y0142635D01*
X0174146Y0142595D01*
X0174199Y0142553D01*
X0174250Y0142507D01*
X0174297Y0142460D01*
X0174343Y0142409D01*
X0174385Y0142356D01*
X0174425Y0142301D01*
X0174461Y0142244D01*
X0174494Y0142186D01*
X0174524Y0142125D01*
X0174551Y0142063D01*
X0174575Y0141999D01*
X0174594Y0141934D01*
X0174611Y0141869D01*
X0174624Y0141802D01*
X0174633Y0141735D01*
X0174638Y0141668D01*
X0174640Y0141600D01*
X0174640Y0139600D01*
X0174638Y0139532D01*
X0174633Y0139465D01*
X0174624Y0139398D01*
X0174611Y0139331D01*
X0174594Y0139266D01*
X0174575Y0139201D01*
X0174551Y0139137D01*
X0174524Y0139075D01*
X0174494Y0139014D01*
X0174461Y0138956D01*
X0174425Y0138899D01*
X0174385Y0138844D01*
X0174343Y0138791D01*
X0174297Y0138740D01*
X0174250Y0138693D01*
X0174199Y0138647D01*
X0174146Y0138605D01*
X0174091Y0138565D01*
X0174034Y0138529D01*
X0173976Y0138496D01*
X0173915Y0138466D01*
X0173853Y0138439D01*
X0173789Y0138415D01*
X0173724Y0138396D01*
X0173659Y0138379D01*
X0173592Y0138366D01*
X0173525Y0138357D01*
X0173458Y0138352D01*
X0173390Y0138350D01*
X0172140Y0138350D01*
X0172140Y0142850D01*
X0169750Y0140850D02*
X0168250Y0140850D01*
X0168250Y0138350D02*
X0170250Y0138350D01*
X0164350Y0138350D02*
X0164350Y0142850D01*
X0176790Y0138350D02*
X0179290Y0138350D01*
X0176790Y0138350D02*
X0178915Y0140850D01*
X0178165Y0142850D02*
X0178092Y0142848D01*
X0178020Y0142843D01*
X0177948Y0142834D01*
X0177876Y0142821D01*
X0177805Y0142805D01*
X0177735Y0142785D01*
X0177667Y0142761D01*
X0177599Y0142735D01*
X0177533Y0142704D01*
X0177468Y0142671D01*
X0177406Y0142634D01*
X0177345Y0142595D01*
X0177286Y0142552D01*
X0177229Y0142506D01*
X0177175Y0142458D01*
X0177124Y0142407D01*
X0177074Y0142353D01*
X0177028Y0142297D01*
X0176985Y0142239D01*
X0176944Y0142178D01*
X0176907Y0142116D01*
X0176873Y0142052D01*
X0176842Y0141986D01*
X0176814Y0141919D01*
X0176790Y0141850D01*
X0178915Y0140850D02*
X0178961Y0140896D01*
X0179005Y0140945D01*
X0179045Y0140996D01*
X0179083Y0141049D01*
X0179118Y0141104D01*
X0179150Y0141161D01*
X0179179Y0141219D01*
X0179205Y0141279D01*
X0179227Y0141341D01*
X0179246Y0141403D01*
X0179262Y0141466D01*
X0179274Y0141530D01*
X0179283Y0141595D01*
X0179288Y0141660D01*
X0179290Y0141725D01*
X0179288Y0141790D01*
X0179282Y0141856D01*
X0179273Y0141920D01*
X0179260Y0141984D01*
X0179243Y0142048D01*
X0179222Y0142110D01*
X0179198Y0142171D01*
X0179170Y0142230D01*
X0179139Y0142288D01*
X0179105Y0142343D01*
X0179067Y0142397D01*
X0179027Y0142448D01*
X0178983Y0142497D01*
X0178937Y0142543D01*
X0178888Y0142587D01*
X0178837Y0142627D01*
X0178783Y0142665D01*
X0178728Y0142699D01*
X0178670Y0142730D01*
X0178611Y0142758D01*
X0178550Y0142782D01*
X0178488Y0142803D01*
X0178424Y0142820D01*
X0178360Y0142833D01*
X0178296Y0142842D01*
X0178230Y0142848D01*
X0178165Y0142850D01*
X0204850Y0144134D02*
X0206328Y0144134D01*
X0206367Y0144132D01*
X0206406Y0144127D01*
X0206443Y0144118D01*
X0206480Y0144106D01*
X0206516Y0144090D01*
X0206550Y0144071D01*
X0206582Y0144049D01*
X0206612Y0144024D01*
X0206640Y0143996D01*
X0206665Y0143966D01*
X0206687Y0143934D01*
X0206706Y0143900D01*
X0206722Y0143864D01*
X0206734Y0143827D01*
X0206743Y0143790D01*
X0206748Y0143751D01*
X0206750Y0143712D01*
X0206750Y0143501D01*
X0206750Y0145294D02*
X0206750Y0145822D01*
X0206748Y0145867D01*
X0206742Y0145911D01*
X0206733Y0145955D01*
X0206720Y0145998D01*
X0206703Y0146039D01*
X0206683Y0146080D01*
X0206659Y0146118D01*
X0206633Y0146154D01*
X0206603Y0146187D01*
X0206571Y0146218D01*
X0206536Y0146247D01*
X0206499Y0146272D01*
X0206460Y0146293D01*
X0206419Y0146312D01*
X0206377Y0146327D01*
X0206333Y0146338D01*
X0206289Y0146346D01*
X0206244Y0146350D01*
X0206200Y0146350D01*
X0206155Y0146346D01*
X0206111Y0146338D01*
X0206067Y0146327D01*
X0206025Y0146312D01*
X0205984Y0146293D01*
X0205945Y0146272D01*
X0205908Y0146247D01*
X0205873Y0146218D01*
X0205841Y0146187D01*
X0205811Y0146154D01*
X0205785Y0146118D01*
X0205761Y0146080D01*
X0205741Y0146039D01*
X0205724Y0145998D01*
X0205711Y0145955D01*
X0205702Y0145911D01*
X0205696Y0145867D01*
X0205694Y0145822D01*
X0205694Y0145928D02*
X0205694Y0145506D01*
X0205694Y0145928D02*
X0205692Y0145968D01*
X0205686Y0146008D01*
X0205677Y0146047D01*
X0205664Y0146085D01*
X0205647Y0146121D01*
X0205627Y0146156D01*
X0205604Y0146189D01*
X0205577Y0146219D01*
X0205548Y0146247D01*
X0205517Y0146272D01*
X0205483Y0146293D01*
X0205447Y0146312D01*
X0205410Y0146327D01*
X0205371Y0146338D01*
X0205332Y0146346D01*
X0205292Y0146350D01*
X0205252Y0146350D01*
X0205212Y0146346D01*
X0205173Y0146338D01*
X0205134Y0146327D01*
X0205097Y0146312D01*
X0205061Y0146293D01*
X0205027Y0146272D01*
X0204996Y0146247D01*
X0204967Y0146219D01*
X0204940Y0146189D01*
X0204917Y0146156D01*
X0204897Y0146121D01*
X0204880Y0146085D01*
X0204867Y0146047D01*
X0204858Y0146008D01*
X0204852Y0145968D01*
X0204850Y0145928D01*
X0204850Y0145294D01*
X0117052Y0192600D02*
X0115473Y0192600D01*
X0114846Y0198100D02*
X0098354Y0198100D01*
X0097727Y0192600D02*
X0096148Y0192600D01*
X0105473Y0192600D02*
X0107727Y0192600D01*
X0114846Y0198100D02*
X0114999Y0197901D01*
X0115147Y0197699D01*
X0115290Y0197494D01*
X0115428Y0197285D01*
X0115561Y0197073D01*
X0115689Y0196858D01*
X0115811Y0196640D01*
X0115929Y0196419D01*
X0116041Y0196195D01*
X0116148Y0195969D01*
X0116249Y0195740D01*
X0116345Y0195509D01*
X0116436Y0195275D01*
X0116521Y0195040D01*
X0116600Y0194802D01*
X0116673Y0194563D01*
X0116741Y0194322D01*
X0116803Y0194080D01*
X0116859Y0193836D01*
X0116910Y0193590D01*
X0116954Y0193344D01*
X0116993Y0193097D01*
X0117025Y0192849D01*
X0117052Y0192600D01*
X0103504Y0181567D02*
X0103262Y0181645D01*
X0103022Y0181729D01*
X0102784Y0181818D01*
X0102548Y0181914D01*
X0102314Y0182015D01*
X0102083Y0182121D01*
X0101855Y0182234D01*
X0101629Y0182351D01*
X0101406Y0182474D01*
X0101187Y0182603D01*
X0100970Y0182737D01*
X0100757Y0182876D01*
X0100547Y0183020D01*
X0100341Y0183169D01*
X0100139Y0183323D01*
X0099940Y0183482D01*
X0099745Y0183646D01*
X0099554Y0183815D01*
X0099368Y0183988D01*
X0099185Y0184165D01*
X0099007Y0184347D01*
X0098834Y0184533D01*
X0098665Y0184724D01*
X0098501Y0184918D01*
X0098341Y0185116D01*
X0098186Y0185318D01*
X0098037Y0185524D01*
X0097892Y0185733D01*
X0097752Y0185946D01*
X0097618Y0186162D01*
X0097489Y0186382D01*
X0097365Y0186604D01*
X0097246Y0186829D01*
X0097134Y0187057D01*
X0097026Y0187288D01*
X0096925Y0187521D01*
X0096829Y0187757D01*
X0096738Y0187995D01*
X0096654Y0188235D01*
X0096575Y0188477D01*
X0096502Y0188721D01*
X0096436Y0188967D01*
X0096375Y0189214D01*
X0096320Y0189462D01*
X0096271Y0189712D01*
X0096228Y0189963D01*
X0096192Y0190215D01*
X0096161Y0190467D01*
X0096137Y0190721D01*
X0096119Y0190974D01*
X0096107Y0191229D01*
X0096101Y0191483D01*
X0096101Y0191738D01*
X0096107Y0191992D01*
X0096120Y0192246D01*
X0096139Y0192500D01*
X0096164Y0192753D01*
X0096195Y0193006D01*
X0096232Y0193258D01*
X0096275Y0193508D01*
X0096324Y0193758D01*
X0096379Y0194007D01*
X0096441Y0194254D01*
X0096508Y0194499D01*
X0096581Y0194743D01*
X0096660Y0194985D01*
X0096745Y0195224D01*
X0096836Y0195462D01*
X0096933Y0195698D01*
X0097035Y0195931D01*
X0097143Y0196161D01*
X0097256Y0196389D01*
X0097375Y0196614D01*
X0097499Y0196836D01*
X0097628Y0197055D01*
X0097763Y0197271D01*
X0097903Y0197484D01*
X0098049Y0197693D01*
X0098199Y0197898D01*
X0098354Y0198100D01*
X0117052Y0192600D02*
X0117074Y0192345D01*
X0117089Y0192089D01*
X0117097Y0191833D01*
X0117100Y0191576D01*
X0117096Y0191320D01*
X0117086Y0191064D01*
X0117070Y0190808D01*
X0117048Y0190553D01*
X0117019Y0190298D01*
X0116984Y0190044D01*
X0116943Y0189791D01*
X0116896Y0189539D01*
X0116842Y0189289D01*
X0116783Y0189040D01*
X0116717Y0188792D01*
X0116646Y0188546D01*
X0116568Y0188301D01*
X0116485Y0188059D01*
X0116396Y0187819D01*
X0116300Y0187581D01*
X0116199Y0187345D01*
X0116093Y0187112D01*
X0115980Y0186882D01*
X0115862Y0186654D01*
X0115739Y0186430D01*
X0115610Y0186208D01*
X0115476Y0185990D01*
X0115336Y0185775D01*
X0115191Y0185564D01*
X0115041Y0185356D01*
X0114887Y0185152D01*
X0114727Y0184951D01*
X0114562Y0184755D01*
X0114393Y0184563D01*
X0114218Y0184374D01*
X0114040Y0184191D01*
X0113857Y0184011D01*
X0113669Y0183836D01*
X0113478Y0183666D01*
X0113282Y0183501D01*
X0113082Y0183340D01*
X0112879Y0183184D01*
X0112672Y0183034D01*
X0112461Y0182888D01*
X0112246Y0182747D01*
X0112029Y0182612D01*
X0111808Y0182482D01*
X0111584Y0182358D01*
X0111357Y0182239D01*
X0111127Y0182126D01*
X0110894Y0182018D01*
X0110659Y0181916D01*
X0110421Y0181820D01*
X0110182Y0181730D01*
X0109940Y0181645D01*
X0109696Y0181567D01*
X0063411Y0185694D02*
X0063411Y0197506D01*
X0057506Y0203411D01*
X0045694Y0203411D01*
X0039789Y0197506D01*
X0039789Y0185694D01*
X0045694Y0179789D01*
X0057506Y0179789D01*
X0063411Y0185694D01*
X0019350Y0182832D02*
X0019350Y0182304D01*
X0019350Y0182832D02*
X0019348Y0182877D01*
X0019342Y0182921D01*
X0019333Y0182965D01*
X0019320Y0183008D01*
X0019303Y0183049D01*
X0019283Y0183090D01*
X0019259Y0183128D01*
X0019233Y0183164D01*
X0019203Y0183197D01*
X0019171Y0183228D01*
X0019136Y0183257D01*
X0019099Y0183282D01*
X0019060Y0183303D01*
X0019019Y0183322D01*
X0018977Y0183337D01*
X0018933Y0183348D01*
X0018889Y0183356D01*
X0018844Y0183360D01*
X0018800Y0183360D01*
X0018755Y0183356D01*
X0018711Y0183348D01*
X0018667Y0183337D01*
X0018625Y0183322D01*
X0018584Y0183303D01*
X0018545Y0183282D01*
X0018508Y0183257D01*
X0018473Y0183228D01*
X0018441Y0183197D01*
X0018411Y0183164D01*
X0018385Y0183128D01*
X0018361Y0183090D01*
X0018341Y0183049D01*
X0018324Y0183008D01*
X0018311Y0182965D01*
X0018302Y0182921D01*
X0018296Y0182877D01*
X0018294Y0182832D01*
X0018294Y0182938D02*
X0018294Y0182515D01*
X0018294Y0182938D02*
X0018292Y0182978D01*
X0018286Y0183018D01*
X0018277Y0183057D01*
X0018264Y0183095D01*
X0018247Y0183131D01*
X0018227Y0183166D01*
X0018204Y0183199D01*
X0018177Y0183229D01*
X0018148Y0183257D01*
X0018117Y0183282D01*
X0018083Y0183303D01*
X0018047Y0183322D01*
X0018010Y0183337D01*
X0017971Y0183348D01*
X0017932Y0183356D01*
X0017892Y0183360D01*
X0017852Y0183360D01*
X0017812Y0183356D01*
X0017773Y0183348D01*
X0017734Y0183337D01*
X0017697Y0183322D01*
X0017661Y0183303D01*
X0017627Y0183282D01*
X0017596Y0183257D01*
X0017567Y0183229D01*
X0017540Y0183199D01*
X0017517Y0183166D01*
X0017497Y0183131D01*
X0017480Y0183095D01*
X0017467Y0183057D01*
X0017458Y0183018D01*
X0017452Y0182978D01*
X0017450Y0182938D01*
X0017450Y0182304D01*
X0017450Y0181344D02*
X0017450Y0180288D01*
X0017450Y0180816D02*
X0019350Y0180816D01*
X0019350Y0179443D02*
X0019350Y0179021D01*
X0019350Y0179232D02*
X0017450Y0179232D01*
X0017450Y0179021D02*
X0017450Y0179443D01*
X0017450Y0178162D02*
X0018611Y0177106D01*
X0018189Y0177528D02*
X0019350Y0178162D01*
X0019350Y0177106D02*
X0017450Y0177106D01*
X0017450Y0176009D02*
X0017450Y0175587D01*
X0017452Y0175548D01*
X0017457Y0175509D01*
X0017466Y0175471D01*
X0017479Y0175435D01*
X0017494Y0175399D01*
X0017513Y0175365D01*
X0017535Y0175333D01*
X0017560Y0175303D01*
X0017588Y0175275D01*
X0017618Y0175250D01*
X0017650Y0175228D01*
X0017684Y0175209D01*
X0017720Y0175193D01*
X0017757Y0175181D01*
X0017794Y0175172D01*
X0017833Y0175167D01*
X0017872Y0175165D01*
X0018928Y0175165D01*
X0018967Y0175167D01*
X0019006Y0175172D01*
X0019043Y0175181D01*
X0019080Y0175193D01*
X0019116Y0175209D01*
X0019150Y0175228D01*
X0019182Y0175250D01*
X0019212Y0175275D01*
X0019240Y0175303D01*
X0019265Y0175333D01*
X0019287Y0175365D01*
X0019306Y0175399D01*
X0019322Y0175435D01*
X0019334Y0175472D01*
X0019343Y0175509D01*
X0019348Y0175548D01*
X0019350Y0175587D01*
X0019350Y0176009D01*
X0019350Y0174187D02*
X0019350Y0173765D01*
X0019350Y0173976D02*
X0017450Y0173976D01*
X0017450Y0173765D02*
X0017450Y0174187D01*
X0017450Y0172378D02*
X0017450Y0171850D01*
X0019350Y0171850D01*
X0018506Y0171850D02*
X0018506Y0172378D01*
X0018504Y0172423D01*
X0018498Y0172467D01*
X0018489Y0172511D01*
X0018476Y0172554D01*
X0018459Y0172595D01*
X0018439Y0172636D01*
X0018415Y0172674D01*
X0018389Y0172710D01*
X0018359Y0172743D01*
X0018327Y0172774D01*
X0018292Y0172803D01*
X0018255Y0172828D01*
X0018216Y0172849D01*
X0018175Y0172868D01*
X0018133Y0172883D01*
X0018089Y0172894D01*
X0018045Y0172902D01*
X0018000Y0172906D01*
X0017956Y0172906D01*
X0017911Y0172902D01*
X0017867Y0172894D01*
X0017823Y0172883D01*
X0017781Y0172868D01*
X0017740Y0172849D01*
X0017701Y0172828D01*
X0017664Y0172803D01*
X0017629Y0172774D01*
X0017597Y0172743D01*
X0017567Y0172710D01*
X0017541Y0172674D01*
X0017517Y0172636D01*
X0017497Y0172595D01*
X0017480Y0172554D01*
X0017467Y0172511D01*
X0017458Y0172467D01*
X0017452Y0172423D01*
X0017450Y0172378D01*
D15*
X0016600Y0174100D02*
X0014100Y0171600D01*
X0016600Y0169100D01*
X0016600Y0164100D01*
X0014100Y0161600D01*
X0016600Y0159100D01*
X0016600Y0154100D01*
X0014100Y0151600D01*
X0009100Y0151600D01*
X0006600Y0154100D01*
X0006600Y0159100D01*
X0009100Y0161600D01*
X0006600Y0164100D01*
X0006600Y0169100D01*
X0009100Y0171600D01*
X0006600Y0174100D01*
X0006600Y0179100D01*
X0009100Y0181600D01*
X0006600Y0184100D01*
X0006600Y0189100D01*
X0009100Y0191600D01*
X0006600Y0194100D01*
X0006600Y0199100D01*
X0009100Y0201600D01*
X0014100Y0201600D01*
X0016600Y0199100D01*
X0016600Y0194100D01*
X0014100Y0191600D01*
X0016600Y0189100D01*
X0016600Y0184100D01*
X0014100Y0181600D01*
X0016600Y0179100D01*
X0016600Y0174100D01*
X0014100Y0146600D02*
X0009100Y0146600D01*
X0006600Y0144100D01*
X0006600Y0139100D01*
X0009100Y0136600D01*
X0006600Y0134100D01*
X0006600Y0129100D01*
X0009100Y0126600D01*
X0006600Y0124100D01*
X0006600Y0119100D01*
X0009100Y0116600D01*
X0006600Y0114100D01*
X0006600Y0109100D01*
X0009100Y0106600D01*
X0006600Y0104100D01*
X0006600Y0099100D01*
X0009100Y0096600D01*
X0006600Y0094100D01*
X0006600Y0089100D01*
X0009100Y0086600D01*
X0006600Y0084100D01*
X0006600Y0079100D01*
X0009100Y0076600D01*
X0006600Y0074100D01*
X0006600Y0069100D01*
X0009100Y0066600D01*
X0014100Y0066600D01*
X0016600Y0069100D01*
X0016600Y0074100D01*
X0014100Y0076600D01*
X0016600Y0079100D01*
X0016600Y0084100D01*
X0014100Y0086600D01*
X0016600Y0089100D01*
X0016600Y0094100D01*
X0014100Y0096600D01*
X0016600Y0099100D01*
X0016600Y0104100D01*
X0014100Y0106600D01*
X0016600Y0109100D01*
X0016600Y0114100D01*
X0014100Y0116600D01*
X0016600Y0119100D01*
X0016600Y0124100D01*
X0014100Y0126600D01*
X0016600Y0129100D01*
X0016600Y0134100D01*
X0014100Y0136600D01*
X0016600Y0139100D01*
X0016600Y0144100D01*
X0014100Y0146600D01*
X0194100Y0144100D02*
X0194100Y0139100D01*
X0196600Y0136600D01*
X0194100Y0134100D01*
X0194100Y0129100D01*
X0196600Y0126600D01*
X0194100Y0124100D01*
X0194100Y0119100D01*
X0196600Y0116600D01*
X0194100Y0114100D01*
X0194100Y0109100D01*
X0196600Y0106600D01*
X0194100Y0104100D01*
X0194100Y0099100D01*
X0196600Y0096600D01*
X0194100Y0094100D01*
X0194100Y0089100D01*
X0196600Y0086600D01*
X0194100Y0084100D01*
X0194100Y0079100D01*
X0196600Y0076600D01*
X0194100Y0074100D01*
X0194100Y0069100D01*
X0196600Y0066600D01*
X0201600Y0066600D01*
X0204100Y0069100D01*
X0204100Y0074100D01*
X0201600Y0076600D01*
X0204100Y0079100D01*
X0204100Y0084100D01*
X0201600Y0086600D01*
X0204100Y0089100D01*
X0204100Y0094100D01*
X0201600Y0096600D01*
X0204100Y0099100D01*
X0204100Y0104100D01*
X0201600Y0106600D01*
X0204100Y0109100D01*
X0204100Y0114100D01*
X0201600Y0116600D01*
X0204100Y0119100D01*
X0204100Y0124100D01*
X0201600Y0126600D01*
X0204100Y0129100D01*
X0204100Y0134100D01*
X0201600Y0136600D01*
X0204100Y0139100D01*
X0204100Y0144100D01*
X0201600Y0146600D01*
X0196600Y0146600D01*
X0194100Y0144100D01*
D16*
X0179600Y0151600D02*
X0179598Y0151792D01*
X0179591Y0151984D01*
X0179579Y0152176D01*
X0179563Y0152368D01*
X0179542Y0152559D01*
X0179517Y0152749D01*
X0179487Y0152939D01*
X0179453Y0153128D01*
X0179414Y0153316D01*
X0179370Y0153503D01*
X0179322Y0153689D01*
X0179270Y0153874D01*
X0179213Y0154058D01*
X0179152Y0154240D01*
X0179086Y0154420D01*
X0179016Y0154599D01*
X0178942Y0154777D01*
X0178864Y0154952D01*
X0178781Y0155126D01*
X0178694Y0155297D01*
X0178604Y0155466D01*
X0178509Y0155633D01*
X0178410Y0155798D01*
X0178307Y0155961D01*
X0178200Y0156120D01*
X0178090Y0156278D01*
X0177976Y0156432D01*
X0177858Y0156584D01*
X0177736Y0156733D01*
X0177611Y0156879D01*
X0177483Y0157021D01*
X0177351Y0157161D01*
X0177216Y0157298D01*
X0177077Y0157431D01*
X0176936Y0157561D01*
X0176791Y0157687D01*
X0176643Y0157810D01*
X0176493Y0157929D01*
X0176339Y0158045D01*
X0176183Y0158157D01*
X0176024Y0158265D01*
X0175863Y0158370D01*
X0175699Y0158470D01*
X0175533Y0158566D01*
X0175365Y0158659D01*
X0167631Y0158546D02*
X0167462Y0158447D01*
X0167296Y0158343D01*
X0167132Y0158236D01*
X0166971Y0158125D01*
X0166813Y0158010D01*
X0166658Y0157891D01*
X0166505Y0157768D01*
X0166356Y0157642D01*
X0166210Y0157512D01*
X0166067Y0157378D01*
X0165927Y0157241D01*
X0165791Y0157101D01*
X0165658Y0156957D01*
X0165529Y0156810D01*
X0165403Y0156660D01*
X0165282Y0156507D01*
X0165163Y0156351D01*
X0165049Y0156192D01*
X0164939Y0156031D01*
X0164833Y0155866D01*
X0164730Y0155700D01*
X0164632Y0155530D01*
X0164538Y0155359D01*
X0164448Y0155185D01*
X0164363Y0155009D01*
X0164281Y0154831D01*
X0164205Y0154651D01*
X0164132Y0154469D01*
X0164064Y0154286D01*
X0164001Y0154101D01*
X0163942Y0153914D01*
X0163888Y0153726D01*
X0163838Y0153537D01*
X0163793Y0153347D01*
X0163753Y0153155D01*
X0163717Y0152963D01*
X0163686Y0152770D01*
X0163660Y0152576D01*
X0163638Y0152381D01*
X0163622Y0152186D01*
X0163610Y0151991D01*
X0163602Y0151795D01*
X0163600Y0151600D01*
X0163602Y0151407D01*
X0163609Y0151214D01*
X0163621Y0151022D01*
X0163637Y0150829D01*
X0163658Y0150637D01*
X0163684Y0150446D01*
X0163714Y0150256D01*
X0163749Y0150066D01*
X0163788Y0149877D01*
X0163832Y0149689D01*
X0163880Y0149502D01*
X0163933Y0149316D01*
X0163990Y0149132D01*
X0164052Y0148949D01*
X0164118Y0148768D01*
X0164189Y0148588D01*
X0164263Y0148410D01*
X0164342Y0148234D01*
X0164426Y0148060D01*
X0164513Y0147888D01*
X0164605Y0147718D01*
X0164701Y0147551D01*
X0164800Y0147385D01*
X0164904Y0147222D01*
X0165011Y0147062D01*
X0165123Y0146905D01*
X0165238Y0146750D01*
X0165357Y0146598D01*
X0165479Y0146449D01*
X0165605Y0146302D01*
X0165735Y0146159D01*
X0165868Y0146019D01*
X0166004Y0145883D01*
X0166144Y0145749D01*
X0166286Y0145620D01*
X0166432Y0145493D01*
X0176722Y0145454D02*
X0176870Y0145581D01*
X0177015Y0145711D01*
X0177156Y0145844D01*
X0177295Y0145981D01*
X0177430Y0146121D01*
X0177561Y0146265D01*
X0177689Y0146412D01*
X0177814Y0146561D01*
X0177935Y0146714D01*
X0178052Y0146869D01*
X0178165Y0147028D01*
X0178274Y0147189D01*
X0178379Y0147353D01*
X0178481Y0147519D01*
X0178578Y0147688D01*
X0178671Y0147858D01*
X0178760Y0148032D01*
X0178845Y0148207D01*
X0178925Y0148384D01*
X0179001Y0148563D01*
X0179073Y0148744D01*
X0179140Y0148927D01*
X0179203Y0149111D01*
X0179261Y0149297D01*
X0179315Y0149484D01*
X0179364Y0149672D01*
X0179409Y0149862D01*
X0179449Y0150052D01*
X0179484Y0150244D01*
X0179515Y0150436D01*
X0179541Y0150629D01*
X0179562Y0150823D01*
X0179579Y0151017D01*
X0179591Y0151211D01*
X0179598Y0151405D01*
X0179600Y0151600D01*
X0157707Y0011432D02*
X0157580Y0011286D01*
X0157451Y0011144D01*
X0157317Y0011004D01*
X0157181Y0010868D01*
X0157041Y0010735D01*
X0156898Y0010605D01*
X0156751Y0010479D01*
X0156602Y0010357D01*
X0156450Y0010238D01*
X0156295Y0010123D01*
X0156138Y0010011D01*
X0155978Y0009904D01*
X0155815Y0009800D01*
X0155649Y0009701D01*
X0155482Y0009605D01*
X0155312Y0009513D01*
X0155140Y0009426D01*
X0154966Y0009342D01*
X0154790Y0009263D01*
X0154612Y0009189D01*
X0154432Y0009118D01*
X0154251Y0009052D01*
X0154068Y0008990D01*
X0153884Y0008933D01*
X0153698Y0008880D01*
X0153511Y0008832D01*
X0153323Y0008788D01*
X0153134Y0008749D01*
X0152944Y0008714D01*
X0152754Y0008684D01*
X0152563Y0008658D01*
X0152371Y0008637D01*
X0152178Y0008621D01*
X0151986Y0008609D01*
X0151793Y0008602D01*
X0151600Y0008600D01*
X0144541Y0020365D02*
X0144634Y0020533D01*
X0144730Y0020699D01*
X0144830Y0020863D01*
X0144935Y0021024D01*
X0145043Y0021183D01*
X0145155Y0021339D01*
X0145271Y0021493D01*
X0145390Y0021643D01*
X0145513Y0021791D01*
X0145639Y0021936D01*
X0145769Y0022077D01*
X0145902Y0022216D01*
X0146039Y0022351D01*
X0146179Y0022483D01*
X0146321Y0022611D01*
X0146467Y0022736D01*
X0146616Y0022858D01*
X0146768Y0022976D01*
X0146922Y0023090D01*
X0147080Y0023200D01*
X0147239Y0023307D01*
X0147402Y0023410D01*
X0147567Y0023509D01*
X0147734Y0023604D01*
X0147903Y0023694D01*
X0148074Y0023781D01*
X0148248Y0023864D01*
X0148423Y0023942D01*
X0148601Y0024016D01*
X0148780Y0024086D01*
X0148960Y0024152D01*
X0149142Y0024213D01*
X0149326Y0024270D01*
X0149511Y0024322D01*
X0149697Y0024370D01*
X0149884Y0024414D01*
X0150072Y0024453D01*
X0150261Y0024487D01*
X0150451Y0024517D01*
X0150641Y0024542D01*
X0150832Y0024563D01*
X0151024Y0024579D01*
X0151216Y0024591D01*
X0151408Y0024598D01*
X0151600Y0024600D01*
X0144654Y0012631D02*
X0144753Y0012462D01*
X0144857Y0012296D01*
X0144964Y0012132D01*
X0145075Y0011971D01*
X0145190Y0011813D01*
X0145309Y0011658D01*
X0145432Y0011505D01*
X0145558Y0011356D01*
X0145688Y0011210D01*
X0145822Y0011067D01*
X0145959Y0010927D01*
X0146099Y0010791D01*
X0146243Y0010658D01*
X0146390Y0010529D01*
X0146540Y0010403D01*
X0146693Y0010282D01*
X0146849Y0010163D01*
X0147008Y0010049D01*
X0147169Y0009939D01*
X0147334Y0009833D01*
X0147500Y0009730D01*
X0147670Y0009632D01*
X0147841Y0009538D01*
X0148015Y0009448D01*
X0148191Y0009363D01*
X0148369Y0009281D01*
X0148549Y0009205D01*
X0148731Y0009132D01*
X0148914Y0009064D01*
X0149099Y0009001D01*
X0149286Y0008942D01*
X0149474Y0008888D01*
X0149663Y0008838D01*
X0149853Y0008793D01*
X0150045Y0008753D01*
X0150237Y0008717D01*
X0150430Y0008686D01*
X0150624Y0008660D01*
X0150819Y0008638D01*
X0151014Y0008622D01*
X0151209Y0008610D01*
X0151405Y0008602D01*
X0151600Y0008600D01*
X0157746Y0021722D02*
X0157619Y0021870D01*
X0157489Y0022015D01*
X0157356Y0022156D01*
X0157219Y0022295D01*
X0157079Y0022430D01*
X0156935Y0022561D01*
X0156788Y0022689D01*
X0156639Y0022814D01*
X0156486Y0022935D01*
X0156331Y0023052D01*
X0156172Y0023165D01*
X0156011Y0023274D01*
X0155847Y0023379D01*
X0155681Y0023481D01*
X0155512Y0023578D01*
X0155342Y0023671D01*
X0155168Y0023760D01*
X0154993Y0023845D01*
X0154816Y0023925D01*
X0154637Y0024001D01*
X0154456Y0024073D01*
X0154273Y0024140D01*
X0154089Y0024203D01*
X0153903Y0024261D01*
X0153716Y0024315D01*
X0153528Y0024364D01*
X0153338Y0024409D01*
X0153148Y0024449D01*
X0152956Y0024484D01*
X0152764Y0024515D01*
X0152571Y0024541D01*
X0152377Y0024562D01*
X0152183Y0024579D01*
X0151989Y0024591D01*
X0151795Y0024598D01*
X0151600Y0024600D01*
D17*
X0029450Y0035550D02*
X0027839Y0035550D01*
X0029208Y0037161D01*
X0028725Y0038450D02*
X0028666Y0038448D01*
X0028608Y0038443D01*
X0028550Y0038433D01*
X0028493Y0038421D01*
X0028437Y0038404D01*
X0028382Y0038385D01*
X0028328Y0038361D01*
X0028276Y0038335D01*
X0028226Y0038305D01*
X0028177Y0038272D01*
X0028131Y0038236D01*
X0028087Y0038197D01*
X0028046Y0038156D01*
X0028007Y0038112D01*
X0027971Y0038066D01*
X0027939Y0038017D01*
X0027909Y0037967D01*
X0027882Y0037915D01*
X0027859Y0037861D01*
X0027839Y0037806D01*
X0029208Y0037161D02*
X0029245Y0037198D01*
X0029279Y0037238D01*
X0029311Y0037280D01*
X0029339Y0037325D01*
X0029365Y0037371D01*
X0029387Y0037418D01*
X0029406Y0037467D01*
X0029422Y0037517D01*
X0029434Y0037568D01*
X0029443Y0037620D01*
X0029448Y0037672D01*
X0029450Y0037725D01*
X0029448Y0037777D01*
X0029443Y0037828D01*
X0029433Y0037879D01*
X0029421Y0037929D01*
X0029404Y0037978D01*
X0029384Y0038026D01*
X0029361Y0038072D01*
X0029335Y0038117D01*
X0029305Y0038159D01*
X0029273Y0038200D01*
X0029238Y0038238D01*
X0029200Y0038273D01*
X0029159Y0038305D01*
X0029117Y0038335D01*
X0029072Y0038361D01*
X0029026Y0038384D01*
X0028978Y0038404D01*
X0028929Y0038421D01*
X0028879Y0038433D01*
X0028828Y0038443D01*
X0028777Y0038448D01*
X0028725Y0038450D01*
X0025907Y0038450D02*
X0025101Y0038450D01*
X0025101Y0035550D01*
X0025907Y0035550D01*
X0025962Y0035552D01*
X0026017Y0035558D01*
X0026071Y0035567D01*
X0026124Y0035580D01*
X0026177Y0035597D01*
X0026228Y0035617D01*
X0026278Y0035640D01*
X0026326Y0035667D01*
X0026372Y0035698D01*
X0026416Y0035731D01*
X0026457Y0035767D01*
X0026496Y0035806D01*
X0026532Y0035847D01*
X0026565Y0035891D01*
X0026596Y0035937D01*
X0026623Y0035985D01*
X0026646Y0036035D01*
X0026666Y0036086D01*
X0026683Y0036139D01*
X0026696Y0036192D01*
X0026705Y0036246D01*
X0026711Y0036301D01*
X0026713Y0036356D01*
X0026711Y0036411D01*
X0026705Y0036466D01*
X0026696Y0036520D01*
X0026683Y0036573D01*
X0026666Y0036626D01*
X0026646Y0036677D01*
X0026623Y0036727D01*
X0026596Y0036775D01*
X0026565Y0036821D01*
X0026532Y0036865D01*
X0026496Y0036906D01*
X0026457Y0036945D01*
X0026416Y0036981D01*
X0026372Y0037014D01*
X0026326Y0037045D01*
X0026278Y0037072D01*
X0026228Y0037095D01*
X0026177Y0037115D01*
X0026124Y0037132D01*
X0026071Y0037145D01*
X0026017Y0037154D01*
X0025962Y0037160D01*
X0025907Y0037162D01*
X0025907Y0037161D02*
X0025101Y0037161D01*
X0025907Y0037162D02*
X0025956Y0037164D01*
X0026005Y0037170D01*
X0026054Y0037179D01*
X0026101Y0037192D01*
X0026148Y0037209D01*
X0026193Y0037229D01*
X0026236Y0037252D01*
X0026278Y0037279D01*
X0026317Y0037309D01*
X0026354Y0037342D01*
X0026388Y0037378D01*
X0026419Y0037416D01*
X0026448Y0037456D01*
X0026473Y0037498D01*
X0026495Y0037543D01*
X0026513Y0037588D01*
X0026528Y0037635D01*
X0026539Y0037683D01*
X0026547Y0037732D01*
X0026551Y0037781D01*
X0026551Y0037831D01*
X0026547Y0037880D01*
X0026539Y0037929D01*
X0026528Y0037977D01*
X0026513Y0038024D01*
X0026495Y0038069D01*
X0026473Y0038114D01*
X0026448Y0038156D01*
X0026419Y0038196D01*
X0026388Y0038234D01*
X0026354Y0038270D01*
X0026317Y0038303D01*
X0026278Y0038333D01*
X0026236Y0038360D01*
X0026193Y0038383D01*
X0026148Y0038403D01*
X0026101Y0038420D01*
X0026054Y0038433D01*
X0026005Y0038442D01*
X0025956Y0038448D01*
X0025907Y0038450D01*
X0023027Y0038450D02*
X0022221Y0038450D01*
X0022221Y0035550D01*
X0022221Y0036839D02*
X0023027Y0036839D01*
X0023027Y0036838D02*
X0023082Y0036840D01*
X0023137Y0036846D01*
X0023191Y0036855D01*
X0023244Y0036868D01*
X0023297Y0036885D01*
X0023348Y0036905D01*
X0023398Y0036928D01*
X0023446Y0036955D01*
X0023492Y0036986D01*
X0023536Y0037019D01*
X0023577Y0037055D01*
X0023616Y0037094D01*
X0023652Y0037135D01*
X0023685Y0037179D01*
X0023716Y0037225D01*
X0023743Y0037273D01*
X0023766Y0037323D01*
X0023786Y0037374D01*
X0023803Y0037427D01*
X0023816Y0037480D01*
X0023825Y0037534D01*
X0023831Y0037589D01*
X0023833Y0037644D01*
X0023831Y0037699D01*
X0023825Y0037754D01*
X0023816Y0037808D01*
X0023803Y0037861D01*
X0023786Y0037914D01*
X0023766Y0037965D01*
X0023743Y0038015D01*
X0023716Y0038063D01*
X0023685Y0038109D01*
X0023652Y0038153D01*
X0023616Y0038194D01*
X0023577Y0038233D01*
X0023536Y0038269D01*
X0023492Y0038302D01*
X0023446Y0038333D01*
X0023398Y0038360D01*
X0023348Y0038383D01*
X0023297Y0038403D01*
X0023244Y0038420D01*
X0023191Y0038433D01*
X0023137Y0038442D01*
X0023082Y0038448D01*
X0023027Y0038450D01*
X0047721Y0176050D02*
X0047721Y0178950D01*
X0048527Y0178950D01*
X0048582Y0178948D01*
X0048637Y0178942D01*
X0048691Y0178933D01*
X0048744Y0178920D01*
X0048797Y0178903D01*
X0048848Y0178883D01*
X0048898Y0178860D01*
X0048946Y0178833D01*
X0048992Y0178802D01*
X0049036Y0178769D01*
X0049077Y0178733D01*
X0049116Y0178694D01*
X0049152Y0178653D01*
X0049185Y0178609D01*
X0049216Y0178563D01*
X0049243Y0178515D01*
X0049266Y0178465D01*
X0049286Y0178414D01*
X0049303Y0178361D01*
X0049316Y0178308D01*
X0049325Y0178254D01*
X0049331Y0178199D01*
X0049333Y0178144D01*
X0049331Y0178089D01*
X0049325Y0178034D01*
X0049316Y0177980D01*
X0049303Y0177927D01*
X0049286Y0177874D01*
X0049266Y0177823D01*
X0049243Y0177773D01*
X0049216Y0177725D01*
X0049185Y0177679D01*
X0049152Y0177635D01*
X0049116Y0177594D01*
X0049077Y0177555D01*
X0049036Y0177519D01*
X0048992Y0177486D01*
X0048946Y0177455D01*
X0048898Y0177428D01*
X0048848Y0177405D01*
X0048797Y0177385D01*
X0048744Y0177368D01*
X0048691Y0177355D01*
X0048637Y0177346D01*
X0048582Y0177340D01*
X0048527Y0177338D01*
X0048527Y0177339D02*
X0047721Y0177339D01*
X0050601Y0177661D02*
X0051407Y0177661D01*
X0051407Y0177662D02*
X0051456Y0177664D01*
X0051505Y0177670D01*
X0051554Y0177679D01*
X0051601Y0177692D01*
X0051648Y0177709D01*
X0051693Y0177729D01*
X0051736Y0177752D01*
X0051778Y0177779D01*
X0051817Y0177809D01*
X0051854Y0177842D01*
X0051888Y0177878D01*
X0051919Y0177916D01*
X0051948Y0177956D01*
X0051973Y0177998D01*
X0051995Y0178043D01*
X0052013Y0178088D01*
X0052028Y0178135D01*
X0052039Y0178183D01*
X0052047Y0178232D01*
X0052051Y0178281D01*
X0052051Y0178331D01*
X0052047Y0178380D01*
X0052039Y0178429D01*
X0052028Y0178477D01*
X0052013Y0178524D01*
X0051995Y0178569D01*
X0051973Y0178614D01*
X0051948Y0178656D01*
X0051919Y0178696D01*
X0051888Y0178734D01*
X0051854Y0178770D01*
X0051817Y0178803D01*
X0051778Y0178833D01*
X0051736Y0178860D01*
X0051693Y0178883D01*
X0051648Y0178903D01*
X0051601Y0178920D01*
X0051554Y0178933D01*
X0051505Y0178942D01*
X0051456Y0178948D01*
X0051407Y0178950D01*
X0050601Y0178950D01*
X0050601Y0176050D01*
X0051407Y0176050D01*
X0051462Y0176052D01*
X0051517Y0176058D01*
X0051571Y0176067D01*
X0051624Y0176080D01*
X0051677Y0176097D01*
X0051728Y0176117D01*
X0051778Y0176140D01*
X0051826Y0176167D01*
X0051872Y0176198D01*
X0051916Y0176231D01*
X0051957Y0176267D01*
X0051996Y0176306D01*
X0052032Y0176347D01*
X0052065Y0176391D01*
X0052096Y0176437D01*
X0052123Y0176485D01*
X0052146Y0176535D01*
X0052166Y0176586D01*
X0052183Y0176639D01*
X0052196Y0176692D01*
X0052205Y0176746D01*
X0052211Y0176801D01*
X0052213Y0176856D01*
X0052211Y0176911D01*
X0052205Y0176966D01*
X0052196Y0177020D01*
X0052183Y0177073D01*
X0052166Y0177126D01*
X0052146Y0177177D01*
X0052123Y0177227D01*
X0052096Y0177275D01*
X0052065Y0177321D01*
X0052032Y0177365D01*
X0051996Y0177406D01*
X0051957Y0177445D01*
X0051916Y0177481D01*
X0051872Y0177514D01*
X0051826Y0177545D01*
X0051778Y0177572D01*
X0051728Y0177595D01*
X0051677Y0177615D01*
X0051624Y0177632D01*
X0051571Y0177645D01*
X0051517Y0177654D01*
X0051462Y0177660D01*
X0051407Y0177662D01*
X0053339Y0178306D02*
X0054144Y0178950D01*
X0054144Y0176050D01*
X0053339Y0176050D02*
X0054950Y0176050D01*
D18*
X0151600Y0177350D03*
X0151600Y0155850D03*
X0036600Y0077350D03*
X0036600Y0055850D03*
D19*
X0095850Y0016600D03*
X0117350Y0016600D03*
X0062350Y0166600D03*
X0040850Y0166600D03*
M02*
